<?xml version="1.0" encoding="UTF-8" standalone="no"?>
<svg
   xmlns:dc="http://purl.org/dc/elements/1.1/"
   xmlns:cc="http://creativecommons.org/ns#"
   xmlns:rdf="http://www.w3.org/1999/02/22-rdf-syntax-ns#"
   xmlns:svg="http://www.w3.org/2000/svg"
   xmlns="http://www.w3.org/2000/svg"
   xmlns:xlink="http://www.w3.org/1999/xlink"
   xmlns:sodipodi="http://sodipodi.sourceforge.net/DTD/sodipodi-0.dtd"
   xmlns:inkscape="http://www.inkscape.org/namespaces/inkscape"
   width="1000"
   height="550"
   viewBox="0 0 1000 550"
   id="svg2"
   version="1.1"
   inkscape:version="0.91 r13725"
   sodipodi:docname="v0.025Ah0.005A.svg">
  <metadata
     id="metadata310">
    <rdf:RDF>
      <cc:Work
         rdf:about="">
        <dc:format>image/svg+xml</dc:format>
        <dc:type
           rdf:resource="http://purl.org/dc/dcmitype/StillImage" />
        <dc:title>Gnuplot</dc:title>
      </cc:Work>
    </rdf:RDF>
  </metadata>
  <defs
     id="defs308" />
  <sodipodi:namedview
     pagecolor="#ffffff"
     bordercolor="#666666"
     borderopacity="1"
     objecttolerance="10"
     gridtolerance="10"
     guidetolerance="10"
     inkscape:pageopacity="0"
     inkscape:pageshadow="2"
     inkscape:window-width="1536"
     inkscape:window-height="841"
     id="namedview306"
     showgrid="false"
     inkscape:zoom="0.68359375"
     inkscape:cx="591.07444"
     inkscape:cy="143.21392"
     inkscape:window-x="-8"
     inkscape:window-y="-8"
     inkscape:window-maximized="1"
     inkscape:current-layer="gnuplot_canvas" />
  <title
     id="title4">Gnuplot</title>
  <desc
     id="desc6">Produced by GNUPLOT 5.0 patchlevel 3 </desc>
  <g
     id="gnuplot_canvas"
     transform="translate(0,-26)">
    <rect
       x="-17.554285"
       y="19.017143"
       width="1024"
       height="576"
       id="rect9"
       style="fill:none" />
    <defs
       id="defs11">
      <circle
         id="gpDot"
         r="0.5"
         cx="0"
         cy="0"
         style="stroke-width:0.5" />
      <path
         id="gpPt0"
         d="M -1,0 1,0 M 0,-1 0,1"
         inkscape:connector-curvature="0"
         style="stroke:currentColor;stroke-width:0.148" />
      <path
         id="gpPt1"
         d="M -1,-1 1,1 M 1,-1 -1,1"
         inkscape:connector-curvature="0"
         style="stroke:currentColor;stroke-width:0.148" />
      <path
         id="gpPt2"
         d="M -1,0 1,0 M 0,-1 0,1 m -1,-2 2,2 m -2,0 2,-2"
         inkscape:connector-curvature="0"
         style="stroke:currentColor;stroke-width:0.148" />
      <rect
         id="gpPt3"
         x="-1"
         y="-1"
         width="2"
         height="2"
         style="stroke:currentColor;stroke-width:0.148" />
      <rect
         id="gpPt4"
         x="-1"
         y="-1"
         width="2"
         height="2"
         style="fill:currentColor;stroke:currentColor;stroke-width:0.148" />
      <circle
         id="gpPt5"
         cx="0"
         cy="0"
         r="1"
         style="stroke:currentColor;stroke-width:0.148" />
      <use
         xlink:href="#gpPt5"
         id="gpPt6"
         style="fill:currentColor;stroke:none"
         x="0"
         y="0"
         width="100%"
         height="100%" />
      <path
         id="gpPt7"
         d="m 0,-1.33 -1.33,2 2.66,0 z"
         inkscape:connector-curvature="0"
         style="stroke:currentColor;stroke-width:0.148" />
      <use
         xlink:href="#gpPt7"
         id="gpPt8"
         style="fill:currentColor;stroke:none"
         x="0"
         y="0"
         width="100%"
         height="100%" />
      <use
         xlink:href="#gpPt7"
         id="gpPt9"
         transform="scale(-1,-1)"
         style="stroke:currentColor"
         x="0"
         y="0"
         width="100%"
         height="100%" />
      <use
         xlink:href="#gpPt9"
         id="gpPt10"
         style="fill:currentColor;stroke:none"
         x="0"
         y="0"
         width="100%"
         height="100%" />
      <use
         xlink:href="#gpPt3"
         id="gpPt11"
         transform="matrix(0.70710678,0.70710678,-0.70710678,0.70710678,0,0)"
         style="stroke:currentColor"
         x="0"
         y="0"
         width="100%"
         height="100%" />
      <use
         xlink:href="#gpPt11"
         id="gpPt12"
         style="fill:currentColor;stroke:none"
         x="0"
         y="0"
         width="100%"
         height="100%" />
      <path
         id="gpPt13"
         d="M 0,1.33 1.265,0.411 0.782,-1.067 -0.782,-1.076 -1.265,0.411 Z"
         inkscape:connector-curvature="0"
         style="stroke:currentColor;stroke-width:0.148" />
      <use
         xlink:href="#gpPt13"
         id="gpPt14"
         style="fill:currentColor;stroke:none"
         x="0"
         y="0"
         width="100%"
         height="100%" />
      <filter
         id="textbox"
         filterUnits="objectBoundingBox"
         x="0"
         y="0"
         height="1"
         width="1">
        <feFlood
           flood-color="white"
           flood-opacity="1"
           result="bgnd"
           id="feFlood30" />
        <feComposite
           in="SourceGraphic"
           in2="bgnd"
           operator="atop"
           id="feComposite32" />
      </filter>
      <filter
         id="greybox"
         filterUnits="objectBoundingBox"
         x="0"
         y="0"
         height="1"
         width="1">
        <feFlood
           flood-color="lightgrey"
           flood-opacity="1"
           result="grey"
           id="feFlood35" />
        <feComposite
           in="SourceGraphic"
           in2="grey"
           operator="atop"
           id="feComposite37" />
      </filter>
    </defs>
    <g
       id="g39"
       transform="translate(-17.554286,19.017143)"
       style="color:#ffffff;fill:none;stroke:currentColor;stroke-width:1;stroke-linecap:butt;stroke-linejoin:miter" />
    <g
       id="g41"
       transform="translate(-17.554286,19.017143)"
       style="color:#ffffff;fill:none;stroke:currentColor;stroke-width:1.5;stroke-linecap:butt;stroke-linejoin:miter" />
    <g
       id="g43"
       transform="translate(-17.554286,19.017143)"
       style="color:#000000;fill:none;stroke:currentColor;stroke-width:1.5;stroke-linecap:butt;stroke-linejoin:miter">
      <path
         d="m 134.1,489.6 13.5,0 m 838.5,0 -13.5,0"
         id="path45"
         inkscape:connector-curvature="0"
         style="stroke:#000000" />
      <g
         transform="translate(121.5,496.3)"
         font-size="18.00"
         id="g47"
         style="font-size:18px;font-family:Verdana;text-anchor:end;fill:#000000;stroke:none">
        <text
           id="text49">
          <tspan
             id="tspan51"
             style="font-family:Verdana">-0.02</tspan>
        </text>
      </g>
    </g>
    <g
       id="g53"
       transform="translate(-17.554286,19.017143)"
       style="color:#000000;fill:none;stroke:currentColor;stroke-width:1.5;stroke-linecap:butt;stroke-linejoin:miter">
      <path
         d="m 134.1,423.3 13.5,0 m 838.5,0 -13.5,0"
         id="path55"
         inkscape:connector-curvature="0"
         style="stroke:#000000" />
      <g
         transform="translate(121.5,430)"
         font-size="18.00"
         id="g57"
         style="font-size:18px;font-family:Verdana;text-anchor:end;fill:#000000;stroke:none">
        <text
           id="text59">
          <tspan
             id="tspan61"
             style="font-family:Verdana">-0.015</tspan>
        </text>
      </g>
    </g>
    <g
       id="g63"
       transform="translate(-17.554286,19.017143)"
       style="color:#000000;fill:none;stroke:currentColor;stroke-width:1.5;stroke-linecap:butt;stroke-linejoin:miter">
      <path
         d="m 134.1,356.9 13.5,0 m 838.5,0 -13.5,0"
         id="path65"
         inkscape:connector-curvature="0"
         style="stroke:#000000" />
      <g
         transform="translate(121.5,363.6)"
         font-size="18.00"
         id="g67"
         style="font-size:18px;font-family:Verdana;text-anchor:end;fill:#000000;stroke:none">
        <text
           id="text69">
          <tspan
             id="tspan71"
             style="font-family:Verdana">-0.01</tspan>
        </text>
      </g>
    </g>
    <g
       id="g73"
       transform="translate(-17.554286,19.017143)"
       style="color:#000000;fill:none;stroke:currentColor;stroke-width:1.5;stroke-linecap:butt;stroke-linejoin:miter">
      <path
         d="m 134.1,290.6 13.5,0 m 838.5,0 -13.5,0"
         id="path75"
         inkscape:connector-curvature="0"
         style="stroke:#000000" />
      <g
         transform="translate(121.5,297.3)"
         font-size="18.00"
         id="g77"
         style="font-size:18px;font-family:Verdana;text-anchor:end;fill:#000000;stroke:none">
        <text
           id="text79">
          <tspan
             id="tspan81"
             style="font-family:Verdana">-0.005</tspan>
        </text>
      </g>
    </g>
    <g
       id="g83"
       transform="translate(-17.554286,19.017143)"
       style="color:#000000;fill:none;stroke:currentColor;stroke-width:1.5;stroke-linecap:butt;stroke-linejoin:miter">
      <path
         d="m 134.1,224.3 13.5,0 m 838.5,0 -13.5,0"
         id="path85"
         inkscape:connector-curvature="0"
         style="stroke:#000000" />
      <g
         transform="translate(121.5,231)"
         font-size="18.00"
         id="g87"
         style="font-size:18px;font-family:Verdana;text-anchor:end;fill:#000000;stroke:none">
        <text
           id="text89">
          <tspan
             id="tspan91"
             style="font-family:Verdana">0</tspan>
        </text>
      </g>
    </g>
    <g
       id="g93"
       transform="translate(-17.554286,19.017143)"
       style="color:#000000;fill:none;stroke:currentColor;stroke-width:1.5;stroke-linecap:butt;stroke-linejoin:miter">
      <path
         d="m 134.1,158 13.5,0 m 838.5,0 -13.5,0"
         id="path95"
         inkscape:connector-curvature="0"
         style="stroke:#000000" />
      <g
         transform="translate(121.5,164.7)"
         font-size="18.00"
         id="g97"
         style="font-size:18px;font-family:Verdana;text-anchor:end;fill:#000000;stroke:none">
        <text
           id="text99">
          <tspan
             id="tspan101"
             style="font-family:Verdana">0.005</tspan>
        </text>
      </g>
    </g>
    <g
       id="g103"
       transform="translate(-17.554286,19.017143)"
       style="color:#000000;fill:none;stroke:currentColor;stroke-width:1.5;stroke-linecap:butt;stroke-linejoin:miter">
      <path
         d="m 134.1,91.6 13.5,0 m 838.5,0 -13.5,0"
         id="path105"
         inkscape:connector-curvature="0"
         style="stroke:#000000" />
      <g
         transform="translate(121.5,98.3)"
         font-size="18.00"
         id="g107"
         style="font-size:18px;font-family:Verdana;text-anchor:end;fill:#000000;stroke:none">
        <text
           id="text109">
          <tspan
             id="tspan111"
             style="font-family:Verdana">0.01</tspan>
        </text>
      </g>
    </g>
    <g
       id="g113"
       transform="translate(-17.554286,19.017143)"
       style="color:#000000;fill:none;stroke:currentColor;stroke-width:1.5;stroke-linecap:butt;stroke-linejoin:miter">
      <path
         d="m 134.1,25.3 13.5,0 m 838.5,0 -13.5,0"
         id="path115"
         inkscape:connector-curvature="0"
         style="stroke:#000000" />
      <g
         transform="translate(121.5,32)"
         font-size="18.00"
         id="g117"
         style="font-size:18px;font-family:Verdana;text-anchor:end;fill:#000000;stroke:none">
        <text
           id="text119">
          <tspan
             id="tspan121"
             style="font-family:Verdana">0.015</tspan>
        </text>
      </g>
    </g>
    <g
       id="g123"
       transform="translate(-17.554286,19.017143)"
       style="color:#000000;fill:none;stroke:currentColor;stroke-width:1.5;stroke-linecap:butt;stroke-linejoin:miter">
      <path
         d="m 134.1,489.6 0,-13.5 m 0,-450.8 0,13.5"
         id="path125"
         inkscape:connector-curvature="0"
         style="stroke:#000000" />
      <g
         transform="translate(134.1,523.3)"
         font-size="18.00"
         id="g127"
         style="font-size:18px;font-family:Verdana;text-anchor:middle;fill:#000000;stroke:none">
        <text
           id="text129">
          <tspan
             id="tspan131"
             style="font-family:Verdana">0</tspan>
        </text>
      </g>
    </g>
    <g
       id="g133"
       transform="translate(-17.554286,19.017143)"
       style="color:#000000;fill:none;stroke:currentColor;stroke-width:1.5;stroke-linecap:butt;stroke-linejoin:miter">
      <path
         d="m 276.1,489.6 0,-13.5 m 0,-450.8 0,13.5"
         id="path135"
         inkscape:connector-curvature="0"
         style="stroke:#000000" />
      <g
         transform="translate(276.1,523.3)"
         font-size="18.00"
         id="g137"
         style="font-size:18px;font-family:Verdana;text-anchor:middle;fill:#000000;stroke:none">
        <text
           id="text139">
          <tspan
             id="tspan141"
             style="font-family:Verdana">1x10</tspan>
          <tspan
             font-size="14.4"
             dy="-9"
             id="tspan143"
             style="font-size:14.39999962px;font-family:Verdana">-5</tspan>
          <tspan
             font-size="18.0"
             dy="9"
             id="tspan145"
             style="font-size:18px" />
        </text>
      </g>
    </g>
    <g
       id="g147"
       transform="translate(-17.554286,19.017143)"
       style="color:#000000;fill:none;stroke:currentColor;stroke-width:1.5;stroke-linecap:butt;stroke-linejoin:miter">
      <path
         d="m 418.1,489.6 0,-13.5 m 0,-450.8 0,13.5"
         id="path149"
         inkscape:connector-curvature="0"
         style="stroke:#000000" />
      <g
         transform="translate(418.1,523.3)"
         font-size="18.00"
         id="g151"
         style="font-size:18px;font-family:Verdana;text-anchor:middle;fill:#000000;stroke:none">
        <text
           id="text153">
          <tspan
             id="tspan155"
             style="font-family:Verdana">2x10</tspan>
          <tspan
             font-size="14.4"
             dy="-9"
             id="tspan157"
             style="font-size:14.39999962px;font-family:Verdana">-5</tspan>
          <tspan
             font-size="18.0"
             dy="9"
             id="tspan159"
             style="font-size:18px" />
        </text>
      </g>
    </g>
    <g
       id="g161"
       transform="translate(-17.554286,19.017143)"
       style="color:#000000;fill:none;stroke:currentColor;stroke-width:1.5;stroke-linecap:butt;stroke-linejoin:miter">
      <path
         d="m 560.1,489.6 0,-13.5 m 0,-450.8 0,13.5"
         id="path163"
         inkscape:connector-curvature="0"
         style="stroke:#000000" />
      <g
         transform="translate(560.1,523.3)"
         font-size="18.00"
         id="g165"
         style="font-size:18px;font-family:Verdana;text-anchor:middle;fill:#000000;stroke:none">
        <text
           id="text167">
          <tspan
             id="tspan169"
             style="font-family:Verdana">3x10</tspan>
          <tspan
             font-size="14.4"
             dy="-9"
             id="tspan171"
             style="font-size:14.39999962px;font-family:Verdana">-5</tspan>
          <tspan
             font-size="18.0"
             dy="9"
             id="tspan173"
             style="font-size:18px" />
        </text>
      </g>
    </g>
    <g
       id="g175"
       transform="translate(-17.554286,19.017143)"
       style="color:#000000;fill:none;stroke:currentColor;stroke-width:1.5;stroke-linecap:butt;stroke-linejoin:miter">
      <path
         d="m 702.1,489.6 0,-13.5 m 0,-450.8 0,13.5"
         id="path177"
         inkscape:connector-curvature="0"
         style="stroke:#000000" />
      <g
         transform="translate(702.1,523.3)"
         font-size="18.00"
         id="g179"
         style="font-size:18px;font-family:Verdana;text-anchor:middle;fill:#000000;stroke:none">
        <text
           id="text181">
          <tspan
             id="tspan183"
             style="font-family:Verdana">4x10</tspan>
          <tspan
             font-size="14.4"
             dy="-9"
             id="tspan185"
             style="font-size:14.39999962px;font-family:Verdana">-5</tspan>
          <tspan
             font-size="18.0"
             dy="9"
             id="tspan187"
             style="font-size:18px" />
        </text>
      </g>
    </g>
    <g
       id="g189"
       transform="translate(-17.554286,19.017143)"
       style="color:#000000;fill:none;stroke:currentColor;stroke-width:1.5;stroke-linecap:butt;stroke-linejoin:miter">
      <path
         d="m 844.1,489.6 0,-13.5 m 0,-450.8 0,13.5"
         id="path191"
         inkscape:connector-curvature="0"
         style="stroke:#000000" />
      <g
         transform="translate(844.1,523.3)"
         font-size="18.00"
         id="g193"
         style="font-size:18px;font-family:Verdana;text-anchor:middle;fill:#000000;stroke:none">
        <text
           id="text195">
          <tspan
             id="tspan197"
             style="font-family:Verdana">5x10</tspan>
          <tspan
             font-size="14.4"
             dy="-9"
             id="tspan199"
             style="font-size:14.39999962px;font-family:Verdana">-5</tspan>
          <tspan
             font-size="18.0"
             dy="9"
             id="tspan201"
             style="font-size:18px" />
        </text>
      </g>
    </g>
    <g
       id="g203"
       transform="translate(-17.554286,19.017143)"
       style="color:#000000;fill:none;stroke:currentColor;stroke-width:1.5;stroke-linecap:butt;stroke-linejoin:miter">
      <path
         d="m 986.1,489.6 0,-13.5 m 0,-450.8 0,13.5"
         id="path205"
         inkscape:connector-curvature="0"
         style="stroke:#000000" />
      <g
         transform="translate(986.1,523.3)"
         font-size="18.00"
         id="g207"
         style="font-size:18px;font-family:Verdana;text-anchor:middle;fill:#000000;stroke:none">
        <text
           id="text209">
          <tspan
             id="tspan211"
             style="font-family:Verdana">6x10</tspan>
          <tspan
             font-size="14.4"
             dy="-9"
             id="tspan213"
             style="font-size:14.39999962px;font-family:Verdana">-5</tspan>
          <tspan
             font-size="18.0"
             dy="9"
             id="tspan215"
             style="font-size:18px" />
        </text>
      </g>
    </g>
    <g
       id="g217"
       transform="translate(-17.554286,19.017143)"
       style="color:#000000;fill:none;stroke:currentColor;stroke-width:1.5;stroke-linecap:butt;stroke-linejoin:miter" />
    <g
       id="g219"
       transform="translate(-17.554286,19.017143)"
       style="color:#000000;fill:none;stroke:currentColor;stroke-width:1.5;stroke-linecap:butt;stroke-linejoin:miter">
      <path
         d="m 134.1,25.3 0,464.3 852,0 0,-464.3 -852,0 z"
         id="path221"
         inkscape:connector-curvature="0"
         style="stroke:#000000" />
    </g>
    <g
       id="g223"
       transform="translate(-17.554286,19.017143)"
       style="color:#000000;fill:none;stroke:currentColor;stroke-width:1.5;stroke-linecap:butt;stroke-linejoin:miter">
      <g
         transform="matrix(0,-1,1,0,26.5,257.5)"
         font-size="18.00"
         id="g225"
         style="font-size:18px;font-family:Verdana;text-anchor:middle;fill:#000000;stroke:none">
        <text
           id="text227"
           x="0.73142856"
           y="16.091429">
          <tspan
             id="tspan229"
             style="font-style:normal;font-variant:normal;font-weight:bold;font-stretch:normal;font-family:Verdana;-inkscape-font-specification:'Verdana Bold'">Photo diode voltage [V]</tspan>
        </text>
      </g>
    </g>
    <g
       id="g231"
       transform="translate(-16.822857,5.8514289)"
       style="color:#000000;fill:none;stroke:currentColor;stroke-width:1.5;stroke-linecap:butt;stroke-linejoin:miter">
      <g
         transform="translate(560.1,563.8)"
         font-size="18.00"
         id="g233"
         style="font-size:18px;font-family:Verdana;text-anchor:middle;fill:#000000;stroke:none">
        <text
           id="text235">
          <tspan
             id="tspan237"
             style="font-style:normal;font-variant:normal;font-weight:bold;font-stretch:normal;font-family:Verdana;-inkscape-font-specification:'Verdana Bold'">Time [s]</tspan>
        </text>
      </g>
    </g>
    <g
       id="g239"
       transform="translate(-17.554286,19.017143)"
       style="color:#000000;fill:none;stroke:currentColor;stroke-width:1.5;stroke-linecap:butt;stroke-linejoin:miter" />
    <g
       id="g241"
       transform="translate(-17.554286,19.017143)"
       style="color:#000000;fill:none;stroke:currentColor;stroke-width:2;stroke-linecap:butt;stroke-linejoin:miter" />
    <g
       id="g243"
       transform="translate(-17.554286,19.017143)"
       style="color:#000000;fill:none;stroke:currentColor;stroke-width:2;stroke-linecap:butt;stroke-linejoin:miter">
      <path
         d="m 745.8,65.8 0,-27 227.7,0 0,27 -227.7,0 z"
         id="path245"
         inkscape:connector-curvature="0"
         style="stroke:#000000" />
    </g>
    <g
       id="gnuplot_plot_1"
       transform="translate(-17.554286,19.017143)">
      <title
         id="title248">Data points</title>
      <g
         id="g250"
         style="color:#ffffff;fill:none;stroke:#000000;stroke-width:1;stroke-linecap:butt;stroke-linejoin:miter" />
      <g
         id="g252"
         style="color:#000000;fill:none;stroke:currentColor;stroke-width:1;stroke-linecap:butt;stroke-linejoin:miter">
        <g
           transform="translate(884.4,59)"
           font-size="18.00"
           id="g254"
           style="font-size:18px;font-family:Verdana;text-anchor:end;fill:#000000;stroke:none">
          <text
             id="text256">
            <tspan
               id="tspan258"
               style="font-family:Verdana">Data points</tspan>
          </text>
        </g>
      </g>
      <g
         id="g260"
         style="color:#000000;fill:none;stroke:currentColor;stroke-width:1;stroke-linecap:butt;stroke-linejoin:miter">
        <path
           d="m 897,52.3 63.9,0 M 897,45.6 897,59 m 63.9,-13.4 0,13.4 m -826.8,-11.7 0,-1.5 m 0,1.5 2.6,0 m -2.6,-1.5 2.6,0 m -1.9,1.5 0,-1.5 m -0.7,1.5 3.3,0 m -3.3,-1.5 3.3,0 m -1.9,4.1 0,-1.5 m -1.4,1.5 4,0 m -4,-1.5 4,0 m -1.9,4.2 0,-1.5 m -2.1,1.5 4.7,0 m -4.7,-1.5 4.7,0 m -1.9,4.2 0,-1.6 m -2.7,1.6 5.3,0 m -5.3,-1.6 5.3,0 m -1.8,1.6 0,-1.6 m -2.7,1.6 5.3,0 m -5.3,-1.6 5.3,0 m -1.9,4.2 0,-1.5 m -2.7,1.5 5.3,0 m -5.3,-1.5 5.3,0 m -1.9,1.5 0,-1.5 m -2.7,1.5 5.3,0 m -5.3,-1.5 5.3,0 m -1.9,4.2 0,-1.6 m -2.7,1.6 5.3,0 m -5.3,-1.6 5.3,0 m -1.9,1.6 0,-1.6 m -2.7,1.6 5.3,0 m -5.3,-1.6 5.3,0 m -1.9,4.2 0,-1.5 m -2.7,1.5 5.3,0 m -5.3,-1.5 5.3,0 m -1.9,1.5 0,-1.5 m -2.7,1.5 5.3,0 m -5.3,-1.5 5.3,0 m -1.9,1.5 0,-1.5 m -2.7,1.5 5.3,0 m -5.3,-1.5 5.3,0 m -1.9,4.2 0,-1.6 m -2.7,1.6 5.3,0 m -5.3,-1.6 5.3,0 m -1.9,4.2 0,-1.5 m -2.7,1.5 5.3,0 m -5.3,-1.5 5.3,0 m -1.8,1.5 0,-1.5 m -2.7,1.5 5.3,0 m -5.3,-1.5 5.3,0 m -1.9,4.2 0,-1.6 m -2.7,1.6 5.3,0 m -5.3,-1.6 5.3,0 m -1.9,1.6 0,-1.6 m -2.7,1.6 5.3,0 m -5.3,-1.6 5.3,0 m -1.9,1.6 0,-1.6 m -2.7,1.6 5.3,0 m -5.3,-1.6 5.3,0 m -1.9,4.2 0,-1.5 m -2.7,1.5 5.3,0 m -5.3,-1.5 5.3,0 m -1.9,1.5 0,-1.5 m -2.7,1.5 5.3,0 m -5.3,-1.5 5.3,0 m -1.9,1.5 0,-1.5 m -2.7,1.5 5.3,0 m -5.3,-1.5 5.3,0 m -1.9,4.2 0,-1.6 m -2.7,1.6 5.3,0 m -5.3,-1.6 5.3,0 m -1.9,1.6 0,-1.6 m -2.7,1.6 5.3,0 m -5.3,-1.6 5.3,0 m -1.9,1.6 0,-1.6 m -2.7,1.6 5.3,0 m -5.3,-1.6 5.3,0 m -1.8,4.2 0,-1.5 m -2.7,1.5 5.3,0 m -5.3,-1.5 5.3,0 m -1.9,1.5 0,-1.5 m -2.7,1.5 5.3,0 m -5.3,-1.5 5.3,0 m -1.9,1.5 0,-1.5 m -2.7,1.5 5.3,0 m -5.3,-1.5 5.3,0 m -1.9,1.5 0,-1.5 m -2.7,1.5 5.3,0 m -5.3,-1.5 5.3,0 m -1.9,4.2 0,-1.5 m -2.7,1.5 5.3,0 m -5.3,-1.5 5.3,0 m -1.9,1.5 0,-1.5 m -2.7,1.5 5.3,0 m -5.3,-1.5 5.3,0 m -1.9,1.5 0,-1.5 m -2.7,1.5 5.3,0 m -5.3,-1.5 5.3,0 m -1.9,1.5 0,-1.5 m -2.7,1.5 5.3,0 m -5.3,-1.5 5.3,0 m -1.9,1.5 0,-1.5 m -2.7,1.5 5.3,0 m -5.3,-1.5 5.3,0 m -1.9,1.5 0,-1.5 m -2.7,1.5 5.3,0 m -5.3,-1.5 5.3,0 m -1.8,1.5 0,-1.5 m -2.7,1.5 5.3,0 m -5.3,-1.5 5.3,0 m -1.9,4.1 0,-1.5 m -2.7,1.5 5.3,0 m -5.3,-1.5 5.3,0 m -1.9,1.5 0,-1.5 m -2.7,1.5 5.3,0 m -5.3,-1.5 5.3,0 m -1.9,1.5 0,-1.5 m -2.7,1.5 5.3,0 m -5.3,-1.5 5.3,0 m -1.9,1.5 0,-1.5 m -2.7,1.5 5.3,0 m -5.3,-1.5 5.3,0 m -1.9,1.5 0,-1.5 m -2.7,1.5 5.3,0 m -5.3,-1.5 5.3,0 m -1.9,1.5 0,-1.5 m -2.7,1.5 5.3,0 m -5.3,-1.5 5.3,0 m -1.9,1.5 0,-1.5 m -2.7,1.5 5.3,0 m -5.3,-1.5 5.3,0 m -1.9,1.5 0,-1.5 m -2.7,1.5 5.3,0 m -5.3,-1.5 5.3,0 m -1.9,1.5 0,-1.5 m -2.7,1.5 5.3,0 m -5.3,-1.5 5.3,0 m -1.8,1.5 0,-1.5 m -2.7,1.5 5.3,0 m -5.3,-1.5 5.3,0 m -1.9,1.5 0,-1.5 m -2.7,1.5 5.3,0 m -5.3,-1.5 5.3,0 m -1.9,1.5 0,-1.5 m -2.7,1.5 5.3,0 m -5.3,-1.5 5.3,0 m -1.9,1.5 0,-1.5 m -2.7,1.5 5.3,0 m -5.3,-1.5 5.3,0 m -1.9,1.5 0,-1.5 m -2.7,1.5 5.3,0 m -5.3,-1.5 5.3,0 m -1.9,1.5 0,-1.5 m -2.7,1.5 5.3,0 m -5.3,-1.5 5.3,0 m -1.9,1.5 0,-1.5 m -2.7,1.5 5.3,0 m -5.3,-1.5 5.3,0 m -1.9,1.5 0,-1.5 m -2.7,1.5 5.3,0 m -5.3,-1.5 5.3,0 m -1.9,1.5 0,-1.5 m -2.7,1.5 5.3,0 m -5.3,-1.5 5.3,0 m -1.9,1.5 0,-1.5 m -2.7,1.5 5.3,0 m -5.3,-1.5 5.3,0 m -1.8,1.5 0,-1.5 m -2.7,1.5 5.3,0 m -5.3,-1.5 5.3,0 m -1.9,1.5 0,-1.5 m -2.7,1.5 5.3,0 m -5.3,-1.5 5.3,0 m -1.9,4.2 0,-1.5 m -2.7,1.5 5.3,0 m -5.3,-1.5 5.3,0 m -1.9,1.5 0,-1.5 m -2.7,1.5 5.3,0 m -5.3,-1.5 5.3,0 m -1.9,1.5 0,-1.5 m -2.7,1.5 5.3,0 m -5.3,-1.5 5.3,0 m -1.9,1.5 0,-1.5 m -2.7,1.5 5.3,0 m -5.3,-1.5 5.3,0 m -1.9,1.5 0,-1.5 m -2.7,1.5 5.3,0 m -5.3,-1.5 5.3,0 m -1.9,1.5 0,-1.5 m -2.7,1.5 5.3,0 m -5.3,-1.5 5.3,0 m -1.9,4.1 0,-1.5 m -2.7,1.5 5.3,0 m -5.3,-1.5 5.3,0 m -1.9,1.5 0,-1.5 m -2.7,1.5 5.3,0 m -5.3,-1.5 5.3,0 m -1.8,1.5 0,-1.5 m -2.7,1.5 5.3,0 m -5.3,-1.5 5.3,0 m -1.9,4.2 0,-1.5 m -2.7,1.5 5.3,0 m -5.3,-1.5 5.3,0 m -1.9,1.5 0,-1.5 m -2.7,1.5 5.3,0 m -5.3,-1.5 5.3,0 m -1.9,4.1 0,-1.5 m -2.7,1.5 5.3,0 m -5.3,-1.5 5.3,0 m -1.9,1.5 0,-1.5 m -2.7,1.5 5.3,0 m -5.3,-1.5 5.3,0 m -1.9,1.5 0,-1.5 m -2.7,1.5 5.3,0 m -5.3,-1.5 5.3,0 m -1.9,4.2 0,-1.5 m -2.7,1.5 5.3,0 m -5.3,-1.5 5.3,0 m -1.9,1.5 0,-1.5 m -2.7,1.5 5.3,0 m -5.3,-1.5 5.3,0 m -1.9,4.2 0,-1.6 m -2.7,1.6 5.3,0 m -5.3,-1.6 5.3,0 m -1.9,1.6 0,-1.6 m -2.7,1.6 5.3,0 m -5.3,-1.6 5.3,0 m -1.8,4.2 0,-1.5 m -2.7,1.5 5.3,0 m -5.3,-1.5 5.3,0 m -1.9,1.5 0,-1.5 m -2.7,1.5 5.3,0 m -5.3,-1.5 5.3,0 m -1.9,1.5 0,-1.5 m -2.7,1.5 5.3,0 m -5.3,-1.5 5.3,0 m -1.9,4.2 0,-1.6 m -2.7,1.6 5.3,0 m -5.3,-1.6 5.3,0 m -1.9,4.2 0,-1.5 m -2.7,1.5 5.3,0 m -5.3,-1.5 5.3,0 m -1.9,1.5 0,-1.5 m -2.7,1.5 5.3,0 m -5.3,-1.5 5.3,0 m -1.9,4.2 0,-1.6 m -2.7,1.6 5.3,0 m -5.3,-1.6 5.3,0 m -1.9,1.6 0,-1.6 m -2.7,1.6 5.3,0 m -5.3,-1.6 5.3,0 m -1.9,1.6 0,-1.6 m -2.7,1.6 5.3,0 m -5.3,-1.6 5.3,0 m -1.9,4.2 0,-1.5 m -2.7,1.5 5.3,0"
           id="path262"
           inkscape:connector-curvature="0"
           style="stroke:#dd181f" />
        <path
           d="m 191,112.1 5.3,0 m -1.8,1.5 0,-1.5 m -2.7,1.5 5.3,0 m -5.3,-1.5 5.3,0 m -1.9,4.2 0,-1.6 m -2.7,1.6 5.3,0 m -5.3,-1.6 5.3,0 m -1.9,1.6 0,-1.6 m -2.7,1.6 5.3,0 m -5.3,-1.6 5.3,0 m -1.9,4.2 0,-1.5 m -2.7,1.5 5.3,0 m -5.3,-1.5 5.3,0 m -1.9,1.5 0,-1.5 m -2.7,1.5 5.3,0 m -5.3,-1.5 5.3,0 m -1.9,1.5 0,-1.5 m -2.7,1.5 5.3,0 m -5.3,-1.5 5.3,0 m -1.9,4.2 0,-1.6 m -2.7,1.6 5.3,0 m -5.3,-1.6 5.3,0 m -1.9,1.6 0,-1.6 m -2.7,1.6 5.3,0 m -5.3,-1.6 5.3,0 m -1.9,1.6 0,-1.6 m -2.7,1.6 5.3,0 m -5.3,-1.6 5.3,0 m -1.9,4.2 0,-1.5 m -2.7,1.5 5.3,0 m -5.3,-1.5 5.3,0 m -1.8,1.5 0,-1.5 m -2.7,1.5 5.3,0 m -5.3,-1.5 5.3,0 m -1.9,4.2 0,-1.5 m -2.7,1.5 5.3,0 m -5.3,-1.5 5.3,0 m -1.9,1.5 0,-1.5 m -2.7,1.5 5.3,0 m -5.3,-1.5 5.3,0 m -1.9,1.5 0,-1.5 m -2.7,1.5 5.3,0 m -5.3,-1.5 5.3,0 m -1.9,4.1 0,-1.5 m -2.7,1.5 5.3,0 m -5.3,-1.5 5.3,0 m -1.9,1.5 0,-1.5 m -2.7,1.5 5.3,0 m -5.3,-1.5 5.3,0 m -1.9,1.5 0,-1.5 m -2.7,1.5 5.3,0 m -5.3,-1.5 5.3,0 m -1.9,4.2 0,-1.5 m -2.7,1.5 5.3,0 m -5.3,-1.5 5.3,0 m -1.9,1.5 0,-1.5 m -2.7,1.5 5.3,0 m -5.3,-1.5 5.3,0 m -1.9,1.5 0,-1.5 m -2.7,1.5 5.3,0 m -5.3,-1.5 5.3,0 m -1.8,4.1 0,-1.5 m -2.7,1.5 5.3,0 m -5.3,-1.5 5.3,0 m -1.9,1.5 0,-1.5 m -2.7,1.5 5.3,0 m -5.3,-1.5 5.3,0 m -1.9,4.2 0,-1.5 m -2.7,1.5 5.3,0 m -5.3,-1.5 5.3,0 m -1.9,1.5 0,-1.5 m -2.7,1.5 5.3,0 m -5.3,-1.5 5.3,0 m -1.9,1.5 0,-1.5 m -2.7,1.5 5.3,0 m -5.3,-1.5 5.3,0 m -1.9,4.2 0,-1.6 m -2.7,1.6 5.3,0 m -5.3,-1.6 5.3,0 m -1.9,1.6 0,-1.6 m -2.7,1.6 5.3,0 m -5.3,-1.6 5.3,0 m -1.9,4.2 0,-1.5 m -2.7,1.5 5.3,0 m -5.3,-1.5 5.3,0 m -1.9,1.5 0,-1.5 m -2.7,1.5 5.3,0 m -5.3,-1.5 5.3,0 m -1.9,4.2 0,-1.6 m -2.7,1.6 5.3,0 m -5.3,-1.6 5.3,0 m -1.8,4.2 0,-1.5 m -2.7,1.5 5.3,0 m -5.3,-1.5 5.3,0 m -1.9,1.5 0,-1.5 m -2.7,1.5 5.3,0 m -5.3,-1.5 5.3,0 m -1.9,4.2 0,-1.6 m -2.7,1.6 5.3,0 m -5.3,-1.6 5.3,0 m -1.9,1.6 0,-1.6 m -2.7,1.6 5.3,0 m -5.3,-1.6 5.3,0 m -1.9,4.2 0,-1.5 m -2.7,1.5 5.3,0 m -5.3,-1.5 5.3,0 m -1.9,1.5 0,-1.5 m -2.7,1.5 5.3,0 m -5.3,-1.5 5.3,0 m -1.9,1.5 0,-1.5 m -2.7,1.5 5.3,0 m -5.3,-1.5 5.3,0 m -1.9,4.2 0,-1.6 m -2.7,1.6 5.3,0 m -5.3,-1.6 5.3,0 m -1.9,1.6 0,-1.6 m -2.7,1.6 5.3,0 m -5.3,-1.6 5.3,0 m -1.9,4.2 0,-1.5 m -2.7,1.5 5.3,0 m -5.3,-1.5 5.3,0 m -1.8,1.5 0,-1.5 m -2.7,1.5 5.3,0 m -5.3,-1.5 5.3,0 m -1.9,4.2 0,-1.6 m -2.7,1.6 5.3,0 m -5.3,-1.6 5.3,0 m -1.9,1.6 0,-1.6 m -2.7,1.6 5.3,0 m -5.3,-1.6 5.3,0 m -1.9,4.2 0,-1.5 m -2.7,1.5 5.3,0 m -5.3,-1.5 5.3,0 m -1.9,1.5 0,-1.5 m -2.7,1.5 5.3,0 m -5.3,-1.5 5.3,0 m -1.9,1.5 0,-1.5 m -2.7,1.5 5.3,0 m -5.3,-1.5 5.3,0 m -1.9,4.2 0,-1.5 m -2.7,1.5 5.3,0 m -5.3,-1.5 5.3,0 m -1.9,1.5 0,-1.5 m -2.7,1.5 5.3,0 m -5.3,-1.5 5.3,0 m -1.9,1.5 0,-1.5 m -2.7,1.5 5.3,0 m -5.3,-1.5 5.3,0 m -1.9,1.5 0,-1.5 m -2.7,1.5 5.3,0 m -5.3,-1.5 5.3,0 m -1.8,1.5 0,-1.5 m -2.7,1.5 5.3,0 m -5.3,-1.5 5.3,0 m -1.9,4.1 0,-1.5 m -2.7,1.5 5.3,0 m -5.3,-1.5 5.3,0 m -1.9,1.5 0,-1.5 m -2.7,1.5 5.3,0 m -5.3,-1.5 5.3,0 m -1.9,1.5 0,-1.5 m -2.7,1.5 5.3,0 m -5.3,-1.5 5.3,0 m -1.9,4.2 0,-1.5 m -2.7,1.5 5.3,0 m -5.3,-1.5 5.3,0 m -1.9,1.5 0,-1.5 m -2.7,1.5 5.3,0 m -5.3,-1.5 5.3,0 m -1.9,1.5 0,-1.5 m -2.7,1.5 5.3,0 m -5.3,-1.5 5.3,0 m -1.9,1.5 0,-1.5 m -2.7,1.5 5.3,0 m -5.3,-1.5 5.3,0 m -1.9,1.5 0,-1.5 m -2.7,1.5 5.3,0 m -5.3,-1.5 5.3,0 m -1.9,1.5 0,-1.5 m -2.7,1.5 5.3,0 m -5.3,-1.5 5.3,0 m -1.8,4.1 0,-1.5 m -2.7,1.5 5.3,0 m -5.3,-1.5 5.3,0 m -1.9,1.5 0,-1.5 m -2.7,1.5 5.3,0 m -5.3,-1.5 5.3,0 m -1.9,1.5 0,-1.5 m -2.7,1.5 5.3,0 m -5.3,-1.5 5.3,0 m -1.9,1.5 0,-1.5 m -2.7,1.5 5.3,0 m -5.3,-1.5 5.3,0 m -1.9,1.5 0,-1.5 m -2.7,1.5 5.3,0 m -5.3,-1.5 5.3,0 m -1.9,1.5 0,-1.5 m -2.7,1.5 5.3,0 m -5.3,-1.5 5.3,0 m -1.9,1.5 0,-1.5 m -2.7,1.5 5.3,0 m -5.3,-1.5 5.3,0 m -1.9,4.2 0,-1.5 m -2.7,1.5 5.3,0 m -5.3,-1.5 5.3,0 m -1.9,1.5 0,-1.5 m -2.7,1.5 5.3,0 m -5.3,-1.5 5.3,0 m -1.9,1.5 0,-1.5 m -2.7,1.5 5.3,0 m -5.3,-1.5 5.3,0 m -1.8,1.5 0,-1.5 m -2.7,1.5 5.3,0 m -5.3,-1.5 5.3,0 m -1.9,4.1 0,-1.5 m -2.7,1.5 5.3,0 m -5.3,-1.5 5.3,0 m -1.9,1.5 0,-1.5 m -2.7,1.5 5.3,0 m -5.3,-1.5 5.3,0 m -1.9,1.5 0,-1.5 m -2.7,1.5 5.3,0 m -5.3,-1.5 5.3,0 m -1.9,1.5 0,-1.5 m -2.7,1.5 5.3,0 m -5.3,-1.5 5.3,0 m -1.9,1.5 0,-1.5 m -2.7,1.5 5.3,0 m -5.3,-1.5 5.3,0 m -1.9,4.2 0,-1.5 m -2.7,1.5 5.3,0 m -5.3,-1.5 5.3,0 m -1.9,1.5 0,-1.5 m -2.7,1.5 5.3,0 m -5.3,-1.5 5.3,0 m -1.9,1.5 0,-1.5 m -2.7,1.5 5.3,0 m -5.3,-1.5 5.3,0 m -1.9,1.5 0,-1.5 m -2.7,1.5 5.3,0 m -5.3,-1.5 5.3,0 m -1.8,1.5 0,-1.5 m -2.7,1.5 5.3,0 m -5.3,-1.5 5.3,0 m -1.9,1.5 0,-1.5 m -2.7,1.5 5.3,0 m -5.3,-1.5 5.3,0 m -1.9,1.5 0,-1.5 m -2.7,1.5 5.3,0 m -5.3,-1.5 5.3,0 m -1.9,4.2 0,-1.6 m -2.7,1.6 5.3,0 m -5.3,-1.6 5.3,0 m -1.9,1.6 0,-1.6 m -2.7,1.6 5.3,0 m -5.3,-1.6 5.3,0 m -1.9,1.6 0,-1.6"
           id="path264"
           inkscape:connector-curvature="0"
           style="stroke:#dd181f" />
        <path
           d="m 252.1,185.3 5.3,0 m -5.3,-1.6 5.3,0 m -1.9,1.6 0,-1.6 m -2.7,1.6 5.3,0 m -5.3,-1.6 5.3,0 m -1.9,1.6 0,-1.6 m -2.7,1.6 5.3,0 m -5.3,-1.6 5.3,0 m -1.9,4.2 0,-1.5 m -2.7,1.5 5.3,0 m -5.3,-1.5 5.3,0 m -1.9,1.5 0,-1.5 m -2.7,1.5 5.3,0 m -5.3,-1.5 5.3,0 m -1.8,1.5 0,-1.5 m -2.7,1.5 5.3,0 m -5.3,-1.5 5.3,0 m -1.9,4.2 0,-1.6 m -2.7,1.6 5.3,0 m -5.3,-1.6 5.3,0 m -1.9,1.6 0,-1.6 m -2.7,1.6 5.3,0 m -5.3,-1.6 5.3,0 m -1.9,1.6 0,-1.6 m -2.7,1.6 5.3,0 m -5.3,-1.6 5.3,0 m -1.9,1.6 0,-1.6 m -2.7,1.6 5.3,0 m -5.3,-1.6 5.3,0 m -1.9,1.6 0,-1.6 m -2.7,1.6 5.3,0 m -5.3,-1.6 5.3,0 m -1.9,1.6 0,-1.6 m -2.7,1.6 5.3,0 m -5.3,-1.6 5.3,0 m -1.9,1.6 0,-1.6 m -2.7,1.6 5.3,0 m -5.3,-1.6 5.3,0 m -1.9,4.2 0,-1.5 m -2.7,1.5 5.3,0 m -5.3,-1.5 5.3,0 m -1.9,1.5 0,-1.5 m -2.7,1.5 5.3,0 m -5.3,-1.5 5.3,0 m -1.8,1.5 0,-1.5 m -2.7,1.5 5.3,0 m -5.3,-1.5 5.3,0 m -1.9,1.5 0,-1.5 m -2.7,1.5 5.3,0 m -5.3,-1.5 5.3,0 m -1.9,1.5 0,-1.5 m -2.7,1.5 5.3,0 m -5.3,-1.5 5.3,0 m -1.9,4.2 0,-1.6 m -2.7,1.6 5.3,0 m -5.3,-1.6 5.3,0 m -1.9,1.6 0,-1.6 m -2.7,1.6 5.3,0 m -5.3,-1.6 5.3,0 m -1.9,1.6 0,-1.6 m -2.7,1.6 5.3,0 m -5.3,-1.6 5.3,0 m -1.9,1.6 0,-1.6 m -2.7,1.6 5.3,0 m -5.3,-1.6 5.3,0 m -1.9,1.6 0,-1.6 m -2.7,1.6 5.3,0 m -5.3,-1.6 5.3,0 m -1.9,1.6 0,-1.6 m -2.7,1.6 5.3,0 m -5.3,-1.6 5.3,0 m -1.9,4.2 0,-1.5 m -2.7,1.5 5.3,0 m -5.3,-1.5 5.3,0 m -1.8,1.5 0,-1.5 m -2.7,1.5 5.3,0 m -5.3,-1.5 5.3,0 m -1.9,1.5 0,-1.5 m -2.7,1.5 5.3,0 m -5.3,-1.5 5.3,0 m -1.9,1.5 0,-1.5 m -2.7,1.5 5.3,0 m -5.3,-1.5 5.3,0 m -1.9,1.5 0,-1.5 m -2.7,1.5 5.3,0 m -5.3,-1.5 5.3,0 m -1.9,1.5 0,-1.5 m -2.7,1.5 5.3,0 m -5.3,-1.5 5.3,0 m -1.9,1.5 0,-1.5 m -2.7,1.5 5.3,0 m -5.3,-1.5 5.3,0 m -1.9,1.5 0,-1.5 m -2.7,1.5 5.3,0 m -5.3,-1.5 5.3,0 m -1.9,1.5 0,-1.5 m -2.7,1.5 5.3,0 m -5.3,-1.5 5.3,0 m -1.9,4.2 0,-1.6 m -2.7,1.6 5.3,0 m -5.3,-1.6 5.3,0 m -1.9,1.6 0,-1.6 m -2.7,1.6 5.3,0 m -5.3,-1.6 5.3,0 m -1.8,1.6 0,-1.6 m -2.7,1.6 5.3,0 m -5.3,-1.6 5.3,0 m -1.9,1.6 0,-1.6 m -2.7,1.6 5.3,0 m -5.3,-1.6 5.3,0 m -1.9,1.6 0,-1.6 m -2.7,1.6 5.3,0 m -5.3,-1.6 5.3,0 m -1.9,1.6 0,-1.6 m -2.7,1.6 5.3,0 m -5.3,-1.6 5.3,0 m -1.9,1.6 0,-1.6 m -2.7,1.6 5.3,0 m -5.3,-1.6 5.3,0 m -1.9,1.6 0,-1.6 m -2.7,1.6 5.3,0 m -5.3,-1.6 5.3,0 m -1.9,4.2 0,-1.5 m -2.7,1.5 5.3,0 m -5.3,-1.5 5.3,0 m -1.9,1.5 0,-1.5 m -2.7,1.5 5.3,0 m -5.3,-1.5 5.3,0 m -1.9,1.5 0,-1.5 m -2.7,1.5 5.3,0 m -5.3,-1.5 5.3,0 m -1.9,1.5 0,-1.5 m -2.7,1.5 5.3,0 m -5.3,-1.5 5.3,0 m -1.8,4.2 0,-1.6 m -2.7,1.6 5.3,0 m -5.3,-1.6 5.3,0 m -1.9,1.6 0,-1.6 m -2.7,1.6 5.3,0 m -5.3,-1.6 5.3,0 m -1.9,1.6 0,-1.6 m -2.7,1.6 5.3,0 m -5.3,-1.6 5.3,0 m -1.9,1.6 0,-1.6 m -2.7,1.6 5.3,0 m -5.3,-1.6 5.3,0 m -1.9,4.2 0,-1.5 m -2.7,1.5 5.3,0 m -5.3,-1.5 5.3,0 m -1.9,1.5 0,-1.5 m -2.7,1.5 5.3,0 m -5.3,-1.5 5.3,0 m -1.9,4.2 0,-1.5 m -2.7,1.5 5.3,0 m -5.3,-1.5 5.3,0 m -1.9,1.5 0,-1.5 m -2.7,1.5 5.3,0 m -5.3,-1.5 5.3,0 m -1.9,1.5 0,-1.5 m -2.7,1.5 5.3,0 m -5.3,-1.5 5.3,0 m -1.9,1.5 0,-1.5 m -2.7,1.5 5.3,0 m -5.3,-1.5 5.3,0 m -1.8,4.1 0,-1.5 m -2.7,1.5 5.3,0 m -5.3,-1.5 5.3,0 m -1.9,1.5 0,-1.5 m -2.7,1.5 5.3,0 m -5.3,-1.5 5.3,0 m -1.9,4.2 0,-1.5 m -2.7,1.5 5.3,0 m -5.3,-1.5 5.3,0 m -1.9,1.5 0,-1.5 m -2.7,1.5 5.3,0 m -5.3,-1.5 5.3,0 m -1.9,1.5 0,-1.5 m -2.7,1.5 5.3,0 m -5.3,-1.5 5.3,0 m -1.9,4.1 0,-1.5 m -2.7,1.5 5.3,0 m -5.3,-1.5 5.3,0 m -1.9,1.5 0,-1.5 m -2.7,1.5 5.3,0 m -5.3,-1.5 5.3,0 m -1.9,1.5 0,-1.5 m -2.7,1.5 5.3,0 m -5.3,-1.5 5.3,0 m -1.9,1.5 0,-1.5 m -2.7,1.5 5.3,0 m -5.3,-1.5 5.3,0 m -1.9,4.2 0,-1.5 m -2.7,1.5 5.3,0 m -5.3,-1.5 5.3,0 m -1.8,1.5 0,-1.5 m -2.7,1.5 5.3,0 m -5.3,-1.5 5.3,0 m -1.9,4.2 0,-1.6 m -2.7,1.6 5.3,0 m -5.3,-1.6 5.3,0 m -1.9,1.6 0,-1.6 m -2.7,1.6 5.3,0 m -5.3,-1.6 5.3,0 m -1.9,4.2 0,-1.5 m -2.7,1.5 5.3,0 m -5.3,-1.5 5.3,0 m -1.9,4.2 0,-1.6 m -2.7,1.6 5.3,0 m -5.3,-1.6 5.3,0 m -1.9,1.6 0,-1.6 m -2.7,1.6 5.3,0 m -5.3,-1.6 5.3,0 m -1.9,1.6 0,-1.6 m -2.7,1.6 5.3,0 m -5.3,-1.6 5.3,0 m -1.9,4.2 0,-1.5 m -2.7,1.5 5.3,0 m -5.3,-1.5 5.3,0 m -1.9,1.5 0,-1.5 m -2.7,1.5 5.3,0 m -5.3,-1.5 5.3,0 m -1.9,1.5 0,-1.5 m -2.7,1.5 5.3,0 m -5.3,-1.5 5.3,0 m -1.8,4.2 0,-1.6 m -2.7,1.6 5.3,0 m -5.3,-1.6 5.3,0 m -1.9,1.6 0,-1.6 m -2.7,1.6 5.3,0 m -5.3,-1.6 5.3,0 m -1.9,4.2 0,-1.5 m -2.7,1.5 5.3,0 m -5.3,-1.5 5.3,0 m -1.9,1.5 0,-1.5 m -2.7,1.5 5.3,0 m -5.3,-1.5 5.3,0 m -1.9,4.2 0,-1.6 m -2.7,1.6 5.3,0 m -5.3,-1.6 5.3,0 m -1.9,1.6 0,-1.6 m -2.7,1.6 5.3,0 m -5.3,-1.6 5.3,0 m -1.9,4.2 0,-1.5 m -2.7,1.5 5.3,0 m -5.3,-1.5 5.3,0 m -1.9,1.5 0,-1.5 m -2.7,1.5 5.3,0 m -5.3,-1.5 5.3,0 m -1.9,4.2 0,-1.6 m -2.7,1.6 5.3,0 m -5.3,-1.6 5.3,0 m -1.9,1.6 0,-1.6 m -2.7,1.6 5.3,0 m -5.3,-1.6 5.3,0 m -1.8,1.6 0,-1.6 m -2.7,1.6 5.3,0 m -5.3,-1.6 5.3,0"
           id="path266"
           inkscape:connector-curvature="0"
           style="stroke:#dd181f" />
        <path
           d="m 315.9,248.9 0,-1.5 m -2.7,1.5 5.3,0 m -5.3,-1.5 5.3,0 m -1.9,1.5 0,-1.5 m -2.7,1.5 5.3,0 m -5.3,-1.5 5.3,0 m -1.9,1.5 0,-1.5 m -2.7,1.5 5.3,0 m -5.3,-1.5 5.3,0 m -1.9,4.2 0,-1.5 m -2.7,1.5 5.3,0 m -5.3,-1.5 5.3,0 m -1.9,1.5 0,-1.5 m -2.7,1.5 5.3,0 m -5.3,-1.5 5.3,0 m -1.9,1.5 0,-1.5 m -2.7,1.5 5.3,0 m -5.3,-1.5 5.3,0 m -1.9,4.1 0,-1.5 m -2.7,1.5 5.3,0 m -5.3,-1.5 5.3,0 m -1.9,1.5 0,-1.5 m -2.7,1.5 5.3,0 m -5.3,-1.5 5.3,0 m -1.9,1.5 0,-1.5 m -2.7,1.5 5.3,0 m -5.3,-1.5 5.3,0 m -1.8,1.5 0,-1.5 m -2.7,1.5 5.3,0 m -5.3,-1.5 5.3,0 m -1.9,4.2 0,-1.5 m -2.7,1.5 5.3,0 m -5.3,-1.5 5.3,0 m -1.9,1.5 0,-1.5 m -2.7,1.5 5.3,0 m -5.3,-1.5 5.3,0 m -1.9,1.5 0,-1.5 m -2.7,1.5 5.3,0 m -5.3,-1.5 5.3,0 m -1.9,1.5 0,-1.5 m -2.7,1.5 5.3,0 m -5.3,-1.5 5.3,0 m -1.9,1.5 0,-1.5 m -2.7,1.5 5.3,0 m -5.3,-1.5 5.3,0 m -1.9,1.5 0,-1.5 m -2.7,1.5 5.3,0 m -5.3,-1.5 5.3,0 m -1.9,1.5 0,-1.5 m -2.7,1.5 5.3,0 m -5.3,-1.5 5.3,0 m -1.9,4.1 0,-1.5 m -2.7,1.5 5.3,0 m -5.3,-1.5 5.3,0 m -1.9,1.5 0,-1.5 m -2.7,1.5 5.3,0 m -5.3,-1.5 5.3,0 m -1.8,1.5 0,-1.5 m -2.7,1.5 5.3,0 m -5.3,-1.5 5.3,0 m -1.9,1.5 0,-1.5 m -2.7,1.5 5.3,0 m -5.3,-1.5 5.3,0 m -1.9,1.5 0,-1.5 m -2.7,1.5 5.3,0 m -5.3,-1.5 5.3,0 m -1.9,1.5 0,-1.5 m -2.7,1.5 5.3,0 m -5.3,-1.5 5.3,0 m -1.9,4.2 0,-1.5 m -2.7,1.5 5.3,0 m -5.3,-1.5 5.3,0 m -1.9,1.5 0,-1.5 m -2.7,1.5 5.3,0 m -5.3,-1.5 5.3,0 m -1.9,1.5 0,-1.5 m -2.7,1.5 5.3,0 m -5.3,-1.5 5.3,0 m -1.9,1.5 0,-1.5 m -2.7,1.5 5.3,0 m -5.3,-1.5 5.3,0 m -1.9,1.5 0,-1.5 m -2.7,1.5 5.3,0 m -5.3,-1.5 5.3,0 m -1.9,1.5 0,-1.5 m -2.7,1.5 5.3,0 m -5.3,-1.5 5.3,0 m -1.8,1.5 0,-1.5 m -2.7,1.5 5.3,0 m -5.3,-1.5 5.3,0 m -1.9,1.5 0,-1.5 m -2.7,1.5 5.3,0 m -5.3,-1.5 5.3,0 m -1.9,1.5 0,-1.5 m -2.7,1.5 5.3,0 m -5.3,-1.5 5.3,0 m -1.9,1.5 0,-1.5 m -2.7,1.5 5.3,0 m -5.3,-1.5 5.3,0 m -1.9,4.1 0,-1.5 m -2.7,1.5 5.3,0 m -5.3,-1.5 5.3,0 m -1.9,-1.1 0,-1.5 m -2.7,1.5 5.3,0 m -5.3,-1.5 5.3,0 m -1.9,1.5 0,-1.5 m -2.7,1.5 5.3,0 m -5.3,-1.5 5.3,0 m -1.9,4.1 0,-1.5 m -2.7,1.5 5.3,0 m -5.3,-1.5 5.3,0 m -1.9,-1.1 0,-1.5 m -2.7,1.5 5.3,0 m -5.3,-1.5 5.3,0 m -1.9,1.5 0,-1.5 m -2.7,1.5 5.3,0 m -5.3,-1.5 5.3,0 m -1.8,1.5 0,-1.5 m -2.7,1.5 5.3,0 m -5.3,-1.5 5.3,0 m -1.9,1.5 0,-1.5 m -2.7,1.5 5.3,0 m -5.3,-1.5 5.3,0 m -1.9,4.1 0,-1.5 m -2.7,1.5 5.3,0 m -5.3,-1.5 5.3,0 m -1.9,1.5 0,-1.5 m -2.7,1.5 5.3,0 m -5.3,-1.5 5.3,0 m -1.9,1.5 0,-1.5 m -2.7,1.5 5.3,0 m -5.3,-1.5 5.3,0 m -1.9,1.5 0,-1.5 m -2.7,1.5 5.3,0 m -5.3,-1.5 5.3,0 m -1.9,1.5 0,-1.5 m -2.7,1.5 5.3,0 m -5.3,-1.5 5.3,0 m -1.9,1.5 0,-1.5 m -2.7,1.5 5.3,0 m -5.3,-1.5 5.3,0 m -1.9,1.5 0,-1.5 m -2.7,1.5 5.3,0 m -5.3,-1.5 5.3,0 m -1.9,1.5 0,-1.5 m -2.7,1.5 5.3,0 m -5.3,-1.5 5.3,0 m -1.8,1.5 0,-1.5 m -2.7,1.5 5.3,0 m -5.3,-1.5 5.3,0 m -1.9,1.5 0,-1.5 m -2.7,1.5 5.3,0 m -5.3,-1.5 5.3,0 m -1.9,1.5 0,-1.5 m -2.7,1.5 5.3,0 m -5.3,-1.5 5.3,0 m -1.9,-1.1 0,-1.5 m -2.7,1.5 5.3,0 m -5.3,-1.5 5.3,0 m -1.9,1.5 0,-1.5 m -2.7,1.5 5.3,0 m -5.3,-1.5 5.3,0 m -1.9,1.5 0,-1.5 m -2.7,1.5 5.3,0 m -5.3,-1.5 5.3,0 m -1.9,1.5 0,-1.5 m -2.7,1.5 5.3,0 m -5.3,-1.5 5.3,0 m -1.9,1.5 0,-1.5 m -2.7,1.5 5.3,0 m -5.3,-1.5 5.3,0 m -1.9,1.5 0,-1.5 m -2.7,1.5 5.3,0 m -5.3,-1.5 5.3,0 m -1.9,1.5 0,-1.5 m -2.7,1.5 5.3,0 m -5.3,-1.5 5.3,0 m -1.8,1.5 0,-1.5 m -2.7,1.5 5.3,0 m -5.3,-1.5 5.3,0 m -1.9,1.5 0,-1.5 m -2.7,1.5 5.3,0 m -5.3,-1.5 5.3,0 m -1.9,1.5 0,-1.5 m -2.7,1.5 5.3,0 m -5.3,-1.5 5.3,0 m -1.9,1.5 0,-1.5 m -2.7,1.5 5.3,0 m -5.3,-1.5 5.3,0 m -1.9,1.5 0,-1.5 m -2.7,1.5 5.3,0 m -5.3,-1.5 5.3,0 m -1.9,-1.2 0,-1.5 m -2.7,1.5 5.3,0 m -5.3,-1.5 5.3,0 m -1.9,1.5 0,-1.5 m -2.7,1.5 5.3,0 m -5.3,-1.5 5.3,0 m -1.9,1.5 0,-1.5 m -2.7,1.5 5.3,0 m -5.3,-1.5 5.3,0 m -1.9,1.5 0,-1.5 m -2.7,1.5 5.3,0 m -5.3,-1.5 5.3,0 m -1.9,1.5 0,-1.5 m -2.7,1.5 5.3,0 m -5.3,-1.5 5.3,0 m -1.8,1.5 0,-1.5 m -2.7,1.5 5.3,0 m -5.3,-1.5 5.3,0 m -1.9,1.5 0,-1.5 m -2.7,1.5 5.3,0 m -5.3,-1.5 5.3,0 m -1.9,1.5 0,-1.5 m -2.7,1.5 5.3,0 m -5.3,-1.5 5.3,0 m -1.9,4.2 0,-1.5 m -2.7,1.5 5.3,0 m -5.3,-1.5 5.3,0 m -1.9,1.5 0,-1.5 m -2.7,1.5 5.3,0 m -5.3,-1.5 5.3,0 m -1.9,1.5 0,-1.5 m -2.7,1.5 5.3,0 m -5.3,-1.5 5.3,0 m -1.9,1.5 0,-1.5 m -2.7,1.5 5.3,0 m -5.3,-1.5 5.3,0 m -1.9,4.1 0,-1.5 m -2.7,1.5 5.3,0 m -5.3,-1.5 5.3,0 m -1.9,1.5 0,-1.5 m -2.7,1.5 5.3,0 m -5.3,-1.5 5.3,0 m -1.9,1.5 0,-1.5 m -2.7,1.5 5.3,0 m -5.3,-1.5 5.3,0 m -1.8,1.5 0,-1.5 m -2.7,1.5 5.3,0 m -5.3,-1.5 5.3,0 m -1.9,4.2 0,-1.5 m -2.7,1.5 5.3,0 m -5.3,-1.5 5.3,0 m -1.9,1.5 0,-1.5 m -2.7,1.5 5.3,0 m -5.3,-1.5 5.3,0 m -1.9,1.5 0,-1.5 m -2.7,1.5 5.3,0 m -5.3,-1.5 5.3,0 m -1.9,4.2 0,-1.6 m -2.7,1.6 5.3,0 m -5.3,-1.6 5.3,0 m -1.9,1.6 0,-1.6 m -2.7,1.6 5.3,0 m -5.3,-1.6 5.3,0 m -1.9,4.2 0,-1.5 m -2.7,1.5 5.3,0"
           id="path268"
           inkscape:connector-curvature="0"
           style="stroke:#dd181f" />
        <path
           d="m 373.5,271.3 5.3,0 m -1.9,4.2 0,-1.6 m -2.7,1.6 5.3,0 m -5.3,-1.6 5.3,0 m -1.9,1.6 0,-1.6 m -2.7,1.6 5.3,0 m -5.3,-1.6 5.3,0 m -1.9,4.2 0,-1.5 m -2.7,1.5 5.3,0 m -5.3,-1.5 5.3,0 m -1.8,1.5 0,-1.5 m -2.7,1.5 5.3,0 m -5.3,-1.5 5.3,0 m -1.9,1.5 0,-1.5 m -2.7,1.5 5.3,0 m -5.3,-1.5 5.3,0 m -1.9,4.2 0,-1.6 m -2.7,1.6 5.3,0 m -5.3,-1.6 5.3,0 m -1.9,1.6 0,-1.6 m -2.7,1.6 5.3,0 m -5.3,-1.6 5.3,0 m -1.9,4.2 0,-1.5 m -2.7,1.5 5.3,0 m -5.3,-1.5 5.3,0 m -1.9,1.5 0,-1.5 m -2.7,1.5 5.3,0 m -5.3,-1.5 5.3,0 m -1.9,4.2 0,-1.6 m -2.7,1.6 5.3,0 m -5.3,-1.6 5.3,0 m -1.9,4.2 0,-1.5 m -2.7,1.5 5.3,0 m -5.3,-1.5 5.3,0 m -1.9,1.5 0,-1.5 m -2.7,1.5 5.3,0 m -5.3,-1.5 5.3,0 m -1.9,4.2 0,-1.6 m -2.7,1.6 5.3,0 m -5.3,-1.6 5.3,0 m -1.8,1.6 0,-1.6 m -2.7,1.6 5.3,0 m -5.3,-1.6 5.3,0 m -1.9,1.6 0,-1.6 m -2.7,1.6 5.3,0 m -5.3,-1.6 5.3,0 m -1.9,1.6 0,-1.6 m -2.7,1.6 5.3,0 m -5.3,-1.6 5.3,0 m -1.9,4.2 0,-1.5 m -2.7,1.5 5.3,0 m -5.3,-1.5 5.3,0 m -1.9,1.5 0,-1.5 m -2.7,1.5 5.3,0 m -5.3,-1.5 5.3,0 m -1.9,4.2 0,-1.5 m -2.7,1.5 5.3,0 m -5.3,-1.5 5.3,0 m -1.9,1.5 0,-1.5 m -2.7,1.5 5.3,0 m -5.3,-1.5 5.3,0 m -1.9,4.1 0,-1.5 m -2.7,1.5 5.3,0 m -5.3,-1.5 5.3,0 m -1.9,1.5 0,-1.5 m -2.7,1.5 5.3,0 m -5.3,-1.5 5.3,0 m -1.9,1.5 0,-1.5 m -2.7,1.5 5.3,0 m -5.3,-1.5 5.3,0 m -1.8,4.2 0,-1.5 m -2.7,1.5 5.3,0 m -5.3,-1.5 5.3,0 m -1.9,1.5 0,-1.5 m -2.7,1.5 5.3,0 m -5.3,-1.5 5.3,0 m -1.9,4.1 0,-1.5 m -2.7,1.5 5.3,0 m -5.3,-1.5 5.3,0 m -1.9,1.5 0,-1.5 m -2.7,1.5 5.3,0 m -5.3,-1.5 5.3,0 m -1.9,1.5 0,-1.5 m -2.7,1.5 5.3,0 m -5.3,-1.5 5.3,0 m -1.9,4.2 0,-1.5 m -2.7,1.5 5.3,0 m -5.3,-1.5 5.3,0 m -1.9,1.5 0,-1.5 m -2.7,1.5 5.3,0 m -5.3,-1.5 5.3,0 m -1.9,1.5 0,-1.5 m -2.7,1.5 5.3,0 m -5.3,-1.5 5.3,0 m -1.9,1.5 0,-1.5 m -2.7,1.5 5.3,0 m -5.3,-1.5 5.3,0 m -1.9,4.2 0,-1.6 m -2.7,1.6 5.3,0 m -5.3,-1.6 5.3,0 m -1.9,1.6 0,-1.6 m -2.7,1.6 5.3,0 m -5.3,-1.6 5.3,0 m -1.8,1.6 0,-1.6 m -2.7,1.6 5.3,0 m -5.3,-1.6 5.3,0 m -1.9,1.6 0,-1.6 m -2.7,1.6 5.3,0 m -5.3,-1.6 5.3,0 m -1.9,1.6 0,-1.6 m -2.7,1.6 5.3,0 m -5.3,-1.6 5.3,0 m -1.9,4.2 0,-1.5 m -2.7,1.5 5.3,0 m -5.3,-1.5 5.3,0 m -1.9,1.5 0,-1.5 m -2.7,1.5 5.3,0 m -5.3,-1.5 5.3,0 m -1.9,1.5 0,-1.5 m -2.7,1.5 5.3,0 m -5.3,-1.5 5.3,0 m -1.9,1.5 0,-1.5 m -2.7,1.5 5.3,0 m -5.3,-1.5 5.3,0 m -1.9,4.2 0,-1.6 m -2.7,1.6 5.3,0 m -5.3,-1.6 5.3,0 m -1.9,1.6 0,-1.6 m -2.7,1.6 5.3,0 m -5.3,-1.6 5.3,0 m -1.8,1.6 0,-1.6 m -2.7,1.6 5.3,0 m -5.3,-1.6 5.3,0 m -1.9,1.6 0,-1.6 m -2.7,1.6 5.3,0 m -5.3,-1.6 5.3,0 m -1.9,1.6 0,-1.6 m -2.7,1.6 5.3,0 m -5.3,-1.6 5.3,0 m -1.9,1.6 0,-1.6 m -2.7,1.6 5.3,0 m -5.3,-1.6 5.3,0 m -1.9,-1.1 0,-1.5 m -2.7,1.5 5.3,0 m -5.3,-1.5 5.3,0 m -1.9,1.5 0,-1.5 m -2.7,1.5 5.3,0 m -5.3,-1.5 5.3,0 m -1.9,1.5 0,-1.5 m -2.7,1.5 5.3,0 m -5.3,-1.5 5.3,0 m -1.9,1.5 0,-1.5 m -2.7,1.5 5.3,0 m -5.3,-1.5 5.3,0 m -1.9,1.5 0,-1.5 m -2.7,1.5 5.3,0 m -5.3,-1.5 5.3,0 m -1.9,1.5 0,-1.5 m -2.7,1.5 5.3,0 m -5.3,-1.5 5.3,0 m -1.8,1.5 0,-1.5 m -2.7,1.5 5.3,0 m -5.3,-1.5 5.3,0 m -1.9,-1.1 0,-1.6 m -2.7,1.6 5.3,0 m -5.3,-1.6 5.3,0 m -1.9,1.6 0,-1.6 m -2.7,1.6 5.3,0 m -5.3,-1.6 5.3,0 m -1.9,1.6 0,-1.6 m -2.7,1.6 5.3,0 m -5.3,-1.6 5.3,0 m -1.9,1.6 0,-1.6 m -2.7,1.6 5.3,0 m -5.3,-1.6 5.3,0 m -1.9,1.6 0,-1.6 m -2.7,1.6 5.3,0 m -5.3,-1.6 5.3,0 m -1.9,1.6 0,-1.6 m -2.7,1.6 5.3,0 m -5.3,-1.6 5.3,0 m -1.9,1.6 0,-1.6 m -2.7,1.6 5.3,0 m -5.3,-1.6 5.3,0 m -1.9,-1.1 0,-1.5 m -2.7,1.5 5.3,0 m -5.3,-1.5 5.3,0 m -1.9,1.5 0,-1.5 m -2.7,1.5 5.3,0 m -5.3,-1.5 5.3,0 m -1.8,1.5 0,-1.5 m -2.7,1.5 5.3,0 m -5.3,-1.5 5.3,0 m -1.9,1.5 0,-1.5 m -2.7,1.5 5.3,0 m -5.3,-1.5 5.3,0 m -1.9,-1.2 0,-1.5 m -2.7,1.5 5.3,0 m -5.3,-1.5 5.3,0 m -1.9,1.5 0,-1.5 m -2.7,1.5 5.3,0 m -5.3,-1.5 5.3,0 m -1.9,1.5 0,-1.5 m -2.7,1.5 5.3,0 m -5.3,-1.5 5.3,0 m -1.9,1.5 0,-1.5 m -2.7,1.5 5.3,0 m -5.3,-1.5 5.3,0 m -1.9,1.5 0,-1.5 m -2.7,1.5 5.3,0 m -5.3,-1.5 5.3,0 m -1.9,1.5 0,-1.5 m -2.7,1.5 5.3,0 m -5.3,-1.5 5.3,0 m -1.9,1.5 0,-1.5 m -2.7,1.5 5.3,0 m -5.3,-1.5 5.3,0 m -1.9,1.5 0,-1.5 m -2.7,1.5 5.3,0 m -5.3,-1.5 5.3,0 m -1.8,1.5 0,-1.5 m -2.7,1.5 5.3,0 m -5.3,-1.5 5.3,0 m -1.9,-1.1 0,-1.5 m -2.7,1.5 5.3,0 m -5.3,-1.5 5.3,0 m -1.9,1.5 0,-1.5 m -2.7,1.5 5.3,0 m -5.3,-1.5 5.3,0 m -1.9,4.1 0,-1.5 m -2.7,1.5 5.3,0 m -5.3,-1.5 5.3,0 m -1.9,-1.1 0,-1.5 m -2.7,1.5 5.3,0 m -5.3,-1.5 5.3,0 m -1.9,1.5 0,-1.5 m -2.7,1.5 5.3,0 m -5.3,-1.5 5.3,0 m -1.9,1.5 0,-1.5 m -2.7,1.5 5.3,0 m -5.3,-1.5 5.3,0 m -1.9,1.5 0,-1.5 m -2.7,1.5 5.3,0 m -5.3,-1.5 5.3,0 m -1.9,1.5 0,-1.5 m -2.7,1.5 5.3,0 m -5.3,-1.5 5.3,0 m -1.9,1.5 0,-1.5 m -2.7,1.5 5.3,0 m -5.3,-1.5 5.3,0 m -1.8,1.5 0,-1.5 m -2.7,1.5 5.3,0 m -5.3,-1.5 5.3,0 m -1.9,1.5 0,-1.5 m -2.7,1.5 5.3,0 m -5.3,-1.5 5.3,0 m -1.9,1.5 0,-1.5"
           id="path270"
           inkscape:connector-curvature="0"
           style="stroke:#dd181f" />
        <path
           d="m 434.6,302 5.3,0 m -5.3,-1.5 5.3,0 m -1.9,1.5 0,-1.5 m -2.7,1.5 5.3,0 m -5.3,-1.5 5.3,0 m -1.9,1.5 0,-1.5 m -2.7,1.5 5.3,0 m -5.3,-1.5 5.3,0 m -1.9,1.5 0,-1.5 m -2.7,1.5 5.3,0 m -5.3,-1.5 5.3,0 m -1.9,4.1 0,-1.5 m -2.7,1.5 5.3,0 m -5.3,-1.5 5.3,0 m -1.9,1.5 0,-1.5 m -2.7,1.5 5.3,0 m -5.3,-1.5 5.3,0 m -1.9,1.5 0,-1.5 m -2.7,1.5 5.3,0 m -5.3,-1.5 5.3,0 m -1.9,1.5 0,-1.5 m -2.7,1.5 5.3,0 m -5.3,-1.5 5.3,0 m -1.8,1.5 0,-1.5 m -2.7,1.5 5.3,0 m -5.3,-1.5 5.3,0 m -1.9,1.5 0,-1.5 m -2.7,1.5 5.3,0 m -5.3,-1.5 5.3,0 m -1.9,1.5 0,-1.5 m -2.7,1.5 5.3,0 m -5.3,-1.5 5.3,0 m -1.9,1.5 0,-1.5 m -2.7,1.5 5.3,0 m -5.3,-1.5 5.3,0 m -1.9,4.2 0,-1.5 m -2.7,1.5 5.3,0 m -5.3,-1.5 5.3,0 m -1.9,1.5 0,-1.5 m -2.7,1.5 5.3,0 m -5.3,-1.5 5.3,0 m -1.9,1.5 0,-1.5 m -2.7,1.5 5.3,0 m -5.3,-1.5 5.3,0 m -1.9,4.2 0,-1.6 m -2.7,1.6 5.3,0 m -5.3,-1.6 5.3,0 m -1.9,1.6 0,-1.6 m -2.7,1.6 5.3,0 m -5.3,-1.6 5.3,0 m -1.9,4.2 0,-1.5 m -2.7,1.5 5.3,0 m -5.3,-1.5 5.3,0 m -1.8,1.5 0,-1.5 m -2.7,1.5 5.3,0 m -5.3,-1.5 5.3,0 m -1.9,1.5 0,-1.5 m -2.7,1.5 5.3,0 m -5.3,-1.5 5.3,0 m -1.9,4.2 0,-1.6 m -2.7,1.6 5.3,0 m -5.3,-1.6 5.3,0 m -1.9,1.6 0,-1.6 m -2.7,1.6 5.3,0 m -5.3,-1.6 5.3,0 m -1.9,4.2 0,-1.5 m -2.7,1.5 5.3,0 m -5.3,-1.5 5.3,0 m -1.9,1.5 0,-1.5 m -2.7,1.5 5.3,0 m -5.3,-1.5 5.3,0 m -1.9,1.5 0,-1.5 m -2.7,1.5 5.3,0 m -5.3,-1.5 5.3,0 m -1.9,4.2 0,-1.6 m -2.7,1.6 5.3,0 m -5.3,-1.6 5.3,0 m -1.9,1.6 0,-1.6 m -2.7,1.6 5.3,0 m -5.3,-1.6 5.3,0 m -1.9,4.2 0,-1.5 m -2.7,1.5 5.3,0 m -5.3,-1.5 5.3,0 m -1.8,1.5 0,-1.5 m -2.7,1.5 5.3,0 m -5.3,-1.5 5.3,0 m -1.9,4.2 0,-1.6 m -2.7,1.6 5.3,0 m -5.3,-1.6 5.3,0 m -1.9,1.6 0,-1.6 m -2.7,1.6 5.3,0 m -5.3,-1.6 5.3,0 m -1.9,4.2 0,-1.5 m -2.7,1.5 5.3,0 m -5.3,-1.5 5.3,0 m -1.9,1.5 0,-1.5 m -2.7,1.5 5.3,0 m -5.3,-1.5 5.3,0 m -1.9,4.2 0,-1.6 m -2.7,1.6 5.3,0 m -5.3,-1.6 5.3,0 m -1.9,1.6 0,-1.6 m -2.7,1.6 5.3,0 m -5.3,-1.6 5.3,0 m -1.9,4.2 0,-1.5 m -2.7,1.5 5.3,0 m -5.3,-1.5 5.3,0 m -1.9,1.5 0,-1.5 m -2.7,1.5 5.3,0 m -5.3,-1.5 5.3,0 m -1.9,1.5 0,-1.5 m -2.7,1.5 5.3,0 m -5.3,-1.5 5.3,0 m -1.8,4.2 0,-1.5 m -2.7,1.5 5.3,0 m -5.3,-1.5 5.3,0 m -1.9,1.5 0,-1.5 m -2.7,1.5 5.3,0 m -5.3,-1.5 5.3,0 m -1.9,4.1 0,-1.5 m -2.7,1.5 5.3,0 m -5.3,-1.5 5.3,0 m -1.9,1.5 0,-1.5 m -2.7,1.5 5.3,0 m -5.3,-1.5 5.3,0 m -1.9,1.5 0,-1.5 m -2.7,1.5 5.3,0 m -5.3,-1.5 5.3,0 m -1.9,4.2 0,-1.5 m -2.7,1.5 5.3,0 m -5.3,-1.5 5.3,0 m -1.9,1.5 0,-1.5 m -2.7,1.5 5.3,0 m -5.3,-1.5 5.3,0 m -1.9,1.5 0,-1.5 m -2.7,1.5 5.3,0 m -5.3,-1.5 5.3,0 m -1.9,4.1 0,-1.5 m -2.7,1.5 5.3,0 m -5.3,-1.5 5.3,0 m -1.9,1.5 0,-1.5 m -2.7,1.5 5.3,0 m -5.3,-1.5 5.3,0 m -1.8,1.5 0,-1.5 m -2.7,1.5 5.3,0 m -5.3,-1.5 5.3,0 m -1.9,1.5 0,-1.5 m -2.7,1.5 5.3,0 m -5.3,-1.5 5.3,0 m -1.9,4.2 0,-1.5 m -2.7,1.5 5.3,0 m -5.3,-1.5 5.3,0 m -1.9,1.5 0,-1.5 m -2.7,1.5 5.3,0 m -5.3,-1.5 5.3,0 m -1.9,1.5 0,-1.5 m -2.7,1.5 5.3,0 m -5.3,-1.5 5.3,0 m -1.9,1.5 0,-1.5 m -2.7,1.5 5.3,0 m -5.3,-1.5 5.3,0 m -1.9,1.5 0,-1.5 m -2.7,1.5 5.3,0 m -5.3,-1.5 5.3,0 m -1.9,4.1 0,-1.5 m -2.7,1.5 5.3,0 m -5.3,-1.5 5.3,0 m -1.9,1.5 0,-1.5 m -2.7,1.5 5.3,0 m -5.3,-1.5 5.3,0 m -1.9,1.5 0,-1.5 m -2.7,1.5 5.3,0 m -5.3,-1.5 5.3,0 m -1.8,1.5 0,-1.5 m -2.7,1.5 5.3,0 m -5.3,-1.5 5.3,0 m -1.9,1.5 0,-1.5 m -2.7,1.5 5.3,0 m -5.3,-1.5 5.3,0 m -1.9,1.5 0,-1.5 m -2.7,1.5 5.3,0 m -5.3,-1.5 5.3,0 m -1.9,1.5 0,-1.5 m -2.7,1.5 5.3,0 m -5.3,-1.5 5.3,0 m -1.9,1.5 0,-1.5 m -2.7,1.5 5.3,0 m -5.3,-1.5 5.3,0 m -1.9,1.5 0,-1.5 m -2.7,1.5 5.3,0 m -5.3,-1.5 5.3,0 m -1.9,1.5 0,-1.5 m -2.7,1.5 5.3,0 m -5.3,-1.5 5.3,0 m -1.9,1.5 0,-1.5 m -2.7,1.5 5.3,0 m -5.3,-1.5 5.3,0 m -1.9,1.5 0,-1.5 m -2.7,1.5 5.3,0 m -5.3,-1.5 5.3,0 m -1.9,1.5 0,-1.5 m -2.7,1.5 5.3,0 m -5.3,-1.5 5.3,0 m -1.8,1.5 0,-1.5 m -2.7,1.5 5.3,0 m -5.3,-1.5 5.3,0 m -1.9,1.5 0,-1.5 m -2.7,1.5 5.3,0 m -5.3,-1.5 5.3,0 m -1.9,1.5 0,-1.5 m -2.7,1.5 5.3,0 m -5.3,-1.5 5.3,0 m -1.9,1.5 0,-1.5 m -2.7,1.5 5.3,0 m -5.3,-1.5 5.3,0 m -1.9,1.5 0,-1.5 m -2.7,1.5 5.3,0 m -5.3,-1.5 5.3,0 m -1.9,-1.1 0,-1.5 m -2.7,1.5 5.3,0 m -5.3,-1.5 5.3,0 m -1.9,1.5 0,-1.5 m -2.7,1.5 5.3,0 m -5.3,-1.5 5.3,0 m -1.9,1.5 0,-1.5 m -2.7,1.5 5.3,0 m -5.3,-1.5 5.3,0 m -1.9,1.5 0,-1.5 m -2.7,1.5 5.3,0 m -5.3,-1.5 5.3,0 m -1.9,1.5 0,-1.5 m -2.7,1.5 5.3,0 m -5.3,-1.5 5.3,0 m -1.8,1.5 0,-1.5 m -2.7,1.5 5.3,0 m -5.3,-1.5 5.3,0 m -1.9,1.5 0,-1.5 m -2.7,1.5 5.3,0 m -5.3,-1.5 5.3,0 m -1.9,1.5 0,-1.5 m -2.7,1.5 5.3,0 m -5.3,-1.5 5.3,0 m -1.9,1.5 0,-1.5 m -2.7,1.5 5.3,0 m -5.3,-1.5 5.3,0 m -1.9,-1.2 0,-1.5 m -2.7,1.5 5.3,0 m -5.3,-1.5 5.3,0 m -1.9,1.5 0,-1.5 m -2.7,1.5 5.3,0 m -5.3,-1.5 5.3,0 m -1.9,1.5 0,-1.5 m -2.7,1.5 5.3,0 m -5.3,-1.5 5.3,0 m -1.9,1.5 0,-1.5 m -2.7,1.5 5.3,0 m -5.3,-1.5 5.3,0"
           id="path272"
           inkscape:connector-curvature="0"
           style="stroke:#dd181f" />
        <path
           d="m 498.3,344.4 0,-1.5 m -2.7,1.5 5.3,0 m -5.3,-1.5 5.3,0 m -1.9,1.5 0,-1.5 m -2.7,1.5 5.3,0 m -5.3,-1.5 5.3,0 m -1.8,1.5 0,-1.5 m -2.7,1.5 5.3,0 m -5.3,-1.5 5.3,0 m -1.9,1.5 0,-1.5 m -2.7,1.5 5.3,0 m -5.3,-1.5 5.3,0 m -1.9,1.5 0,-1.5 m -2.7,1.5 5.3,0 m -5.3,-1.5 5.3,0 m -1.9,-1.1 0,-1.5 m -2.7,1.5 5.3,0 m -5.3,-1.5 5.3,0 m -1.9,1.5 0,-1.5 m -2.7,1.5 5.3,0 m -5.3,-1.5 5.3,0 m -1.9,1.5 0,-1.5 m -2.7,1.5 5.3,0 m -5.3,-1.5 5.3,0 m -1.9,1.5 0,-1.5 m -2.7,1.5 5.3,0 m -5.3,-1.5 5.3,0 m -1.9,1.5 0,-1.5 m -2.7,1.5 5.3,0 m -5.3,-1.5 5.3,0 m -1.9,1.5 0,-1.5 m -2.7,1.5 5.3,0 m -5.3,-1.5 5.3,0 m -1.9,1.5 0,-1.5 m -2.7,1.5 5.3,0 m -5.3,-1.5 5.3,0 m -1.8,1.5 0,-1.5 m -2.7,1.5 5.3,0 m -5.3,-1.5 5.3,0 m -1.9,1.5 0,-1.5 m -2.7,1.5 5.3,0 m -5.3,-1.5 5.3,0 m -1.9,1.5 0,-1.5 m -2.7,1.5 5.3,0 m -5.3,-1.5 5.3,0 m -1.9,1.5 0,-1.5 m -2.7,1.5 5.3,0 m -5.3,-1.5 5.3,0 m -1.9,1.5 0,-1.5 m -2.7,1.5 5.3,0 m -5.3,-1.5 5.3,0 m -1.9,1.5 0,-1.5 m -2.7,1.5 5.3,0 m -5.3,-1.5 5.3,0 m -1.9,1.5 0,-1.5 m -2.7,1.5 5.3,0 m -5.3,-1.5 5.3,0 m -1.9,1.5 0,-1.5 m -2.7,1.5 5.3,0 m -5.3,-1.5 5.3,0 m -1.9,1.5 0,-1.5 m -2.7,1.5 5.3,0 m -5.3,-1.5 5.3,0 m -1.9,1.5 0,-1.5 m -2.7,1.5 5.3,0 m -5.3,-1.5 5.3,0 m -1.8,1.5 0,-1.5 m -2.7,1.5 5.3,0 m -5.3,-1.5 5.3,0 m -1.9,4.1 0,-1.5 m -2.7,1.5 5.3,0 m -5.3,-1.5 5.3,0 m -1.9,1.5 0,-1.5 m -2.7,1.5 5.3,0 m -5.3,-1.5 5.3,0 m -1.9,1.5 0,-1.5 m -2.7,1.5 5.3,0 m -5.3,-1.5 5.3,0 m -1.9,1.5 0,-1.5 m -2.7,1.5 5.3,0 m -5.3,-1.5 5.3,0 m -1.9,1.5 0,-1.5 m -2.7,1.5 5.3,0 m -5.3,-1.5 5.3,0 m -1.9,1.5 0,-1.5 m -2.7,1.5 5.3,0 m -5.3,-1.5 5.3,0 m -1.9,1.5 0,-1.5 m -2.7,1.5 5.3,0 m -5.3,-1.5 5.3,0 m -1.9,4.2 0,-1.5 m -2.7,1.5 5.3,0 m -5.3,-1.5 5.3,0 m -1.9,1.5 0,-1.5 m -2.7,1.5 5.3,0 m -5.3,-1.5 5.3,0 m -1.8,1.5 0,-1.5 m -2.7,1.5 5.3,0 m -5.3,-1.5 5.3,0 m -1.9,1.5 0,-1.5 m -2.7,1.5 5.3,0 m -5.3,-1.5 5.3,0 m -1.9,4.1 0,-1.5 m -2.7,1.5 5.3,0 m -5.3,-1.5 5.3,0 m -1.9,1.5 0,-1.5 m -2.7,1.5 5.3,0 m -5.3,-1.5 5.3,0 m -1.9,1.5 0,-1.5 m -2.7,1.5 5.3,0 m -5.3,-1.5 5.3,0 m -1.9,1.5 0,-1.5 m -2.7,1.5 5.3,0 m -5.3,-1.5 5.3,0 m -1.9,1.5 0,-1.5 m -2.7,1.5 5.3,0 m -5.3,-1.5 5.3,0 m -1.9,4.2 0,-1.5 m -2.7,1.5 5.3,0 m -5.3,-1.5 5.3,0 m -1.9,1.5 0,-1.5 m -2.7,1.5 5.3,0 m -5.3,-1.5 5.3,0 m -1.9,1.5 0,-1.5 m -2.7,1.5 5.3,0 m -5.3,-1.5 5.3,0 m -1.8,4.2 0,-1.6 m -2.7,1.6 5.3,0 m -5.3,-1.6 5.3,0 m -1.9,1.6 0,-1.6 m -2.7,1.6 5.3,0 m -5.3,-1.6 5.3,0 m -1.9,1.6 0,-1.6 m -2.7,1.6 5.3,0 m -5.3,-1.6 5.3,0 m -1.9,4.2 0,-1.5 m -2.7,1.5 5.3,0 m -5.3,-1.5 5.3,0 m -1.9,1.5 0,-1.5 m -2.7,1.5 5.3,0 m -5.3,-1.5 5.3,0 m -1.9,1.5 0,-1.5 m -2.7,1.5 5.3,0 m -5.3,-1.5 5.3,0 m -1.9,1.5 0,-1.5 m -2.7,1.5 5.3,0 m -5.3,-1.5 5.3,0 m -1.9,4.2 0,-1.6 m -2.7,1.6 5.3,0 m -5.3,-1.6 5.3,0 m -1.9,1.6 0,-1.6 m -2.7,1.6 5.3,0 m -5.3,-1.6 5.3,0 m -1.9,1.6 0,-1.6 m -2.7,1.6 5.3,0 m -5.3,-1.6 5.3,0 m -1.8,1.6 0,-1.6 m -2.7,1.6 5.3,0 m -5.3,-1.6 5.3,0 m -1.9,4.2 0,-1.5 m -2.7,1.5 5.3,0 m -5.3,-1.5 5.3,0 m -1.9,1.5 0,-1.5 m -2.7,1.5 5.3,0 m -5.3,-1.5 5.3,0 m -1.9,1.5 0,-1.5 m -2.7,1.5 5.3,0 m -5.3,-1.5 5.3,0 m -1.9,1.5 0,-1.5 m -2.7,1.5 5.3,0 m -5.3,-1.5 5.3,0 m -1.9,1.5 0,-1.5 m -2.7,1.5 5.3,0 m -5.3,-1.5 5.3,0 m -1.9,4.2 0,-1.6 m -2.7,1.6 5.3,0 m -5.3,-1.6 5.3,0 m -1.9,1.6 0,-1.6 m -2.7,1.6 5.3,0 m -5.3,-1.6 5.3,0 m -1.9,1.6 0,-1.6 m -2.7,1.6 5.3,0 m -5.3,-1.6 5.3,0 m -1.9,1.6 0,-1.6 m -2.7,1.6 5.3,0 m -5.3,-1.6 5.3,0 m -1.8,4.2 0,-1.5 m -2.7,1.5 5.3,0 m -5.3,-1.5 5.3,0 m -1.9,1.5 0,-1.5 m -2.7,1.5 5.3,0 m -5.3,-1.5 5.3,0 m -1.9,1.5 0,-1.5 m -2.7,1.5 5.3,0 m -5.3,-1.5 5.3,0 m -1.9,1.5 0,-1.5 m -2.7,1.5 5.3,0 m -5.3,-1.5 5.3,0 m -1.9,4.2 0,-1.6 m -2.7,1.6 5.3,0 m -5.3,-1.6 5.3,0 m -1.9,1.6 0,-1.6 m -2.7,1.6 5.3,0 m -5.3,-1.6 5.3,0 m -1.9,1.6 0,-1.6 m -2.7,1.6 5.3,0 m -5.3,-1.6 5.3,0 m -1.9,1.6 0,-1.6 m -2.7,1.6 5.3,0 m -5.3,-1.6 5.3,0 m -1.9,1.6 0,-1.6 m -2.7,1.6 5.3,0 m -5.3,-1.6 5.3,0 m -1.9,1.6 0,-1.6 m -2.7,1.6 5.3,0 m -5.3,-1.6 5.3,0 m -1.8,1.6 0,-1.6 m -2.7,1.6 5.3,0 m -5.3,-1.6 5.3,0 m -1.9,4.2 0,-1.5 m -2.7,1.5 5.3,0 m -5.3,-1.5 5.3,0 m -1.9,1.5 0,-1.5 m -2.7,1.5 5.3,0 m -5.3,-1.5 5.3,0 m -1.9,1.5 0,-1.5 m -2.7,1.5 5.3,0 m -5.3,-1.5 5.3,0 m -1.9,1.5 0,-1.5 m -2.7,1.5 5.3,0 m -5.3,-1.5 5.3,0 m -1.9,1.5 0,-1.5 m -2.7,1.5 5.3,0 m -5.3,-1.5 5.3,0 m -1.9,1.5 0,-1.5 m -2.7,1.5 5.3,0 m -5.3,-1.5 5.3,0 m -1.9,1.5 0,-1.5 m -2.7,1.5 5.3,0 m -5.3,-1.5 5.3,0 m -1.9,1.5 0,-1.5 m -2.7,1.5 5.3,0 m -5.3,-1.5 5.3,0 m -1.9,4.2 0,-1.6 m -2.7,1.6 5.3,0 m -5.3,-1.6 5.3,0 m -1.8,1.6 0,-1.6 m -2.7,1.6 5.3,0 m -5.3,-1.6 5.3,0 m -1.9,1.6 0,-1.6 m -2.7,1.6 5.3,0 m -5.3,-1.6 5.3,0 m -1.9,1.6 0,-1.6 m -2.7,1.6 5.3,0 m -5.3,-1.6 5.3,0 m -1.9,1.6 0,-1.6 m -2.7,1.6 5.3,0"
           id="path274"
           inkscape:connector-curvature="0"
           style="stroke:#dd181f" />
        <path
           d="m 556,374.7 5.3,0 m -1.9,1.6 0,-1.6 m -2.7,1.6 5.3,0 m -5.3,-1.6 5.3,0 m -1.9,1.6 0,-1.6 m -2.7,1.6 5.3,0 m -5.3,-1.6 5.3,0 m -1.9,1.6 0,-1.6 m -2.7,1.6 5.3,0 m -5.3,-1.6 5.3,0 m -1.9,1.6 0,-1.6 m -2.7,1.6 5.3,0 m -5.3,-1.6 5.3,0 m -1.9,1.6 0,-1.6 m -2.7,1.6 5.3,0 m -5.3,-1.6 5.3,0 m -1.9,1.6 0,-1.6 m -2.7,1.6 5.3,0 m -5.3,-1.6 5.3,0 m -1.8,1.6 0,-1.6 m -2.7,1.6 5.3,0 m -5.3,-1.6 5.3,0 m -1.9,1.6 0,-1.6 m -2.7,1.6 5.3,0 m -5.3,-1.6 5.3,0 m -1.9,1.6 0,-1.6 m -2.7,1.6 5.3,0 m -5.3,-1.6 5.3,0 m -1.9,1.6 0,-1.6 m -2.7,1.6 5.3,0 m -5.3,-1.6 5.3,0 m -1.9,1.6 0,-1.6 m -2.7,1.6 5.3,0 m -5.3,-1.6 5.3,0 m -1.9,1.6 0,-1.6 m -2.7,1.6 5.3,0 m -5.3,-1.6 5.3,0 m -1.9,1.6 0,-1.6 m -2.7,1.6 5.3,0 m -5.3,-1.6 5.3,0 m -1.9,-1.1 0,-1.5 m -2.7,1.5 5.3,0 m -5.3,-1.5 5.3,0 m -1.9,1.5 0,-1.5 m -2.7,1.5 5.3,0 m -5.3,-1.5 5.3,0 m -1.9,1.5 0,-1.5 m -2.7,1.5 5.3,0 m -5.3,-1.5 5.3,0 m -1.8,1.5 0,-1.5 m -2.7,1.5 5.3,0 m -5.3,-1.5 5.3,0 m -1.9,1.5 0,-1.5 m -2.7,1.5 5.3,0 m -5.3,-1.5 5.3,0 m -1.9,1.5 0,-1.5 m -2.7,1.5 5.3,0 m -5.3,-1.5 5.3,0 m -1.9,1.5 0,-1.5 m -2.7,1.5 5.3,0 m -5.3,-1.5 5.3,0 m -1.9,1.5 0,-1.5 m -2.7,1.5 5.3,0 m -5.3,-1.5 5.3,0 m -1.9,1.5 0,-1.5 m -2.7,1.5 5.3,0 m -5.3,-1.5 5.3,0 m -1.9,1.5 0,-1.5 m -2.7,1.5 5.3,0 m -5.3,-1.5 5.3,0 m -1.9,1.5 0,-1.5 m -2.7,1.5 5.3,0 m -5.3,-1.5 5.3,0 m -1.9,1.5 0,-1.5 m -2.7,1.5 5.3,0 m -5.3,-1.5 5.3,0 m -1.9,1.5 0,-1.5 m -2.7,1.5 5.3,0 m -5.3,-1.5 5.3,0 m -1.8,1.5 0,-1.5 m -2.7,1.5 5.3,0 m -5.3,-1.5 5.3,0 m -1.9,1.5 0,-1.5 m -2.7,1.5 5.3,0 m -5.3,-1.5 5.3,0 m -1.9,1.5 0,-1.5 m -2.7,1.5 5.3,0 m -5.3,-1.5 5.3,0 m -1.9,1.5 0,-1.5 m -2.7,1.5 5.3,0 m -5.3,-1.5 5.3,0 m -1.9,1.5 0,-1.5 m -2.7,1.5 5.3,0 m -5.3,-1.5 5.3,0 m -1.9,1.5 0,-1.5 m -2.7,1.5 5.3,0 m -5.3,-1.5 5.3,0 m -1.9,1.5 0,-1.5 m -2.7,1.5 5.3,0 m -5.3,-1.5 5.3,0 m -1.9,4.2 0,-1.6 m -2.7,1.6 5.3,0 m -5.3,-1.6 5.3,0 m -1.9,1.6 0,-1.6 m -2.7,1.6 5.3,0 m -5.3,-1.6 5.3,0 m -1.9,1.6 0,-1.6 m -2.7,1.6 5.3,0 m -5.3,-1.6 5.3,0 m -1.8,4.2 0,-1.5 m -2.7,1.5 5.3,0 m -5.3,-1.5 5.3,0 m -1.9,1.5 0,-1.5 m -2.7,1.5 5.3,0 m -5.3,-1.5 5.3,0 m -1.9,1.5 0,-1.5 m -2.7,1.5 5.3,0 m -5.3,-1.5 5.3,0 m -1.9,1.5 0,-1.5 m -2.7,1.5 5.3,0 m -5.3,-1.5 5.3,0 m -1.9,1.5 0,-1.5 m -2.7,1.5 5.3,0 m -5.3,-1.5 5.3,0 m -1.9,1.5 0,-1.5 m -2.7,1.5 5.3,0 m -5.3,-1.5 5.3,0 m -1.9,1.5 0,-1.5 m -2.7,1.5 5.3,0 m -5.3,-1.5 5.3,0 m -1.9,1.5 0,-1.5 m -2.7,1.5 5.3,0 m -5.3,-1.5 5.3,0 m -1.9,1.5 0,-1.5 m -2.7,1.5 5.3,0 m -5.3,-1.5 5.3,0 m -1.9,1.5 0,-1.5 m -2.7,1.5 5.3,0 m -5.3,-1.5 5.3,0 m -1.8,4.2 0,-1.5 m -2.7,1.5 5.3,0 m -5.3,-1.5 5.3,0 m -1.9,1.5 0,-1.5 m -2.7,1.5 5.3,0 m -5.3,-1.5 5.3,0 m -1.9,1.5 0,-1.5 m -2.7,1.5 5.3,0 m -5.3,-1.5 5.3,0 m -1.9,1.5 0,-1.5 m -2.7,1.5 5.3,0 m -5.3,-1.5 5.3,0 m -1.9,1.5 0,-1.5 m -2.7,1.5 5.3,0 m -5.3,-1.5 5.3,0 m -1.9,1.5 0,-1.5 m -2.7,1.5 5.3,0 m -5.3,-1.5 5.3,0 m -1.9,1.5 0,-1.5 m -2.7,1.5 5.3,0 m -5.3,-1.5 5.3,0 m -1.9,1.5 0,-1.5 m -2.7,1.5 5.3,0 m -5.3,-1.5 5.3,0 m -1.9,1.5 0,-1.5 m -2.7,1.5 5.3,0 m -5.3,-1.5 5.3,0 m -1.9,1.5 0,-1.5 m -2.7,1.5 5.3,0 m -5.3,-1.5 5.3,0 m -1.8,1.5 0,-1.5 m -2.7,1.5 5.3,0 m -5.3,-1.5 5.3,0 m -1.9,1.5 0,-1.5 m -2.7,1.5 5.3,0 m -5.3,-1.5 5.3,0 m -1.9,1.5 0,-1.5 m -2.7,1.5 5.3,0 m -5.3,-1.5 5.3,0 m -1.9,1.5 0,-1.5 m -2.7,1.5 5.3,0 m -5.3,-1.5 5.3,0 m -1.9,1.5 0,-1.5 m -2.7,1.5 5.3,0 m -5.3,-1.5 5.3,0 m -1.9,1.5 0,-1.5 m -2.7,1.5 5.3,0 m -5.3,-1.5 5.3,0 m -1.9,1.5 0,-1.5 m -2.7,1.5 5.3,0 m -5.3,-1.5 5.3,0 m -1.9,1.5 0,-1.5 m -2.7,1.5 5.3,0 m -5.3,-1.5 5.3,0 m -1.9,1.5 0,-1.5 m -2.7,1.5 5.3,0 m -5.3,-1.5 5.3,0 m -1.9,4.1 0,-1.5 m -2.7,1.5 5.3,0 m -5.3,-1.5 5.3,0 m -1.8,-1.1 0,-1.5 m -2.7,1.5 5.3,0 m -5.3,-1.5 5.3,0 m -1.9,1.5 0,-1.5 m -2.7,1.5 5.3,0 m -5.3,-1.5 5.3,0 m -1.9,4.1 0,-1.5 m -2.7,1.5 5.3,0 m -5.3,-1.5 5.3,0 m -1.9,1.5 0,-1.5 m -2.7,1.5 5.3,0 m -5.3,-1.5 5.3,0 m -1.9,1.5 0,-1.5 m -2.7,1.5 5.3,0 m -5.3,-1.5 5.3,0 m -1.9,1.5 0,-1.5 m -2.7,1.5 5.3,0 m -5.3,-1.5 5.3,0 m -1.9,1.5 0,-1.5 m -2.7,1.5 5.3,0 m -5.3,-1.5 5.3,0 m -1.9,1.5 0,-1.5 m -2.7,1.5 5.3,0 m -5.3,-1.5 5.3,0 m -1.9,1.5 0,-1.5 m -2.7,1.5 5.3,0 m -5.3,-1.5 5.3,0 m -1.9,1.5 0,-1.5 m -2.7,1.5 5.3,0 m -5.3,-1.5 5.3,0 m -1.8,1.5 0,-1.5 m -2.7,1.5 5.3,0 m -5.3,-1.5 5.3,0 m -1.9,1.5 0,-1.5 m -2.7,1.5 5.3,0 m -5.3,-1.5 5.3,0 m -1.9,1.5 0,-1.5 m -2.7,1.5 5.3,0 m -5.3,-1.5 5.3,0 m -1.9,1.5 0,-1.5 m -2.7,1.5 5.3,0 m -5.3,-1.5 5.3,0 m -1.9,1.5 0,-1.5 m -2.7,1.5 5.3,0 m -5.3,-1.5 5.3,0 m -1.9,1.5 0,-1.5 m -2.7,1.5 5.3,0 m -5.3,-1.5 5.3,0 m -1.9,1.5 0,-1.5 m -2.7,1.5 5.3,0 m -5.3,-1.5 5.3,0 m -1.9,1.5 0,-1.5 m -2.7,1.5 5.3,0 m -5.3,-1.5 5.3,0 m -1.9,1.5 0,-1.5 m -2.7,1.5 5.3,0 m -5.3,-1.5 5.3,0 m -1.9,1.5 0,-1.5"
           id="path276"
           inkscape:connector-curvature="0"
           style="stroke:#dd181f" />
        <path
           d="m 617,384.2 5.3,0 m -5.3,-1.5 5.3,0 m -1.8,1.5 0,-1.5 m -2.7,1.5 5.3,0 m -5.3,-1.5 5.3,0 m -1.9,1.5 0,-1.5 m -2.7,1.5 5.3,0 m -5.3,-1.5 5.3,0 m -1.9,1.5 0,-1.5 m -2.7,1.5 5.3,0 m -5.3,-1.5 5.3,0 m -1.9,1.5 0,-1.5 m -2.7,1.5 5.3,0 m -5.3,-1.5 5.3,0 m -1.9,1.5 0,-1.5 m -2.7,1.5 5.3,0 m -5.3,-1.5 5.3,0 m -1.9,1.5 0,-1.5 m -2.7,1.5 5.3,0 m -5.3,-1.5 5.3,0 m -1.9,1.5 0,-1.5 m -2.7,1.5 5.3,0 m -5.3,-1.5 5.3,0 m -1.9,1.5 0,-1.5 m -2.7,1.5 5.3,0 m -5.3,-1.5 5.3,0 m -1.9,1.5 0,-1.5 m -2.7,1.5 5.3,0 m -5.3,-1.5 5.3,0 m -1.9,1.5 0,-1.5 m -2.7,1.5 5.3,0 m -5.3,-1.5 5.3,0 m -1.8,1.5 0,-1.5 m -2.7,1.5 5.3,0 m -5.3,-1.5 5.3,0 m -1.9,1.5 0,-1.5 m -2.7,1.5 5.3,0 m -5.3,-1.5 5.3,0 m -1.9,1.5 0,-1.5 m -2.7,1.5 5.3,0 m -5.3,-1.5 5.3,0 m -1.9,1.5 0,-1.5 m -2.7,1.5 5.3,0 m -5.3,-1.5 5.3,0 m -1.9,1.5 0,-1.5 m -2.7,1.5 5.3,0 m -5.3,-1.5 5.3,0 m -1.9,1.5 0,-1.5 m -2.7,1.5 5.3,0 m -5.3,-1.5 5.3,0 m -1.9,1.5 0,-1.5 m -2.7,1.5 5.3,0 m -5.3,-1.5 5.3,0 m -1.9,4.2 0,-1.5 m -2.7,1.5 5.3,0 m -5.3,-1.5 5.3,0 m -1.9,1.5 0,-1.5 m -2.7,1.5 5.3,0 m -5.3,-1.5 5.3,0 m -1.9,1.5 0,-1.5 m -2.7,1.5 5.3,0 m -5.3,-1.5 5.3,0 m -1.8,1.5 0,-1.5 m -2.7,1.5 5.3,0 m -5.3,-1.5 5.3,0 m -1.9,1.5 0,-1.5 m -2.7,1.5 5.3,0 m -5.3,-1.5 5.3,0 m -1.9,1.5 0,-1.5 m -2.7,1.5 5.3,0 m -5.3,-1.5 5.3,0 m -1.9,1.5 0,-1.5 m -2.7,1.5 5.3,0 m -5.3,-1.5 5.3,0 m -1.9,1.5 0,-1.5 m -2.7,1.5 5.3,0 m -5.3,-1.5 5.3,0 m -1.9,1.5 0,-1.5 m -2.7,1.5 5.3,0 m -5.3,-1.5 5.3,0 m -1.9,1.5 0,-1.5 m -2.7,1.5 5.3,0 m -5.3,-1.5 5.3,0 m -1.9,1.5 0,-1.5 m -2.7,1.5 5.3,0 m -5.3,-1.5 5.3,0 m -1.9,1.5 0,-1.5 m -2.7,1.5 5.3,0 m -5.3,-1.5 5.3,0 m -1.9,1.5 0,-1.5 m -2.7,1.5 5.3,0 m -5.3,-1.5 5.3,0 m -1.8,1.5 0,-1.5 m -2.7,1.5 5.3,0 m -5.3,-1.5 5.3,0 m -1.9,1.5 0,-1.5 m -2.7,1.5 5.3,0 m -5.3,-1.5 5.3,0 m -1.9,1.5 0,-1.5 m -2.7,1.5 5.3,0 m -5.3,-1.5 5.3,0 m -1.9,4.1 0,-1.5 m -2.7,1.5 5.3,0 m -5.3,-1.5 5.3,0 m -1.9,-1.1 0,-1.5 m -2.7,1.5 5.3,0 m -5.3,-1.5 5.3,0 m -1.9,4.1 0,-1.5 m -2.7,1.5 5.3,0 m -5.3,-1.5 5.3,0 m -1.9,1.5 0,-1.5 m -2.7,1.5 5.3,0 m -5.3,-1.5 5.3,0 m -1.9,1.5 0,-1.5 m -2.7,1.5 5.3,0 m -5.3,-1.5 5.3,0 m -1.9,1.5 0,-1.5 m -2.7,1.5 5.3,0 m -5.3,-1.5 5.3,0 m -1.9,1.5 0,-1.5 m -2.7,1.5 5.3,0 m -5.3,-1.5 5.3,0 m -1.8,1.5 0,-1.5 m -2.7,1.5 5.3,0 m -5.3,-1.5 5.3,0 m -1.9,1.5 0,-1.5 m -2.7,1.5 5.3,0 m -5.3,-1.5 5.3,0 m -1.9,1.5 0,-1.5 m -2.7,1.5 5.3,0 m -5.3,-1.5 5.3,0 m -1.9,1.5 0,-1.5 m -2.7,1.5 5.3,0 m -5.3,-1.5 5.3,0 m -1.9,4.2 0,-1.5 m -2.7,1.5 5.3,0 m -5.3,-1.5 5.3,0 m -1.9,1.5 0,-1.5 m -2.7,1.5 5.3,0 m -5.3,-1.5 5.3,0 m -1.9,1.5 0,-1.5 m -2.7,1.5 5.3,0 m -5.3,-1.5 5.3,0 m -1.9,1.5 0,-1.5 m -2.7,1.5 5.3,0 m -5.3,-1.5 5.3,0 m -1.9,4.2 0,-1.6 m -2.7,1.6 5.3,0 m -5.3,-1.6 5.3,0 m -1.9,1.6 0,-1.6 m -2.7,1.6 5.3,0 m -5.3,-1.6 5.3,0 m -1.8,1.6 0,-1.6 m -2.7,1.6 5.3,0 m -5.3,-1.6 5.3,0 m -1.9,4.2 0,-1.5 m -2.7,1.5 5.3,0 m -5.3,-1.5 5.3,0 m -1.9,1.5 0,-1.5 m -2.7,1.5 5.3,0 m -5.3,-1.5 5.3,0 m -1.9,1.5 0,-1.5 m -2.7,1.5 5.3,0 m -5.3,-1.5 5.3,0 m -1.9,1.5 0,-1.5 m -2.7,1.5 5.3,0 m -5.3,-1.5 5.3,0 m -1.9,1.5 0,-1.5 m -2.7,1.5 5.3,0 m -5.3,-1.5 5.3,0 m -1.9,1.5 0,-1.5 m -2.7,1.5 5.3,0 m -5.3,-1.5 5.3,0 m -1.9,1.5 0,-1.5 m -2.7,1.5 5.3,0 m -5.3,-1.5 5.3,0 m -1.9,1.5 0,-1.5 m -2.7,1.5 5.3,0 m -5.3,-1.5 5.3,0 m -1.9,1.5 0,-1.5 m -2.7,1.5 5.3,0 m -5.3,-1.5 5.3,0 m -1.8,1.5 0,-1.5 m -2.7,1.5 5.3,0 m -5.3,-1.5 5.3,0 m -1.9,4.2 0,-1.6 m -2.7,1.6 5.3,0 m -5.3,-1.6 5.3,0 m -1.9,1.6 0,-1.6 m -2.7,1.6 5.3,0 m -5.3,-1.6 5.3,0 m -1.9,1.6 0,-1.6 m -2.7,1.6 5.3,0 m -5.3,-1.6 5.3,0 m -1.9,1.6 0,-1.6 m -2.7,1.6 5.3,0 m -5.3,-1.6 5.3,0 m -1.9,1.6 0,-1.6 m -2.7,1.6 5.3,0 m -5.3,-1.6 5.3,0 m -1.9,4.2 0,-1.5 m -2.7,1.5 5.3,0 m -5.3,-1.5 5.3,0 m -1.9,1.5 0,-1.5 m -2.7,1.5 5.3,0 m -5.3,-1.5 5.3,0 m -1.9,1.5 0,-1.5 m -2.7,1.5 5.3,0 m -5.3,-1.5 5.3,0 m -1.9,-1.1 0,-1.6 m -2.7,1.6 5.3,0 m -5.3,-1.6 5.3,0 m -1.8,1.6 0,-1.6 m -2.7,1.6 5.3,0 m -5.3,-1.6 5.3,0 m -1.9,1.6 0,-1.6 m -2.7,1.6 5.3,0 m -5.3,-1.6 5.3,0 m -1.9,1.6 0,-1.6 m -2.7,1.6 5.3,0 m -5.3,-1.6 5.3,0 m -1.9,1.6 0,-1.6 m -2.7,1.6 5.3,0 m -5.3,-1.6 5.3,0 m -1.9,1.6 0,-1.6 m -2.7,1.6 5.3,0 m -5.3,-1.6 5.3,0 m -1.9,1.6 0,-1.6 m -2.7,1.6 5.3,0 m -5.3,-1.6 5.3,0 m -1.9,1.6 0,-1.6 m -2.7,1.6 5.3,0 m -5.3,-1.6 5.3,0 m -1.9,1.6 0,-1.6 m -2.7,1.6 5.3,0 m -5.3,-1.6 5.3,0 m -1.9,1.6 0,-1.6 m -2.7,1.6 5.3,0 m -5.3,-1.6 5.3,0 m -1.9,1.6 0,-1.6 m -2.7,1.6 5.3,0 m -5.3,-1.6 5.3,0 m -1.8,1.6 0,-1.6 m -2.7,1.6 5.3,0 m -5.3,-1.6 5.3,0 m -1.9,1.6 0,-1.6 m -2.7,1.6 5.3,0 m -5.3,-1.6 5.3,0 m -1.9,4.2 0,-1.5 m -2.7,1.5 5.3,0 m -5.3,-1.5 5.3,0 m -1.9,1.5 0,-1.5 m -2.7,1.5 5.3,0 m -5.3,-1.5 5.3,0 m -1.9,1.5 0,-1.5 m -2.7,1.5 5.3,0 m -5.3,-1.5 5.3,0"
           id="path278"
           inkscape:connector-curvature="0"
           style="stroke:#dd181f" />
        <path
           d="m 680.8,402.8 0,-1.5 m -2.7,1.5 5.3,0 m -5.3,-1.5 5.3,0 m -1.9,1.5 0,-1.5 m -2.7,1.5 5.3,0 m -5.3,-1.5 5.3,0 m -1.9,1.5 0,-1.5 m -2.7,1.5 5.3,0 m -5.3,-1.5 5.3,0 m -1.9,1.5 0,-1.5 m -2.7,1.5 5.3,0 m -5.3,-1.5 5.3,0 m -1.9,1.5 0,-1.5 m -2.7,1.5 5.3,0 m -5.3,-1.5 5.3,0 m -1.8,1.5 0,-1.5 m -2.7,1.5 5.3,0 m -5.3,-1.5 5.3,0 m -1.9,4.2 0,-1.6 m -2.7,1.6 5.3,0 m -5.3,-1.6 5.3,0 m -1.9,-1.1 0,-1.5 m -2.7,1.5 5.3,0 m -5.3,-1.5 5.3,0 m -1.9,1.5 0,-1.5 m -2.7,1.5 5.3,0 m -5.3,-1.5 5.3,0 m -1.9,4.2 0,-1.6 m -2.7,1.6 5.3,0 m -5.3,-1.6 5.3,0 m -1.9,1.6 0,-1.6 m -2.7,1.6 5.3,0 m -5.3,-1.6 5.3,0 m -1.9,1.6 0,-1.6 m -2.7,1.6 5.3,0 m -5.3,-1.6 5.3,0 m -1.9,1.6 0,-1.6 m -2.7,1.6 5.3,0 m -5.3,-1.6 5.3,0 m -1.9,1.6 0,-1.6 m -2.7,1.6 5.3,0 m -5.3,-1.6 5.3,0 m -1.9,1.6 0,-1.6 m -2.7,1.6 5.3,0 m -5.3,-1.6 5.3,0 m -1.8,1.6 0,-1.6 m -2.7,1.6 5.3,0 m -5.3,-1.6 5.3,0 m -1.9,1.6 0,-1.6 m -2.7,1.6 5.3,0 m -5.3,-1.6 5.3,0 m -1.9,1.6 0,-1.6 m -2.7,1.6 5.3,0 m -5.3,-1.6 5.3,0 m -1.9,-1.1 0,-1.5 m -2.7,1.5 5.3,0 m -5.3,-1.5 5.3,0 m -1.9,4.2 0,-1.6 m -2.7,1.6 5.3,0 m -5.3,-1.6 5.3,0 m -1.9,-1.1 0,-1.5 m -2.7,1.5 5.3,0 m -5.3,-1.5 5.3,0 m -1.9,1.5 0,-1.5 m -2.7,1.5 5.3,0 m -5.3,-1.5 5.3,0 m -1.9,1.5 0,-1.5 m -2.7,1.5 5.3,0 m -5.3,-1.5 5.3,0 m -1.9,1.5 0,-1.5 m -2.7,1.5 5.3,0 m -5.3,-1.5 5.3,0 m -1.9,1.5 0,-1.5 m -2.7,1.5 5.3,0 m -5.3,-1.5 5.3,0 m -1.8,1.5 0,-1.5 m -2.7,1.5 5.3,0 m -5.3,-1.5 5.3,0 m -1.9,1.5 0,-1.5 m -2.7,1.5 5.3,0 m -5.3,-1.5 5.3,0 m -1.9,1.5 0,-1.5 m -2.7,1.5 5.3,0 m -5.3,-1.5 5.3,0 m -1.9,1.5 0,-1.5 m -2.7,1.5 5.3,0 m -5.3,-1.5 5.3,0 m -1.9,1.5 0,-1.5 m -2.7,1.5 5.3,0 m -5.3,-1.5 5.3,0 m -1.9,4.2 0,-1.6 m -2.7,1.6 5.3,0 m -5.3,-1.6 5.3,0 m -1.9,1.6 0,-1.6 m -2.7,1.6 5.3,0 m -5.3,-1.6 5.3,0 m -1.9,1.6 0,-1.6 m -2.7,1.6 5.3,0 m -5.3,-1.6 5.3,0 m -1.9,1.6 0,-1.6 m -2.7,1.6 5.3,0 m -5.3,-1.6 5.3,0 m -1.9,1.6 0,-1.6 m -2.7,1.6 5.3,0 m -5.3,-1.6 5.3,0 m -1.8,1.6 0,-1.6 m -2.7,1.6 5.3,0 m -5.3,-1.6 5.3,0 m -1.9,1.6 0,-1.6 m -2.7,1.6 5.3,0 m -5.3,-1.6 5.3,0 m -1.9,1.6 0,-1.6 m -2.7,1.6 5.3,0 m -5.3,-1.6 5.3,0 m -1.9,1.6 0,-1.6 m -2.7,1.6 5.3,0 m -5.3,-1.6 5.3,0 m -1.9,1.6 0,-1.6 m -2.7,1.6 5.3,0 m -5.3,-1.6 5.3,0 m -1.9,1.6 0,-1.6 m -2.7,1.6 5.3,0 m -5.3,-1.6 5.3,0 m -1.9,4.2 0,-1.5 m -2.7,1.5 5.3,0 m -5.3,-1.5 5.3,0 m -1.9,1.5 0,-1.5 m -2.7,1.5 5.3,0 m -5.3,-1.5 5.3,0 m -1.9,1.5 0,-1.5 m -2.7,1.5 5.3,0 m -5.3,-1.5 5.3,0 m -1.9,1.5 0,-1.5 m -2.7,1.5 5.3,0 m -5.3,-1.5 5.3,0 m -1.8,1.5 0,-1.5 m -2.7,1.5 5.3,0 m -5.3,-1.5 5.3,0 m -1.9,1.5 0,-1.5 m -2.7,1.5 5.3,0 m -5.3,-1.5 5.3,0 m -1.9,1.5 0,-1.5 m -2.7,1.5 5.3,0 m -5.3,-1.5 5.3,0 m -1.9,4.2 0,-1.6 m -2.7,1.6 5.3,0 m -5.3,-1.6 5.3,0 m -1.9,1.6 0,-1.6 m -2.7,1.6 5.3,0 m -5.3,-1.6 5.3,0 m -1.9,1.6 0,-1.6 m -2.7,1.6 5.3,0 m -5.3,-1.6 5.3,0 m -1.9,1.6 0,-1.6 m -2.7,1.6 5.3,0 m -5.3,-1.6 5.3,0 m -1.9,1.6 0,-1.6 m -2.7,1.6 5.3,0 m -5.3,-1.6 5.3,0 m -1.9,4.2 0,-1.5 m -2.7,1.5 5.3,0 m -5.3,-1.5 5.3,0 m -1.9,1.5 0,-1.5 m -2.7,1.5 5.3,0 m -5.3,-1.5 5.3,0 m -1.8,1.5 0,-1.5 m -2.7,1.5 5.3,0 m -5.3,-1.5 5.3,0 m -1.9,1.5 0,-1.5 m -2.7,1.5 5.3,0 m -5.3,-1.5 5.3,0 m -1.9,1.5 0,-1.5 m -2.7,1.5 5.3,0 m -5.3,-1.5 5.3,0 m -1.9,1.5 0,-1.5 m -2.7,1.5 5.3,0 m -5.3,-1.5 5.3,0 m -1.9,1.5 0,-1.5 m -2.7,1.5 5.3,0 m -5.3,-1.5 5.3,0 m -1.9,1.5 0,-1.5 m -2.7,1.5 5.3,0 m -5.3,-1.5 5.3,0 m -1.9,1.5 0,-1.5 m -2.7,1.5 5.3,0 m -5.3,-1.5 5.3,0 m -1.9,4.2 0,-1.6 m -2.7,1.6 5.3,0 m -5.3,-1.6 5.3,0 m -1.9,1.6 0,-1.6 m -2.7,1.6 5.3,0 m -5.3,-1.6 5.3,0 m -1.9,1.6 0,-1.6 m -2.7,1.6 5.3,0 m -5.3,-1.6 5.3,0 m -1.8,4.2 0,-1.5 m -2.7,1.5 5.3,0 m -5.3,-1.5 5.3,0 m -1.9,1.5 0,-1.5 m -2.7,1.5 5.3,0 m -5.3,-1.5 5.3,0 m -1.9,1.5 0,-1.5 m -2.7,1.5 5.3,0 m -5.3,-1.5 5.3,0 m -1.9,1.5 0,-1.5 m -2.7,1.5 5.3,0 m -5.3,-1.5 5.3,0 m -1.9,4.2 0,-1.5 m -2.7,1.5 5.3,0 m -5.3,-1.5 5.3,0 m -1.9,1.5 0,-1.5 m -2.7,1.5 5.3,0 m -5.3,-1.5 5.3,0 m -1.9,1.5 0,-1.5 m -2.7,1.5 5.3,0 m -5.3,-1.5 5.3,0 m -1.9,1.5 0,-1.5 m -2.7,1.5 5.3,0 m -5.3,-1.5 5.3,0 m -1.9,1.5 0,-1.5 m -2.7,1.5 5.3,0 m -5.3,-1.5 5.3,0 m -1.9,1.5 0,-1.5 m -2.7,1.5 5.3,0 m -5.3,-1.5 5.3,0 m -1.8,1.5 0,-1.5 m -2.7,1.5 5.3,0 m -5.3,-1.5 5.3,0 m -1.9,1.5 0,-1.5 m -2.7,1.5 5.3,0 m -5.3,-1.5 5.3,0 m -1.9,1.5 0,-1.5 m -2.7,1.5 5.3,0 m -5.3,-1.5 5.3,0 m -1.9,4.1 0,-1.5 m -2.7,1.5 5.3,0 m -5.3,-1.5 5.3,0 m -1.9,1.5 0,-1.5 m -2.7,1.5 5.3,0 m -5.3,-1.5 5.3,0 m -1.9,1.5 0,-1.5 m -2.7,1.5 5.3,0 m -5.3,-1.5 5.3,0 m -1.9,1.5 0,-1.5 m -2.7,1.5 5.3,0 m -5.3,-1.5 5.3,0 m -1.9,1.5 0,-1.5 m -2.7,1.5 5.3,0 m -5.3,-1.5 5.3,0 m -1.9,1.5 0,-1.5 m -2.7,1.5 5.3,0 m -5.3,-1.5 5.3,0 m -1.9,1.5 0,-1.5 m -2.7,1.5 5.3,0 m -5.3,-1.5 5.3,0 m -1.8,1.5 0,-1.5 m -2.7,1.5 5.3,0"
           id="path280"
           inkscape:connector-curvature="0"
           style="stroke:#dd181f" />
        <path
           d="m 738.5,422.5 5.3,0 m -1.9,1.5 0,-1.5 m -2.7,1.5 5.3,0 m -5.3,-1.5 5.3,0 m -1.9,1.5 0,-1.5 m -2.7,1.5 5.3,0 m -5.3,-1.5 5.3,0 m -1.9,1.5 0,-1.5 m -2.7,1.5 5.3,0 m -5.3,-1.5 5.3,0 m -1.9,1.5 0,-1.5 m -2.7,1.5 5.3,0 m -5.3,-1.5 5.3,0 m -1.9,1.5 0,-1.5 m -2.7,1.5 5.3,0 m -5.3,-1.5 5.3,0 m -1.9,1.5 0,-1.5 m -2.7,1.5 5.3,0 m -5.3,-1.5 5.3,0 m -1.9,1.5 0,-1.5 m -2.7,1.5 5.3,0 m -5.3,-1.5 5.3,0 m -1.9,-1.1 0,-1.5 m -2.7,1.5 5.3,0 m -5.3,-1.5 5.3,0 m -1.9,1.5 0,-1.5 m -2.7,1.5 5.3,0 m -5.3,-1.5 5.3,0 m -1.8,1.5 0,-1.5 m -2.7,1.5 5.3,0 m -5.3,-1.5 5.3,0 m -1.9,1.5 0,-1.5 m -2.7,1.5 5.3,0 m -5.3,-1.5 5.3,0 m -1.9,1.5 0,-1.5 m -2.7,1.5 5.3,0 m -5.3,-1.5 5.3,0 m -1.9,1.5 0,-1.5 m -2.7,1.5 5.3,0 m -5.3,-1.5 5.3,0 m -1.9,1.5 0,-1.5 m -2.7,1.5 5.3,0 m -5.3,-1.5 5.3,0 m -1.9,1.5 0,-1.5 m -2.7,1.5 5.3,0 m -5.3,-1.5 5.3,0 m -1.9,1.5 0,-1.5 m -2.7,1.5 5.3,0 m -5.3,-1.5 5.3,0 m -1.9,1.5 0,-1.5 m -2.7,1.5 5.3,0 m -5.3,-1.5 5.3,0 m -1.9,-1.2 0,-1.5 m -2.7,1.5 5.3,0 m -5.3,-1.5 5.3,0 m -1.9,1.5 0,-1.5 m -2.7,1.5 5.3,0 m -5.3,-1.5 5.3,0 m -1.8,1.5 0,-1.5 m -2.7,1.5 5.3,0 m -5.3,-1.5 5.3,0 m -1.9,1.5 0,-1.5 m -2.7,1.5 5.3,0 m -5.3,-1.5 5.3,0 m -1.9,1.5 0,-1.5 m -2.7,1.5 5.3,0 m -5.3,-1.5 5.3,0 m -1.9,-1.1 0,-1.6 m -2.7,1.6 5.3,0 m -5.3,-1.6 5.3,0 m -1.9,1.6 0,-1.6 m -2.7,1.6 5.3,0 m -5.3,-1.6 5.3,0 m -1.9,1.6 0,-1.6 m -2.7,1.6 5.3,0 m -5.3,-1.6 5.3,0 m -1.9,1.6 0,-1.6 m -2.7,1.6 5.3,0 m -5.3,-1.6 5.3,0 m -1.9,1.6 0,-1.6 m -2.7,1.6 5.3,0 m -5.3,-1.6 5.3,0 m -1.9,1.6 0,-1.6 m -2.7,1.6 5.3,0 m -5.3,-1.6 5.3,0 m -1.9,1.6 0,-1.6 m -2.7,1.6 5.3,0 m -5.3,-1.6 5.3,0 m -1.8,1.6 0,-1.6 m -2.7,1.6 5.3,0 m -5.3,-1.6 5.3,0 m -1.9,1.6 0,-1.6 m -2.7,1.6 5.3,0 m -5.3,-1.6 5.3,0 m -1.9,1.6 0,-1.6 m -2.7,1.6 5.3,0 m -5.3,-1.6 5.3,0 m -1.9,1.6 0,-1.6 m -2.7,1.6 5.3,0 m -5.3,-1.6 5.3,0 m -1.9,1.6 0,-1.6 m -2.7,1.6 5.3,0 m -5.3,-1.6 5.3,0 m -1.9,1.6 0,-1.6 m -2.7,1.6 5.3,0 m -5.3,-1.6 5.3,0 m -1.9,1.6 0,-1.6 m -2.7,1.6 5.3,0 m -5.3,-1.6 5.3,0 m -1.9,1.6 0,-1.6 m -2.7,1.6 5.3,0 m -5.3,-1.6 5.3,0 m -1.9,-1.1 0,-1.5 m -2.7,1.5 5.3,0 m -5.3,-1.5 5.3,0 m -1.9,4.2 0,-1.6 m -2.7,1.6 5.3,0 m -5.3,-1.6 5.3,0 m -1.9,1.6 0,-1.6 m -2.7,1.6 5.3,0 m -5.3,-1.6 5.3,0 m -1.8,1.6 0,-1.6 m -2.7,1.6 5.3,0 m -5.3,-1.6 5.3,0 m -1.9,1.6 0,-1.6 m -2.7,1.6 5.3,0 m -5.3,-1.6 5.3,0 m -1.9,1.6 0,-1.6 m -2.7,1.6 5.3,0 m -5.3,-1.6 5.3,0 m -1.9,1.6 0,-1.6 m -2.7,1.6 5.3,0 m -5.3,-1.6 5.3,0 m -1.9,1.6 0,-1.6 m -2.7,1.6 5.3,0 m -5.3,-1.6 5.3,0 m -1.9,1.6 0,-1.6 m -2.7,1.6 5.3,0 m -5.3,-1.6 5.3,0 m -1.9,1.6 0,-1.6 m -2.7,1.6 5.3,0 m -5.3,-1.6 5.3,0 m -1.9,1.6 0,-1.6 m -2.7,1.6 5.3,0 m -5.3,-1.6 5.3,0 m -1.9,1.6 0,-1.6 m -2.7,1.6 5.3,0 m -5.3,-1.6 5.3,0 m -1.8,1.6 0,-1.6 m -2.7,1.6 5.3,0 m -5.3,-1.6 5.3,0 m -1.9,1.6 0,-1.6 m -2.7,1.6 5.3,0 m -5.3,-1.6 5.3,0 m -1.9,1.6 0,-1.6 m -2.7,1.6 5.3,0 m -5.3,-1.6 5.3,0 m -1.9,1.6 0,-1.6 m -2.7,1.6 5.3,0 m -5.3,-1.6 5.3,0 m -1.9,1.6 0,-1.6 m -2.7,1.6 5.3,0 m -5.3,-1.6 5.3,0 m -1.9,4.2 0,-1.5 m -2.7,1.5 5.3,0 m -5.3,-1.5 5.3,0 m -1.9,1.5 0,-1.5 m -2.7,1.5 5.3,0 m -5.3,-1.5 5.3,0 m -1.9,1.5 0,-1.5 m -2.7,1.5 5.3,0 m -5.3,-1.5 5.3,0 m -1.9,1.5 0,-1.5 m -2.7,1.5 5.3,0 m -5.3,-1.5 5.3,0 m -1.9,1.5 0,-1.5 m -2.7,1.5 5.3,0 m -5.3,-1.5 5.3,0 m -1.8,1.5 0,-1.5 m -2.7,1.5 5.3,0 m -5.3,-1.5 5.3,0 m -1.9,4.2 0,-1.5 m -2.7,1.5 5.3,0 m -5.3,-1.5 5.3,0 m -1.9,1.5 0,-1.5 m -2.7,1.5 5.3,0 m -5.3,-1.5 5.3,0 m -1.9,1.5 0,-1.5 m -2.7,1.5 5.3,0 m -5.3,-1.5 5.3,0 m -1.9,1.5 0,-1.5 m -2.7,1.5 5.3,0 m -5.3,-1.5 5.3,0 m -1.9,1.5 0,-1.5 m -2.7,1.5 5.3,0 m -5.3,-1.5 5.3,0 m -1.9,1.5 0,-1.5 m -2.7,1.5 5.3,0 m -5.3,-1.5 5.3,0 m -1.9,1.5 0,-1.5 m -2.7,1.5 5.3,0 m -5.3,-1.5 5.3,0 m -1.9,4.1 0,-1.5 m -2.7,1.5 5.3,0 m -5.3,-1.5 5.3,0 m -1.9,1.5 0,-1.5 m -2.7,1.5 5.3,0 m -5.3,-1.5 5.3,0 m -1.8,1.5 0,-1.5 m -2.7,1.5 5.3,0 m -5.3,-1.5 5.3,0 m -1.9,1.5 0,-1.5 m -2.7,1.5 5.3,0 m -5.3,-1.5 5.3,0 m -1.9,1.5 0,-1.5 m -2.7,1.5 5.3,0 m -5.3,-1.5 5.3,0 m -1.9,1.5 0,-1.5 m -2.7,1.5 5.3,0 m -5.3,-1.5 5.3,0 m -1.9,1.5 0,-1.5 m -2.7,1.5 5.3,0 m -5.3,-1.5 5.3,0 m -1.9,1.5 0,-1.5 m -2.7,1.5 5.3,0 m -5.3,-1.5 5.3,0 m -1.9,1.5 0,-1.5 m -2.7,1.5 5.3,0 m -5.3,-1.5 5.3,0 m -1.9,1.5 0,-1.5 m -2.7,1.5 5.3,0 m -5.3,-1.5 5.3,0 m -1.9,1.5 0,-1.5 m -2.7,1.5 5.3,0 m -5.3,-1.5 5.3,0 m -1.9,1.5 0,-1.5 m -2.7,1.5 5.3,0 m -5.3,-1.5 5.3,0 m -1.8,4.2 0,-1.5 m -2.7,1.5 5.3,0 m -5.3,-1.5 5.3,0 m -1.9,1.5 0,-1.5 m -2.7,1.5 5.3,0 m -5.3,-1.5 5.3,0 m -1.9,1.5 0,-1.5 m -2.7,1.5 5.3,0 m -5.3,-1.5 5.3,0 m -1.9,1.5 0,-1.5 m -2.7,1.5 5.3,0 m -5.3,-1.5 5.3,0 m -1.9,1.5 0,-1.5 m -2.7,1.5 5.3,0 m -5.3,-1.5 5.3,0 m -1.9,4.1 0,-1.5 m -2.7,1.5 5.3,0 m -5.3,-1.5 5.3,0 m -1.9,1.5 0,-1.5"
           id="path282"
           inkscape:connector-curvature="0"
           style="stroke:#dd181f" />
        <path
           d="m 799.5,429.3 5.3,0 m -5.3,-1.5 5.3,0 m -1.9,1.5 0,-1.5 m -2.7,1.5 5.3,0 m -5.3,-1.5 5.3,0 m -1.9,1.5 0,-1.5 m -2.7,1.5 5.3,0 m -5.3,-1.5 5.3,0 m -1.9,1.5 0,-1.5 m -2.7,1.5 5.3,0 m -5.3,-1.5 5.3,0 m -1.8,1.5 0,-1.5 m -2.7,1.5 5.3,0 m -5.3,-1.5 5.3,0 m -1.9,1.5 0,-1.5 m -2.7,1.5 5.3,0 m -5.3,-1.5 5.3,0 m -1.9,1.5 0,-1.5 m -2.7,1.5 5.3,0 m -5.3,-1.5 5.3,0 m -1.9,1.5 0,-1.5 m -2.7,1.5 5.3,0 m -5.3,-1.5 5.3,0 m -1.9,1.5 0,-1.5 m -2.7,1.5 5.3,0 m -5.3,-1.5 5.3,0 m -1.9,1.5 0,-1.5 m -2.7,1.5 5.3,0 m -5.3,-1.5 5.3,0 m -1.9,1.5 0,-1.5 m -2.7,1.5 5.3,0 m -5.3,-1.5 5.3,0 m -1.9,1.5 0,-1.5 m -2.7,1.5 5.3,0 m -5.3,-1.5 5.3,0 m -1.9,1.5 0,-1.5 m -2.7,1.5 5.3,0 m -5.3,-1.5 5.3,0 m -1.9,4.2 0,-1.5 m -2.7,1.5 5.3,0 m -5.3,-1.5 5.3,0 m -1.8,1.5 0,-1.5 m -2.7,1.5 5.3,0 m -5.3,-1.5 5.3,0 m -1.9,1.5 0,-1.5 m -2.7,1.5 5.3,0 m -5.3,-1.5 5.3,0 m -1.9,1.5 0,-1.5 m -2.7,1.5 5.3,0 m -5.3,-1.5 5.3,0 m -1.9,1.5 0,-1.5 m -2.7,1.5 5.3,0 m -5.3,-1.5 5.3,0 m -1.9,1.5 0,-1.5 m -2.7,1.5 5.3,0 m -5.3,-1.5 5.3,0 m -1.9,1.5 0,-1.5 m -2.7,1.5 5.3,0 m -5.3,-1.5 5.3,0 m -1.9,1.5 0,-1.5 m -2.7,1.5 5.3,0 m -5.3,-1.5 5.3,0 m -1.9,1.5 0,-1.5 m -2.7,1.5 5.3,0 m -5.3,-1.5 5.3,0 m -1.9,-1.2 0,-1.5 m -2.7,1.5 5.3,0 m -5.3,-1.5 5.3,0 m -1.9,1.5 0,-1.5 m -2.7,1.5 5.3,0 m -5.3,-1.5 5.3,0 m -1.8,1.5 0,-1.5 m -2.7,1.5 5.3,0 m -5.3,-1.5 5.3,0 m -1.9,1.5 0,-1.5 m -2.7,1.5 5.3,0 m -5.3,-1.5 5.3,0 m -1.9,1.5 0,-1.5 m -2.7,1.5 5.3,0 m -5.3,-1.5 5.3,0 m -1.9,1.5 0,-1.5 m -2.7,1.5 5.3,0 m -5.3,-1.5 5.3,0 m -1.9,1.5 0,-1.5 m -2.7,1.5 5.3,0 m -5.3,-1.5 5.3,0 m -1.9,1.5 0,-1.5 m -2.7,1.5 5.3,0 m -5.3,-1.5 5.3,0 m -1.9,1.5 0,-1.5 m -2.7,1.5 5.3,0 m -5.3,-1.5 5.3,0 m -1.9,1.5 0,-1.5 m -2.7,1.5 5.3,0 m -5.3,-1.5 5.3,0 m -1.9,1.5 0,-1.5 m -2.7,1.5 5.3,0 m -5.3,-1.5 5.3,0 m -1.9,1.5 0,-1.5 m -2.7,1.5 5.3,0 m -5.3,-1.5 5.3,0 m -1.8,1.5 0,-1.5 m -2.7,1.5 5.3,0 m -5.3,-1.5 5.3,0 m -1.9,-1.1 0,-1.5 m -2.7,1.5 5.3,0 m -5.3,-1.5 5.3,0 m -1.9,1.5 0,-1.5 m -2.7,1.5 5.3,0 m -5.3,-1.5 5.3,0 m -1.9,1.5 0,-1.5 m -2.7,1.5 5.3,0 m -5.3,-1.5 5.3,0 m -1.9,1.5 0,-1.5 m -2.7,1.5 5.3,0 m -5.3,-1.5 5.3,0 m -1.9,1.5 0,-1.5 m -2.7,1.5 5.3,0 m -5.3,-1.5 5.3,0 m -1.9,1.5 0,-1.5 m -2.7,1.5 5.3,0 m -5.3,-1.5 5.3,0 m -1.9,1.5 0,-1.5 m -2.7,1.5 5.3,0 m -5.3,-1.5 5.3,0 m -1.9,1.5 0,-1.5 m -2.7,1.5 5.3,0 m -5.3,-1.5 5.3,0 m -1.9,1.5 0,-1.5 m -2.7,1.5 5.3,0 m -5.3,-1.5 5.3,0 m -1.8,1.5 0,-1.5 m -2.7,1.5 5.3,0 m -5.3,-1.5 5.3,0 m -1.9,1.5 0,-1.5 m -2.7,1.5 5.3,0 m -5.3,-1.5 5.3,0 m -1.9,1.5 0,-1.5 m -2.7,1.5 5.3,0 m -5.3,-1.5 5.3,0 m -1.9,1.5 0,-1.5 m -2.7,1.5 5.3,0 m -5.3,-1.5 5.3,0 m -1.9,4.1 0,-1.5 m -2.7,1.5 5.3,0 m -5.3,-1.5 5.3,0 m -1.9,-1.1 0,-1.5 m -2.7,1.5 5.3,0 m -5.3,-1.5 5.3,0 m -1.9,4.1 0,-1.5 m -2.7,1.5 5.3,0 m -5.3,-1.5 5.3,0 m -1.9,-1.1 0,-1.5 m -2.7,1.5 5.3,0 m -5.3,-1.5 5.3,0 m -1.9,1.5 0,-1.5 m -2.7,1.5 5.3,0 m -5.3,-1.5 5.3,0 m -1.9,1.5 0,-1.5 m -2.7,1.5 5.3,0 m -5.3,-1.5 5.3,0 m -1.8,1.5 0,-1.5 m -2.7,1.5 5.3,0 m -5.3,-1.5 5.3,0 m -1.9,4.1 0,-1.5 m -2.7,1.5 5.3,0 m -5.3,-1.5 5.3,0 m -1.9,1.5 0,-1.5 m -2.7,1.5 5.3,0 m -5.3,-1.5 5.3,0 m -1.9,1.5 0,-1.5 m -2.7,1.5 5.3,0 m -5.3,-1.5 5.3,0 m -1.9,1.5 0,-1.5 m -2.7,1.5 5.3,0 m -5.3,-1.5 5.3,0 m -1.9,1.5 0,-1.5 m -2.7,1.5 5.3,0 m -5.3,-1.5 5.3,0 m -1.9,1.5 0,-1.5 m -2.7,1.5 5.3,0 m -5.3,-1.5 5.3,0 m -1.9,1.5 0,-1.5 m -2.7,1.5 5.3,0 m -5.3,-1.5 5.3,0 m -1.9,1.5 0,-1.5 m -2.7,1.5 5.3,0 m -5.3,-1.5 5.3,0 m -1.9,1.5 0,-1.5 m -2.7,1.5 5.3,0 m -5.3,-1.5 5.3,0 m -1.8,1.5 0,-1.5 m -2.7,1.5 5.3,0 m -5.3,-1.5 5.3,0 m -1.9,1.5 0,-1.5 m -2.7,1.5 5.3,0 m -5.3,-1.5 5.3,0 m -1.9,1.5 0,-1.5 m -2.7,1.5 5.3,0 m -5.3,-1.5 5.3,0 m -1.9,4.2 0,-1.5 m -2.7,1.5 5.3,0 m -5.3,-1.5 5.3,0 m -1.9,1.5 0,-1.5 m -2.7,1.5 5.3,0 m -5.3,-1.5 5.3,0 m -1.9,1.5 0,-1.5 m -2.7,1.5 5.3,0 m -5.3,-1.5 5.3,0 m -1.9,1.5 0,-1.5 m -2.7,1.5 5.3,0 m -5.3,-1.5 5.3,0 m -1.9,1.5 0,-1.5 m -2.7,1.5 5.3,0 m -5.3,-1.5 5.3,0 m -1.9,1.5 0,-1.5 m -2.7,1.5 5.3,0 m -5.3,-1.5 5.3,0 m -1.9,1.5 0,-1.5 m -2.7,1.5 5.3,0 m -5.3,-1.5 5.3,0 m -1.8,1.5 0,-1.5 m -2.7,1.5 5.3,0 m -5.3,-1.5 5.3,0 m -1.9,1.5 0,-1.5 m -2.7,1.5 5.3,0 m -5.3,-1.5 5.3,0 m -1.9,1.5 0,-1.5 m -2.7,1.5 5.3,0 m -5.3,-1.5 5.3,0 m -1.9,1.5 0,-1.5 m -2.7,1.5 5.3,0 m -5.3,-1.5 5.3,0 m -1.9,1.5 0,-1.5 m -2.7,1.5 5.3,0 m -5.3,-1.5 5.3,0 m -1.9,1.5 0,-1.5 m -2.7,1.5 5.3,0 m -5.3,-1.5 5.3,0 m -1.9,1.5 0,-1.5 m -2.7,1.5 5.3,0 m -5.3,-1.5 5.3,0 m -1.9,1.5 0,-1.5 m -2.7,1.5 5.3,0 m -5.3,-1.5 5.3,0 m -1.9,1.5 0,-1.5 m -2.7,1.5 5.3,0 m -5.3,-1.5 5.3,0 m -1.9,1.5 0,-1.5 m -2.7,1.5 5.3,0 m -5.3,-1.5 5.3,0 m -1.8,4.1 0,-1.5 m -2.7,1.5 5.3,0 m -5.3,-1.5 5.3,0 m -1.9,1.5 0,-1.5 m -2.7,1.5 5.3,0 m -5.3,-1.5 5.3,0"
           id="path284"
           inkscape:connector-curvature="0"
           style="stroke:#dd181f" />
        <path
           d="m 863.3,434.6 0,-1.5 m -2.7,1.5 5.3,0 m -5.3,-1.5 5.3,0 m -1.9,1.5 0,-1.5 m -2.7,1.5 5.3,0 m -5.3,-1.5 5.3,0 m -1.9,1.5 0,-1.5 m -2.7,1.5 5.3,0 m -5.3,-1.5 5.3,0 m -1.9,1.5 0,-1.5 m -2.7,1.5 5.3,0 m -5.3,-1.5 5.3,0 m -1.9,1.5 0,-1.5 m -2.7,1.5 5.3,0 m -5.3,-1.5 5.3,0 m -1.9,1.5 0,-1.5 m -2.7,1.5 5.3,0 m -5.3,-1.5 5.3,0 m -1.9,1.5 0,-1.5 m -2.7,1.5 5.3,0 m -5.3,-1.5 5.3,0 m -1.9,1.5 0,-1.5 m -2.7,1.5 5.3,0 m -5.3,-1.5 5.3,0 m -1.8,1.5 0,-1.5 m -2.7,1.5 5.3,0 m -5.3,-1.5 5.3,0 m -1.9,1.5 0,-1.5 m -2.7,1.5 5.3,0 m -5.3,-1.5 5.3,0 m -1.9,1.5 0,-1.5 m -2.7,1.5 5.3,0 m -5.3,-1.5 5.3,0 m -1.9,1.5 0,-1.5 m -2.7,1.5 5.3,0 m -5.3,-1.5 5.3,0 m -1.9,1.5 0,-1.5 m -2.7,1.5 5.3,0 m -5.3,-1.5 5.3,0 m -1.9,1.5 0,-1.5 m -2.7,1.5 5.3,0 m -5.3,-1.5 5.3,0 m -1.9,1.5 0,-1.5 m -2.7,1.5 5.3,0 m -5.3,-1.5 5.3,0 m -1.9,1.5 0,-1.5 m -2.7,1.5 5.3,0 m -5.3,-1.5 5.3,0 m -1.9,1.5 0,-1.5 m -2.7,1.5 5.3,0 m -5.3,-1.5 5.3,0 m -1.9,1.5 0,-1.5 m -2.7,1.5 5.3,0 m -5.3,-1.5 5.3,0 m -1.8,1.5 0,-1.5 m -2.7,1.5 5.3,0 m -5.3,-1.5 5.3,0 m -1.9,1.5 0,-1.5 m -2.7,1.5 5.3,0 m -5.3,-1.5 5.3,0 m -1.9,1.5 0,-1.5 m -2.7,1.5 5.3,0 m -5.3,-1.5 5.3,0 m -1.9,1.5 0,-1.5 m -2.7,1.5 5.3,0 m -5.3,-1.5 5.3,0 m -1.9,1.5 0,-1.5 m -2.7,1.5 5.3,0 m -5.3,-1.5 5.3,0 m -1.9,1.5 0,-1.5 m -2.7,1.5 5.3,0 m -5.3,-1.5 5.3,0 m -1.9,1.5 0,-1.5 m -2.7,1.5 5.3,0 m -5.3,-1.5 5.3,0 m -1.9,1.5 0,-1.5 m -2.7,1.5 5.3,0 m -5.3,-1.5 5.3,0 m -1.9,1.5 0,-1.5 m -2.7,1.5 5.3,0 m -5.3,-1.5 5.3,0 m -1.9,1.5 0,-1.5 m -2.7,1.5 5.3,0 m -5.3,-1.5 5.3,0 m -1.8,1.5 0,-1.5 m -2.7,1.5 5.3,0 m -5.3,-1.5 5.3,0 m -1.9,1.5 0,-1.5 m -2.7,1.5 5.3,0 m -5.3,-1.5 5.3,0 m -1.9,-1.1 0,-1.5 m -2.7,1.5 5.3,0 m -5.3,-1.5 5.3,0 m -1.9,1.5 0,-1.5 m -2.7,1.5 5.3,0 m -5.3,-1.5 5.3,0 m -1.9,1.5 0,-1.5 m -2.7,1.5 5.3,0 m -5.3,-1.5 5.3,0 m -1.9,1.5 0,-1.5 m -2.7,1.5 5.3,0 m -5.3,-1.5 5.3,0 m -1.9,1.5 0,-1.5 m -2.7,1.5 5.3,0 m -5.3,-1.5 5.3,0 m -1.9,1.5 0,-1.5 m -2.7,1.5 5.3,0 m -5.3,-1.5 5.3,0 m -1.9,1.5 0,-1.5 m -2.7,1.5 5.3,0 m -5.3,-1.5 5.3,0 m -1.9,1.5 0,-1.5 m -2.7,1.5 5.3,0 m -5.3,-1.5 5.3,0 m -1.8,1.5 0,-1.5 m -2.7,1.5 5.3,0 m -5.3,-1.5 5.3,0 m -1.9,1.5 0,-1.5 m -2.7,1.5 5.3,0 m -5.3,-1.5 5.3,0 m -1.9,1.5 0,-1.5 m -2.7,1.5 5.3,0 m -5.3,-1.5 5.3,0 m -1.9,1.5 0,-1.5 m -2.7,1.5 5.3,0 m -5.3,-1.5 5.3,0 m -1.9,1.5 0,-1.5 m -2.7,1.5 5.3,0 m -5.3,-1.5 5.3,0 m -1.9,1.5 0,-1.5 m -2.7,1.5 5.3,0 m -5.3,-1.5 5.3,0 m -1.9,1.5 0,-1.5 m -2.7,1.5 5.3,0 m -5.3,-1.5 5.3,0 m -1.9,1.5 0,-1.5 m -2.7,1.5 5.3,0 m -5.3,-1.5 5.3,0 m -1.9,1.5 0,-1.5 m -2.7,1.5 5.3,0 m -5.3,-1.5 5.3,0 m -1.9,1.5 0,-1.5 m -2.7,1.5 5.3,0 m -5.3,-1.5 5.3,0 m -1.8,1.5 0,-1.5 m -2.7,1.5 5.3,0 m -5.3,-1.5 5.3,0 m -1.9,1.5 0,-1.5 m -2.7,1.5 5.3,0 m -5.3,-1.5 5.3,0 m -1.9,1.5 0,-1.5 m -2.7,1.5 5.3,0 m -5.3,-1.5 5.3,0 m -1.9,1.5 0,-1.5 m -2.7,1.5 5.3,0 m -5.3,-1.5 5.3,0 m -1.9,1.5 0,-1.5 m -2.7,1.5 5.3,0 m -5.3,-1.5 5.3,0 m -1.9,1.5 0,-1.5 m -2.7,1.5 5.3,0 m -5.3,-1.5 5.3,0 m -1.9,1.5 0,-1.5 m -2.7,1.5 5.3,0 m -5.3,-1.5 5.3,0 m -1.9,1.5 0,-1.5 m -2.7,1.5 5.3,0 m -5.3,-1.5 5.3,0 m -1.9,1.5 0,-1.5 m -2.7,1.5 5.3,0 m -5.3,-1.5 5.3,0 m -1.9,1.5 0,-1.5 m -2.7,1.5 5.3,0 m -5.3,-1.5 5.3,0 m -1.8,1.5 0,-1.5 m -2.7,1.5 5.3,0 m -5.3,-1.5 5.3,0 m -1.9,1.5 0,-1.5 m -2.7,1.5 5.3,0 m -5.3,-1.5 5.3,0 m -1.9,1.5 0,-1.5 m -2.7,1.5 5.3,0 m -5.3,-1.5 5.3,0 m -1.9,1.5 0,-1.5 m -2.7,1.5 5.3,0 m -5.3,-1.5 5.3,0 m -1.9,1.5 0,-1.5 m -2.7,1.5 5.3,0 m -5.3,-1.5 5.3,0 m -1.9,1.5 0,-1.5 m -2.7,1.5 5.3,0 m -5.3,-1.5 5.3,0 m -1.9,4.1 0,-1.5 m -2.7,1.5 5.3,0 m -5.3,-1.5 5.3,0 m -1.9,1.5 0,-1.5 m -2.7,1.5 5.3,0 m -5.3,-1.5 5.3,0 m -1.9,1.5 0,-1.5 m -2.7,1.5 5.3,0 m -5.3,-1.5 5.3,0 m -1.9,1.5 0,-1.5 m -2.7,1.5 5.3,0 m -5.3,-1.5 5.3,0 m -1.8,1.5 0,-1.5 m -2.7,1.5 5.3,0 m -5.3,-1.5 5.3,0 m -1.9,1.5 0,-1.5 m -2.7,1.5 5.3,0 m -5.3,-1.5 5.3,0 m -1.9,1.5 0,-1.5 m -2.7,1.5 5.3,0 m -5.3,-1.5 5.3,0 m -1.9,1.5 0,-1.5 m -2.7,1.5 5.3,0 m -5.3,-1.5 5.3,0 m -1.9,1.5 0,-1.5 m -2.7,1.5 5.3,0 m -5.3,-1.5 5.3,0 m -1.9,1.5 0,-1.5 m -2.7,1.5 5.3,0 m -5.3,-1.5 5.3,0 m -1.9,1.5 0,-1.5 m -2.7,1.5 5.3,0 m -5.3,-1.5 5.3,0 m -1.9,1.5 0,-1.5 m -2.7,1.5 5.3,0 m -5.3,-1.5 5.3,0 m -1.9,1.5 0,-1.5 m -2.7,1.5 5.3,0 m -5.3,-1.5 5.3,0 m -1.9,1.5 0,-1.5 m -2.7,1.5 5.3,0 m -5.3,-1.5 5.3,0 m -1.8,1.5 0,-1.5 m -2.7,1.5 5.3,0 m -5.3,-1.5 5.3,0 m -1.9,1.5 0,-1.5 m -2.7,1.5 5.3,0 m -5.3,-1.5 5.3,0 m -1.9,1.5 0,-1.5 m -2.7,1.5 5.3,0 m -5.3,-1.5 5.3,0 m -1.9,1.5 0,-1.5 m -2.7,1.5 5.3,0 m -5.3,-1.5 5.3,0 m -1.9,1.5 0,-1.5 m -2.7,1.5 5.3,0 m -5.3,-1.5 5.3,0 m -1.9,1.5 0,-1.5 m -2.7,1.5 5.3,0 m -5.3,-1.5 5.3,0 m -1.9,1.5 0,-1.5 m -2.7,1.5 5.3,0 m -5.3,-1.5 5.3,0 m -1.9,1.5 0,-1.5 m -2.7,1.5 5.3,0"
           id="path286"
           inkscape:connector-curvature="0"
           style="stroke:#dd181f" />
        <path
           d="m 920.9,433.1 5.3,0 m -1.9,4.2 0,-1.5 m -2.7,1.5 5.3,0 m -5.3,-1.5 5.3,0 m -1.9,1.5 0,-1.5 m -2.7,1.5 5.3,0 m -5.3,-1.5 5.3,0 m -1.8,1.5 0,-1.5 m -2.7,1.5 5.3,0 m -5.3,-1.5 5.3,0 m -1.9,4.2 0,-1.6 m -2.7,1.6 5.3,0 m -5.3,-1.6 5.3,0 m -1.9,1.6 0,-1.6 m -2.7,1.6 5.3,0 m -5.3,-1.6 5.3,0 m -1.9,1.6 0,-1.6 m -2.7,1.6 5.3,0 m -5.3,-1.6 5.3,0 m -1.9,1.6 0,-1.6 m -2.7,1.6 5.3,0 m -5.3,-1.6 5.3,0 m -1.9,4.2 0,-1.5 m -2.7,1.5 5.3,0 m -5.3,-1.5 5.3,0 m -1.9,1.5 0,-1.5 m -2.7,1.5 5.3,0 m -5.3,-1.5 5.3,0 m -1.9,1.5 0,-1.5 m -2.7,1.5 5.3,0 m -5.3,-1.5 5.3,0 m -1.9,1.5 0,-1.5 m -2.7,1.5 5.3,0 m -5.3,-1.5 5.3,0 m -1.9,1.5 0,-1.5 m -2.7,1.5 5.3,0 m -5.3,-1.5 5.3,0 m -1.8,1.5 0,-1.5 m -2.7,1.5 5.3,0 m -5.3,-1.5 5.3,0 m -1.9,1.5 0,-1.5 m -2.7,1.5 5.3,0 m -5.3,-1.5 5.3,0 m -1.9,1.5 0,-1.5 m -2.7,1.5 5.3,0 m -5.3,-1.5 5.3,0 m -1.9,1.5 0,-1.5 m -2.7,1.5 5.3,0 m -5.3,-1.5 5.3,0 m -1.9,1.5 0,-1.5 m -2.7,1.5 5.3,0 m -5.3,-1.5 5.3,0 m -1.9,1.5 0,-1.5 m -2.7,1.5 5.3,0 m -5.3,-1.5 5.3,0 m -1.9,1.5 0,-1.5 m -2.7,1.5 5.3,0 m -5.3,-1.5 5.3,0 m -1.9,1.5 0,-1.5 m -2.7,1.5 5.3,0 m -5.3,-1.5 5.3,0 m -1.9,1.5 0,-1.5 m -2.7,1.5 5.3,0 m -5.3,-1.5 5.3,0 m -1.9,1.5 0,-1.5 m -2.7,1.5 5.3,0 m -5.3,-1.5 5.3,0 m -1.8,1.5 0,-1.5 m -2.7,1.5 5.3,0 m -5.3,-1.5 5.3,0 m -1.9,1.5 0,-1.5 m -2.7,1.5 5.3,0 m -5.3,-1.5 5.3,0 m -1.9,1.5 0,-1.5 m -2.7,1.5 5.3,0 m -5.3,-1.5 5.3,0 m -1.9,1.5 0,-1.5 m -2.7,1.5 5.3,0 m -5.3,-1.5 5.3,0 m -1.9,1.5 0,-1.5 m -2.7,1.5 5.3,0 m -5.3,-1.5 5.3,0 m -1.9,1.5 0,-1.5 m -2.7,1.5 5.3,0 m -5.3,-1.5 5.3,0 m -1.9,1.5 0,-1.5 m -2.7,1.5 5.3,0 m -5.3,-1.5 5.3,0 m -1.9,1.5 0,-1.5 m -2.7,1.5 5.3,0 m -5.3,-1.5 5.3,0 m -1.9,1.5 0,-1.5 m -2.7,1.5 5.3,0 m -5.3,-1.5 5.3,0 m -1.9,1.5 0,-1.5 m -2.7,1.5 5.3,0 m -5.3,-1.5 5.3,0 m -1.8,1.5 0,-1.5 m -2.7,1.5 5.3,0 m -5.3,-1.5 5.3,0 m -1.9,1.5 0,-1.5 m -2.7,1.5 5.3,0 m -5.3,-1.5 5.3,0 m -1.9,1.5 0,-1.5 m -2.7,1.5 5.3,0 m -5.3,-1.5 5.3,0 m -1.9,1.5 0,-1.5 m -2.7,1.5 5.3,0 m -5.3,-1.5 5.3,0 m -1.9,1.5 0,-1.5 m -2.7,1.5 5.3,0 m -5.3,-1.5 5.3,0 m -1.9,1.5 0,-1.5 m -2.7,1.5 5.3,0 m -5.3,-1.5 5.3,0 m -1.9,1.5 0,-1.5 m -2.7,1.5 5.3,0 m -5.3,-1.5 5.3,0 m -1.9,1.5 0,-1.5 m -2.7,1.5 5.3,0 m -5.3,-1.5 5.3,0 m -1.9,1.5 0,-1.5 m -2.7,1.5 5.3,0 m -5.3,-1.5 5.3,0 m -1.9,1.5 0,-1.5 m -2.7,1.5 5.3,0 m -5.3,-1.5 5.3,0 m -1.8,1.5 0,-1.5 m -2.7,1.5 5.3,0 m -5.3,-1.5 5.3,0 m -1.9,-1.1 0,-1.6 m -2.7,1.6 5.3,0 m -5.3,-1.6 5.3,0 m -1.9,1.6 0,-1.6 m -2.7,1.6 5.3,0 m -5.3,-1.6 5.3,0 m -1.9,1.6 0,-1.6 m -2.7,1.6 5.3,0 m -5.3,-1.6 5.3,0 m -1.9,1.6 0,-1.6 m -2.7,1.6 5.3,0 m -5.3,-1.6 5.3,0 m -1.9,4.2 0,-1.5 m -2.7,1.5 5.3,0 m -5.3,-1.5 5.3,0 m -1.9,1.5 0,-1.5 m -2.7,1.5 5.3,0 m -5.3,-1.5 5.3,0 m -1.9,1.5 0,-1.5 m -2.7,1.5 5.3,0 m -5.3,-1.5 5.3,0 m -1.9,-1.1 0,-1.6 m -2.7,1.6 5.3,0 m -5.3,-1.6 5.3,0 m -1.9,1.6 0,-1.6 m -2.7,1.6 5.3,0 m -5.3,-1.6 5.3,0 m -1.8,1.6 0,-1.6 m -2.7,1.6 5.3,0 m -5.3,-1.6 5.3,0 m -1.9,1.6 0,-1.6 m -2.7,1.6 5.3,0 m -5.3,-1.6 5.3,0 m -1.9,1.6 0,-1.6 m -2.7,1.6 5.3,0 m -5.3,-1.6 5.3,0 m -1.9,1.6 0,-1.6 m -2.7,1.6 5.3,0 m -5.3,-1.6 5.3,0 m -1.9,1.6 0,-1.6 m -2.7,1.6 5.3,0 m -5.3,-1.6 5.3,0 m -1.9,1.6 0,-1.6 m -2.7,1.6 5.3,0 m -5.3,-1.6 5.3,0 m -1.9,1.6 0,-1.6 m -2.7,1.6 5.3,0 m -5.3,-1.6 5.3,0 m -1.9,1.6 0,-1.6 m -2.7,1.6 5.3,0 m -5.3,-1.6 5.3,0 m -1.9,1.6 0,-1.6 m -2.7,1.6 5.3,0 m -5.3,-1.6 5.3,0 m -1.9,1.6 0,-1.6 m -2.7,1.6 5.3,0 m -5.3,-1.6 5.3,0 m -1.8,1.6 0,-1.6 m -2.7,1.6 5.3,0 m -5.3,-1.6 5.3,0 m -1.9,1.6 0,-1.6 m -2.7,1.6 5.3,0 m -5.3,-1.6 5.3,0 m -1.9,1.6 0,-1.6 m -2.7,1.6 5.3,0 m -5.3,-1.6 5.3,0 m -1.9,1.6 0,-1.6 m -2.7,1.6 5.3,0 m -5.3,-1.6 5.3,0 m -1.9,1.6 0,-1.6 m -2.7,1.6 5.3,0 m -5.3,-1.6 5.3,0 m -1.9,1.6 0,-1.6 m -2.7,1.6 5.3,0 m -5.3,-1.6 5.3,0 m -1.9,1.6 0,-1.6 m -2.7,1.6 5.3,0 m -5.3,-1.6 5.3,0 m -1.9,1.6 0,-1.6 m -2.7,1.6 5.3,0 m -5.3,-1.6 5.3,0 m -1.9,1.6 0,-1.6 m -2.7,1.6 5.3,0 m -5.3,-1.6 5.3,0 m -1.9,1.6 0,-1.6 m -2.7,1.6 5.3,0 m -5.3,-1.6 5.3,0 m -1.8,1.6 0,-1.6 m -2.7,1.6 5.3,0 m -5.3,-1.6 5.3,0 m -1.9,1.6 0,-1.6 m -2.7,1.6 5.3,0 m -5.3,-1.6 5.3,0 m -1.9,1.6 0,-1.6 m -2.7,1.6 5.3,0 m -5.3,-1.6 5.3,0 m -1.9,4.2 0,-1.5 m -2.7,1.5 5.3,0 m -5.3,-1.5 5.3,0 m -1.9,1.5 0,-1.5 m -2.7,1.5 5.3,0 m -5.3,-1.5 5.3,0 m -1.9,1.5 0,-1.5 m -2.7,1.5 5.3,0 m -5.3,-1.5 5.3,0 m -1.9,1.5 0,-1.5 m -2.7,1.5 5.3,0 m -5.3,-1.5 5.3,0 m -1.9,1.5 0,-1.5 m -2.7,1.5 5.3,0 m -5.3,-1.5 5.3,0 m -1.9,1.5 0,-1.5 m -2.7,1.5 5.3,0 m -5.3,-1.5 5.3,0 m -1.9,1.5 0,-1.5 m -2.7,1.5 5.3,0 m -5.3,-1.5 5.3,0 m -1.8,1.5 0,-1.5 m -2.7,1.5 5.3,0 m -5.3,-1.5 5.3,0 m -1.9,1.5 0,-1.5 m -2.7,1.5 5.3,0 m -5.3,-1.5 5.3,0 m -1.9,1.5 0,-1.5 m -2.7,1.5 4.8,0 m -4.8,-1.5 4.8,0 m -1.4,1.5 0,-1.5"
           id="path288"
           inkscape:connector-curvature="0"
           style="stroke:#dd181f" />
        <path
           d="m 982,442.6 4.1,0 m -4.1,-1.5 4.1,0 m -0.7,1.5 0,-1.5 m -2.7,1.5 3.4,0 m -3.4,-1.5 3.4,0 m 0,1.5 0,-1.5 m -2.7,1.5 2.7,0 m -2.7,-1.5 2.7,0"
           id="path290"
           inkscape:connector-curvature="0"
           style="stroke:#dd181f" />
        <use
           xlink:href="#gpDot"
           x="928.90002"
           y="52.299999"
           id="use292"
           style="color:#dd181f"
           width="100%"
           height="100%" />
      </g>
    </g>
    <g
       id="g294"
       transform="translate(-17.554286,19.017143)"
       style="color:#ffffff;fill:none;stroke:#dd181f;stroke-width:2;stroke-linecap:butt;stroke-linejoin:miter" />
    <g
       id="g296"
       transform="translate(-17.554286,19.017143)"
       style="color:#000000;fill:none;stroke:currentColor;stroke-width:2;stroke-linecap:butt;stroke-linejoin:miter" />
    <g
       id="g298"
       transform="translate(-17.554286,19.017143)"
       style="color:#000000;fill:none;stroke:#000000;stroke-width:1.5;stroke-linecap:butt;stroke-linejoin:miter" />
    <g
       id="g300"
       transform="translate(-17.554286,19.017143)"
       style="color:#000000;fill:none;stroke:currentColor;stroke-width:1.5;stroke-linecap:butt;stroke-linejoin:miter">
      <path
         d="m 134.1,25.3 0,464.3 852,0 0,-464.3 -852,0 z"
         id="path302"
         inkscape:connector-curvature="0"
         style="stroke:#000000" />
    </g>
    <g
       id="g304"
       transform="translate(-17.554286,19.017143)"
       style="color:#000000;fill:none;stroke:currentColor;stroke-width:1.5;stroke-linecap:butt;stroke-linejoin:miter" />
  </g>
</svg>
