<?xml version="1.0" encoding="UTF-8" standalone="no"?>
<svg
   xmlns:dc="http://purl.org/dc/elements/1.1/"
   xmlns:cc="http://creativecommons.org/ns#"
   xmlns:rdf="http://www.w3.org/1999/02/22-rdf-syntax-ns#"
   xmlns:svg="http://www.w3.org/2000/svg"
   xmlns="http://www.w3.org/2000/svg"
   xmlns:xlink="http://www.w3.org/1999/xlink"
   xmlns:sodipodi="http://sodipodi.sourceforge.net/DTD/sodipodi-0.dtd"
   xmlns:inkscape="http://www.inkscape.org/namespaces/inkscape"
   width="1024"
   height="576"
   viewBox="0 0 1024 576"
   id="svg2"
   version="1.1"
   inkscape:version="0.91 r13725"
   sodipodi:docname="linear_fit.svg"
   inkscape:export-filename="C:\Users\Peter\Documents\Physik\FP2\optischespumpen\tex\graphics\inversetaufit.png"
   inkscape:export-xdpi="168"
   inkscape:export-ydpi="168">
  <metadata
     id="metadata253">
    <rdf:RDF>
      <cc:Work
         rdf:about="">
        <dc:format>image/svg+xml</dc:format>
        <dc:type
           rdf:resource="http://purl.org/dc/dcmitype/StillImage" />
      </cc:Work>
    </rdf:RDF>
  </metadata>
  <defs
     id="defs251" />
  <sodipodi:namedview
     pagecolor="#ffffff"
     bordercolor="#666666"
     borderopacity="1"
     objecttolerance="10"
     gridtolerance="10"
     guidetolerance="10"
     inkscape:pageopacity="0"
     inkscape:pageshadow="2"
     inkscape:window-width="1536"
     inkscape:window-height="841"
     id="namedview249"
     showgrid="false"
     inkscape:zoom="1.3671875"
     inkscape:cx="660.03993"
     inkscape:cy="212.72862"
     inkscape:window-x="-8"
     inkscape:window-y="-8"
     inkscape:window-maximized="1"
     inkscape:current-layer="gnuplot_canvas" />
  <title
     id="title4">Gnuplot</title>
  <desc
     id="desc6">Produced by GNUPLOT 5.0 patchlevel 3 </desc>
  <g
     id="gnuplot_canvas">
    <rect
       x="0"
       y="0"
       width="1024"
       height="576"
       id="rect9"
       fill="none" />
    <defs
       id="defs11">
      <circle
         id="gpDot"
         r="0.5"
         stroke-width="0.5" />
      <path
         id="gpPt0"
         d="M-1,0 h2 M0,-1 v2"
         stroke-width="0.148"
         stroke="currentColor" />
      <path
         id="gpPt1"
         d="M-1,-1 L1,1 M1,-1 L-1,1"
         stroke-width="0.148"
         stroke="currentColor" />
      <path
         id="gpPt2"
         d="M-1,0 L1,0 M0,-1 L0,1 M-1,-1 L1,1 M-1,1 L1,-1"
         stroke-width="0.148"
         stroke="currentColor" />
      <rect
         id="gpPt3"
         x="-1"
         y="-1"
         width="2"
         height="2"
         stroke-width="0.148"
         stroke="currentColor" />
      <rect
         id="gpPt4"
         x="-1"
         y="-1"
         width="2"
         height="2"
         stroke-width="0.148"
         stroke="currentColor"
         fill="currentColor" />
      <circle
         id="gpPt5"
         cx="0"
         cy="0"
         r="1"
         stroke-width="0.148"
         stroke="currentColor" />
      <use
         xlink:href="#gpPt5"
         id="gpPt6"
         stroke="none"
         fill="currentColor" />
      <path
         id="gpPt7"
         d="M0,-1.33 L-1.33,0.67 L1.33,0.67 z"
         stroke-width="0.148"
         stroke="currentColor" />
      <use
         xlink:href="#gpPt7"
         id="gpPt8"
         stroke="none"
         fill="currentColor" />
      <use
         xlink:href="#gpPt7"
         id="gpPt9"
         transform="rotate(180)"
         stroke="currentColor" />
      <use
         xlink:href="#gpPt9"
         id="gpPt10"
         stroke="none"
         fill="currentColor" />
      <use
         xlink:href="#gpPt3"
         id="gpPt11"
         transform="rotate(45)"
         stroke="currentColor" />
      <use
         xlink:href="#gpPt11"
         id="gpPt12"
         stroke="none"
         fill="currentColor" />
      <path
         id="gpPt13"
         d="M0,1.330 L1.265,0.411 L0.782,-1.067 L-0.782,-1.076 L-1.265,0.411 z"
         stroke-width="0.148"
         stroke="currentColor" />
      <use
         xlink:href="#gpPt13"
         id="gpPt14"
         stroke="none"
         fill="currentColor" />
      <filter
         id="textbox"
         filterUnits="objectBoundingBox"
         x="0"
         y="0"
         height="1"
         width="1">
        <feFlood
           flood-color="white"
           flood-opacity="1"
           result="bgnd"
           id="feFlood30" />
        <feComposite
           in="SourceGraphic"
           in2="bgnd"
           operator="atop"
           id="feComposite32" />
      </filter>
      <filter
         id="greybox"
         filterUnits="objectBoundingBox"
         x="0"
         y="0"
         height="1"
         width="1">
        <feFlood
           flood-color="lightgrey"
           flood-opacity="1"
           result="grey"
           id="feFlood35" />
        <feComposite
           in="SourceGraphic"
           in2="grey"
           operator="atop"
           id="feComposite37" />
      </filter>
    </defs>
    <g
       id="g39"
       stroke-linejoin="miter"
       stroke-linecap="butt"
       stroke-width="1.50"
       stroke="black"
       fill="none"
       color="white" />
    <g
       id="g41"
       stroke-linejoin="miter"
       stroke-linecap="butt"
       stroke-width="1.50"
       stroke="currentColor"
       fill="none"
       color="black">
      <path
         d="M121.5,489.6 L135.0,489.6 M986.1,489.6 L972.6,489.6  "
         id="path43"
         stroke="black" />
      <g
         transform="translate(108.9,496.3)"
         font-size="18.00"
         id="g45"
         text-anchor="end"
         font-family="Verdana"
         stroke="none"
         fill="black">
        <text
           id="text47">
          <tspan
             id="tspan49"
             font-family="Verdana"> 0</tspan>
        </text>
      </g>
    </g>
    <g
       id="g51"
       stroke-linejoin="miter"
       stroke-linecap="butt"
       stroke-width="1.50"
       stroke="currentColor"
       fill="none"
       color="black">
      <path
         d="M121.5,412.2 L135.0,412.2 M986.1,412.2 L972.6,412.2  "
         id="path53"
         stroke="black" />
      <g
         transform="translate(108.9,418.9)"
         font-size="18.00"
         id="g55"
         text-anchor="end"
         font-family="Verdana"
         stroke="none"
         fill="black">
        <text
           id="text57">
          <tspan
             id="tspan59"
             font-family="Verdana"> 500</tspan>
        </text>
      </g>
    </g>
    <g
       id="g61"
       stroke-linejoin="miter"
       stroke-linecap="butt"
       stroke-width="1.50"
       stroke="currentColor"
       fill="none"
       color="black">
      <path
         d="M121.5,334.8 L135.0,334.8 M986.1,334.8 L972.6,334.8  "
         id="path63"
         stroke="black" />
      <g
         transform="translate(108.9,341.5)"
         font-size="18.00"
         id="g65"
         text-anchor="end"
         font-family="Verdana"
         stroke="none"
         fill="black">
        <text
           id="text67">
          <tspan
             id="tspan69"
             font-family="Verdana"> 1000</tspan>
        </text>
      </g>
    </g>
    <g
       id="g71"
       stroke-linejoin="miter"
       stroke-linecap="butt"
       stroke-width="1.50"
       stroke="currentColor"
       fill="none"
       color="black">
      <path
         d="M121.5,257.4 L135.0,257.4 M986.1,257.4 L972.6,257.4  "
         id="path73"
         stroke="black" />
      <g
         transform="translate(108.9,264.1)"
         font-size="18.00"
         id="g75"
         text-anchor="end"
         font-family="Verdana"
         stroke="none"
         fill="black">
        <text
           id="text77">
          <tspan
             id="tspan79"
             font-family="Verdana"> 1500</tspan>
        </text>
      </g>
    </g>
    <g
       id="g81"
       stroke-linejoin="miter"
       stroke-linecap="butt"
       stroke-width="1.50"
       stroke="currentColor"
       fill="none"
       color="black">
      <path
         d="M121.5,180.1 L135.0,180.1 M986.1,180.1 L972.6,180.1  "
         id="path83"
         stroke="black" />
      <g
         transform="translate(108.9,186.8)"
         font-size="18.00"
         id="g85"
         text-anchor="end"
         font-family="Verdana"
         stroke="none"
         fill="black">
        <text
           id="text87">
          <tspan
             id="tspan89"
             font-family="Verdana"> 2000</tspan>
        </text>
      </g>
    </g>
    <g
       id="g91"
       stroke-linejoin="miter"
       stroke-linecap="butt"
       stroke-width="1.50"
       stroke="currentColor"
       fill="none"
       color="black">
      <path
         d="M121.5,102.7 L135.0,102.7 M986.1,102.7 L972.6,102.7  "
         id="path93"
         stroke="black" />
      <g
         transform="translate(108.9,109.4)"
         font-size="18.00"
         id="g95"
         text-anchor="end"
         font-family="Verdana"
         stroke="none"
         fill="black">
        <text
           id="text97">
          <tspan
             id="tspan99"
             font-family="Verdana"> 2500</tspan>
        </text>
      </g>
    </g>
    <g
       id="g101"
       stroke-linejoin="miter"
       stroke-linecap="butt"
       stroke-width="1.50"
       stroke="currentColor"
       fill="none"
       color="black">
      <path
         d="M121.5,25.3 L135.0,25.3 M986.1,25.3 L972.6,25.3  "
         id="path103"
         stroke="black" />
      <g
         transform="translate(108.9,32.0)"
         font-size="18.00"
         id="g105"
         text-anchor="end"
         font-family="Verdana"
         stroke="none"
         fill="black">
        <text
           id="text107">
          <tspan
             id="tspan109"
             font-family="Verdana"> 3000</tspan>
        </text>
      </g>
    </g>
    <g
       id="g111"
       stroke-linejoin="miter"
       stroke-linecap="butt"
       stroke-width="1.50"
       stroke="currentColor"
       fill="none"
       color="black">
      <path
         d="M121.5,489.6 L121.5,476.1 M121.5,25.3 L121.5,38.8  "
         id="path113"
         stroke="black" />
      <g
         transform="translate(121.5,523.3)"
         font-size="18.00"
         id="g115"
         text-anchor="middle"
         font-family="Verdana"
         stroke="none"
         fill="black">
        <text
           id="text117">
          <tspan
             id="tspan119"
             font-family="Verdana"> 0</tspan>
        </text>
      </g>
    </g>
    <g
       id="g121"
       stroke-linejoin="miter"
       stroke-linecap="butt"
       stroke-width="1.50"
       stroke="currentColor"
       fill="none"
       color="black">
      <path
         d="M278.7,489.6 L278.7,476.1 M278.7,25.3 L278.7,38.8  "
         id="path123"
         stroke="black" />
      <g
         transform="translate(278.7,523.3)"
         font-size="18.00"
         id="g125"
         text-anchor="middle"
         font-family="Verdana"
         stroke="none"
         fill="black">
        <text
           id="text127">
          <tspan
             id="tspan129"
             font-family="Verdana"> 0.2</tspan>
        </text>
      </g>
    </g>
    <g
       id="g131"
       stroke-linejoin="miter"
       stroke-linecap="butt"
       stroke-width="1.50"
       stroke="currentColor"
       fill="none"
       color="black">
      <path
         d="M435.9,489.6 L435.9,476.1 M435.9,25.3 L435.9,38.8  "
         id="path133"
         stroke="black" />
      <g
         transform="translate(435.9,523.3)"
         font-size="18.00"
         id="g135"
         text-anchor="middle"
         font-family="Verdana"
         stroke="none"
         fill="black">
        <text
           id="text137">
          <tspan
             id="tspan139"
             font-family="Verdana"> 0.4</tspan>
        </text>
      </g>
    </g>
    <g
       id="g141"
       stroke-linejoin="miter"
       stroke-linecap="butt"
       stroke-width="1.50"
       stroke="currentColor"
       fill="none"
       color="black">
      <path
         d="M593.1,489.6 L593.1,476.1 M593.1,25.3 L593.1,38.8  "
         id="path143"
         stroke="black" />
      <g
         transform="translate(593.1,523.3)"
         font-size="18.00"
         id="g145"
         text-anchor="middle"
         font-family="Verdana"
         stroke="none"
         fill="black">
        <text
           id="text147">
          <tspan
             id="tspan149"
             font-family="Verdana"> 0.6</tspan>
        </text>
      </g>
    </g>
    <g
       id="g151"
       stroke-linejoin="miter"
       stroke-linecap="butt"
       stroke-width="1.50"
       stroke="currentColor"
       fill="none"
       color="black">
      <path
         d="M750.3,489.6 L750.3,476.1 M750.3,25.3 L750.3,38.8  "
         id="path153"
         stroke="black" />
      <g
         transform="translate(750.3,523.3)"
         font-size="18.00"
         id="g155"
         text-anchor="middle"
         font-family="Verdana"
         stroke="none"
         fill="black">
        <text
           id="text157">
          <tspan
             id="tspan159"
             font-family="Verdana"> 0.8</tspan>
        </text>
      </g>
    </g>
    <g
       id="g161"
       stroke-linejoin="miter"
       stroke-linecap="butt"
       stroke-width="1.50"
       stroke="currentColor"
       fill="none"
       color="black">
      <path
         d="M907.5,489.6 L907.5,476.1 M907.5,25.3 L907.5,38.8  "
         id="path163"
         stroke="black" />
      <g
         transform="translate(907.5,523.3)"
         font-size="18.00"
         id="g165"
         text-anchor="middle"
         font-family="Verdana"
         stroke="none"
         fill="black">
        <text
           id="text167">
          <tspan
             id="tspan169"
             font-family="Verdana"> 1</tspan>
        </text>
      </g>
    </g>
    <g
       id="g171"
       stroke-linejoin="miter"
       stroke-linecap="butt"
       stroke-width="1.50"
       stroke="currentColor"
       fill="none"
       color="black" />
    <g
       id="g173"
       stroke-linejoin="miter"
       stroke-linecap="butt"
       stroke-width="1.50"
       stroke="currentColor"
       fill="none"
       color="black">
      <path
         d="M121.5,25.3 L121.5,489.6 L986.1,489.6 L986.1,25.3 L121.5,25.3 Z  "
         id="path175"
         stroke="black" />
    </g>
    <g
       id="g177"
       transform="translate(24.137143,3.6571429)"
       style="color:#000000;fill:none;stroke:currentColor;stroke-width:1.5;stroke-linecap:butt;stroke-linejoin:miter">
      <g
         transform="matrix(0,-1,1,0,26.5,257.5)"
         font-size="18.00"
         id="g179"
         style="font-size:18px;font-family:Verdana;text-anchor:middle;fill:#000000;stroke:none">
        <text
           id="text181">
          <tspan
             id="tspan183"
             style="font-style:normal;font-variant:normal;font-weight:bold;font-stretch:normal;font-family:Verdana;-inkscape-font-specification:'Verdana Bold'">Inverse orientation time [1/s]</tspan>
        </text>
      </g>
    </g>
    <g
       id="g185"
       transform="translate(-3.6571429,-18.285714)"
       style="color:#000000;fill:none;stroke:currentColor;stroke-width:1.5;stroke-linecap:butt;stroke-linejoin:miter">
      <g
         transform="translate(553.8,563.8)"
         font-size="18.00"
         id="g187"
         style="font-size:18px;font-family:Verdana;text-anchor:middle;fill:#000000;stroke:none">
        <text
           id="text189">
          <tspan
             id="tspan191"
             style="font-style:normal;font-variant:normal;font-weight:bold;font-stretch:normal;font-family:Verdana;-inkscape-font-specification:'Verdana Bold'">Relative intensity</tspan>
        </text>
      </g>
    </g>
    <g
       id="g193"
       stroke-linejoin="miter"
       stroke-linecap="butt"
       stroke-width="1.50"
       stroke="currentColor"
       fill="none"
       color="black" />
    <g
       id="g195"
       stroke-linejoin="miter"
       stroke-linecap="butt"
       stroke-width="2.00"
       stroke="currentColor"
       fill="none"
       color="black" />
    <g
       id="g197"
       transform="matrix(0.80090115,0,0,1.0038281,193.92609,-1.7191864)"
       style="color:#000000;fill:none;stroke:currentColor;stroke-width:2;stroke-linecap:butt;stroke-linejoin:miter">
      <path
         d="m 519,476.1 0,-54 454.5,0 0,54 -454.5,0 z"
         id="path199"
         inkscape:connector-curvature="0"
         style="stroke:#000000" />
    </g>
    <g
       id="gnuplot_plot_1">
      <title
         id="title202">Results from exponential fits</title>
      <g
         id="g204"
         stroke-linejoin="miter"
         stroke-linecap="butt"
         stroke-width="1.00"
         stroke="rgb(  0,   0,   0)"
         fill="none"
         color="white" />
      <g
         id="g206"
         stroke-linejoin="miter"
         stroke-linecap="butt"
         stroke-width="1.00"
         stroke="currentColor"
         fill="none"
         color="black">
        <g
           transform="translate(884.4,442.3)"
           font-size="18.00"
           id="g208"
           text-anchor="end"
           font-family="Verdana"
           stroke="none"
           fill="black">
          <text
             id="text210">
            <tspan
               id="tspan212"
               font-family="Verdana">Results from exponential fits</tspan>
          </text>
        </g>
      </g>
      <g
         id="g214"
         stroke-linejoin="miter"
         stroke-linecap="butt"
         stroke-width="1.00"
         stroke="currentColor"
         fill="none"
         color="black">
        <path
           d="M897.0,435.6 L960.9,435.6 M897.0,428.9 L897.0,442.3 M960.9,428.9 L960.9,442.3 M907.5,137.4 L907.5,135.0   M904.8,137.4 L910.1,137.4 M904.8,135.0 L910.1,135.0 M751.3,182.8 L751.3,180.7 M748.6,182.8 L753.9,182.8   M748.6,180.7 L753.9,180.7 M521.0,272.9 L521.0,271.7 M518.3,272.9 L523.6,272.9 M518.3,271.7 L523.6,271.7   M424.2,306.3 L424.2,305.2 M421.5,306.3 L426.8,306.3 M421.5,305.2 L426.8,305.2 M451.9,310.0 L451.9,308.8   M449.2,310.0 L454.5,310.0 M449.2,308.8 L454.5,308.8 M374.6,334.8 L374.6,333.2 M371.9,334.8 L377.2,334.8   M371.9,333.2 L377.2,333.2 M415.7,352.0 L415.7,350.9 M413.0,352.0 L418.3,352.0 M413.0,350.9 L418.3,350.9   M366.4,391.7 L366.4,390.8 M363.7,391.7 L369.0,391.7 M363.7,390.8 L369.0,390.8 M245.9,393.4 L245.9,392.6   M243.2,393.4 L248.5,393.4 M243.2,392.6 L248.5,392.6 M241.0,414.9 L241.0,413.2 M238.3,414.9 L243.6,414.9   M238.3,413.2 L243.6,413.2 M190.4,412.2 L190.4,410.3 M187.7,412.2 L193.0,412.2 M187.7,410.3 L193.0,410.3   M901.5,136.2 L913.5,136.2 M901.5,138.9 L901.5,133.6 M913.5,138.9 L913.5,133.6 M745.8,181.8 L756.8,181.8   M745.8,184.5 L745.8,179.2 M756.8,184.5 L756.8,179.2 M516.6,272.3 L525.3,272.3 M516.6,275.0 L516.6,269.7   M525.3,275.0 L525.3,269.7 M419.9,305.8 L428.5,305.8 M419.9,308.5 L419.9,303.2 M428.5,308.5 L428.5,303.2   M447.6,309.4 L456.2,309.4 M447.6,312.1 L447.6,306.8 M456.2,312.1 L456.2,306.8 M370.3,334.0 L378.9,334.0   M370.3,336.7 L370.3,331.4 M378.9,336.7 L378.9,331.4 M411.4,351.5 L420.0,351.5 M411.4,354.2 L411.4,348.9   M420.0,354.2 L420.0,348.9 M362.1,391.3 L370.8,391.3 M362.1,394.0 L362.1,388.7 M370.8,394.0 L370.8,388.7   M241.4,393.0 L250.4,393.0 M241.4,395.7 L241.4,390.4 M250.4,395.7 L250.4,390.4 M236.5,414.0 L245.5,414.0   M236.5,416.7 L236.5,411.4 M245.5,416.7 L245.5,411.4 M185.8,411.2 L195.0,411.2 M185.8,413.9 L185.8,408.6   M195.0,413.9 L195.0,408.6  "
           id="path216"
           stroke="rgb(221,  24,  31)" />
        <use
           xlink:href="#gpDot"
           x="928.9"
           y="435.6"
           id="use218"
           color="rgb(221,  24,  31)" />
      </g>
    </g>
    <g
       id="gnuplot_plot_2">
      <title
         id="title221">Linear fit</title>
      <g
         id="g223"
         stroke-linejoin="miter"
         stroke-linecap="butt"
         stroke-width="3.00"
         stroke="rgb(221,  24,  31)"
         fill="none"
         color="white" />
      <g
         id="g225"
         stroke-linejoin="miter"
         stroke-linecap="butt"
         stroke-width="3.00"
         stroke="currentColor"
         fill="none"
         color="black">
        <g
           transform="translate(884.4,469.3)"
           font-size="18.00"
           id="g227"
           text-anchor="end"
           font-family="Verdana"
           stroke="none"
           fill="black">
          <text
             id="text229">
            <tspan
               id="tspan231"
               font-family="Verdana">Linear fit</tspan>
          </text>
        </g>
      </g>
      <g
         id="g233"
         stroke-linejoin="miter"
         stroke-linecap="butt"
         stroke-width="3.00"
         stroke="currentColor"
         fill="none"
         color="black">
        <path
           d="M897.0,462.6 L960.9,462.6 M121.5,453.6 L130.2,450.0 L139.0,446.3 L147.7,442.6 L156.4,439.0 L165.2,435.3   L173.9,431.7 L182.6,428.0 L191.4,424.4 L200.1,420.7 L208.8,417.0 L217.6,413.4 L226.3,409.7 L235.0,406.1   L243.8,402.4 L252.5,398.8 L261.2,395.1 L270.0,391.5 L278.7,387.8 L287.4,384.1 L296.2,380.5 L304.9,376.8   L313.6,373.2 L322.4,369.5 L331.1,365.9 L339.8,362.2 L348.6,358.5 L357.3,354.9 L366.0,351.2 L374.8,347.6   L383.5,343.9 L392.2,340.3 L401.0,336.6 L409.7,332.9 L418.4,329.3 L427.2,325.6 L435.9,322.0 L444.6,318.3   L453.4,314.7 L462.1,311.0 L470.8,307.3 L479.6,303.7 L488.3,300.0 L497.0,296.4 L505.8,292.7 L514.5,289.1   L523.2,285.4 L532.0,281.7 L540.7,278.1 L549.4,274.4 L558.2,270.8 L566.9,267.1 L575.6,263.5 L584.4,259.8   L593.1,256.1 L601.8,252.5 L610.6,248.8 L619.3,245.2 L628.0,241.5 L636.8,237.9 L645.5,234.2 L654.2,230.5   L663.0,226.9 L671.7,223.2 L680.4,219.6 L689.2,215.9 L697.9,212.3 L706.6,208.6 L715.4,204.9 L724.1,201.3   L732.8,197.6 L741.6,194.0 L750.3,190.3 L759.0,186.7 L767.8,183.0 L776.5,179.3 L785.2,175.7 L794.0,172.0   L802.7,168.4 L811.4,164.7 L820.2,161.1 L828.9,157.4 L837.6,153.7 L846.4,150.1 L855.1,146.4 L863.8,142.8   L872.6,139.1 L881.3,135.5 L890.0,131.8 L898.8,128.2 L907.5,124.5 L916.2,120.8 L925.0,117.2 L933.7,113.5   L942.4,109.9 L951.2,106.2 L959.9,102.6 L968.6,98.9 L977.4,95.2 L986.1,91.6  "
           id="path235"
           stroke="rgb(  0,  96, 173)" />
      </g>
    </g>
    <g
       id="g237"
       stroke-linejoin="miter"
       stroke-linecap="butt"
       stroke-width="2.00"
       stroke="rgb(  0,  96, 173)"
       fill="none"
       color="white" />
    <g
       id="g239"
       stroke-linejoin="miter"
       stroke-linecap="butt"
       stroke-width="2.00"
       stroke="currentColor"
       fill="none"
       color="black" />
    <g
       id="g241"
       stroke-linejoin="miter"
       stroke-linecap="butt"
       stroke-width="1.50"
       stroke="black"
       fill="none"
       color="black" />
    <g
       id="g243"
       stroke-linejoin="miter"
       stroke-linecap="butt"
       stroke-width="1.50"
       stroke="currentColor"
       fill="none"
       color="black">
      <path
         d="M121.5,25.3 L121.5,489.6 L986.1,489.6 L986.1,25.3 L121.5,25.3 Z  "
         id="path245"
         stroke="black" />
    </g>
    <g
       id="g247"
       stroke-linejoin="miter"
       stroke-linecap="butt"
       stroke-width="1.50"
       stroke="currentColor"
       fill="none"
       color="black" />
  </g>
</svg>
