<?xml version="1.0" encoding="UTF-8" standalone="no"?>
<svg
   xmlns:dc="http://purl.org/dc/elements/1.1/"
   xmlns:cc="http://creativecommons.org/ns#"
   xmlns:rdf="http://www.w3.org/1999/02/22-rdf-syntax-ns#"
   xmlns:svg="http://www.w3.org/2000/svg"
   xmlns="http://www.w3.org/2000/svg"
   xmlns:xlink="http://www.w3.org/1999/xlink"
   xmlns:sodipodi="http://sodipodi.sourceforge.net/DTD/sodipodi-0.dtd"
   xmlns:inkscape="http://www.inkscape.org/namespaces/inkscape"
   width="975"
   height="560"
   viewBox="0 0 975 560"
   id="svg2"
   version="1.1"
   inkscape:version="0.91 r13725"
   sodipodi:docname="fitresults.svg"
   inkscape:export-filename="C:\Users\Peter\Documents\Physik\FP2\optischespumpen\tex\graphics\Bparfit.png"
   inkscape:export-xdpi="168"
   inkscape:export-ydpi="168">
  <metadata
     id="metadata339">
    <rdf:RDF>
      <cc:Work
         rdf:about="">
        <dc:format>image/svg+xml</dc:format>
        <dc:type
           rdf:resource="http://purl.org/dc/dcmitype/StillImage" />
        <dc:title>Gnuplot</dc:title>
      </cc:Work>
    </rdf:RDF>
  </metadata>
  <defs
     id="defs337" />
  <sodipodi:namedview
     pagecolor="#ffffff"
     bordercolor="#666666"
     borderopacity="1"
     objecttolerance="10"
     gridtolerance="10"
     guidetolerance="10"
     inkscape:pageopacity="0"
     inkscape:pageshadow="2"
     inkscape:window-width="1536"
     inkscape:window-height="841"
     id="namedview335"
     showgrid="false"
     inkscape:zoom="0.68359375"
     inkscape:cx="427.95221"
     inkscape:cy="259.73364"
     inkscape:window-x="-8"
     inkscape:window-y="-8"
     inkscape:window-maximized="1"
     inkscape:current-layer="gnuplot_canvas" />
  <title
     id="title4">Gnuplot</title>
  <desc
     id="desc6">Produced by GNUPLOT 5.0 patchlevel 3 </desc>
  <g
     id="gnuplot_canvas"
     transform="translate(0,-16)">
    <rect
       x="-35.10857"
       y="20.48"
       width="1024"
       height="576"
       id="rect9"
       style="fill:none" />
    <defs
       id="defs11">
      <circle
         id="gpDot"
         r="0.5"
         cx="0"
         cy="0"
         style="stroke-width:0.5" />
      <path
         id="gpPt0"
         d="M -1,0 1,0 M 0,-1 0,1"
         inkscape:connector-curvature="0"
         style="stroke:currentColor;stroke-width:0.148" />
      <path
         id="gpPt1"
         d="M -1,-1 1,1 M 1,-1 -1,1"
         inkscape:connector-curvature="0"
         style="stroke:currentColor;stroke-width:0.148" />
      <path
         id="gpPt2"
         d="M -1,0 1,0 M 0,-1 0,1 m -1,-2 2,2 m -2,0 2,-2"
         inkscape:connector-curvature="0"
         style="stroke:currentColor;stroke-width:0.148" />
      <rect
         id="gpPt3"
         x="-1"
         y="-1"
         width="2"
         height="2"
         style="stroke:currentColor;stroke-width:0.148" />
      <rect
         id="gpPt4"
         x="-1"
         y="-1"
         width="2"
         height="2"
         style="fill:currentColor;stroke:currentColor;stroke-width:0.148" />
      <circle
         id="gpPt5"
         cx="0"
         cy="0"
         r="1"
         style="stroke:currentColor;stroke-width:0.148" />
      <use
         xlink:href="#gpPt5"
         id="gpPt6"
         style="fill:currentColor;stroke:none"
         x="0"
         y="0"
         width="100%"
         height="100%" />
      <path
         id="gpPt7"
         d="m 0,-1.33 -1.33,2 2.66,0 z"
         inkscape:connector-curvature="0"
         style="stroke:currentColor;stroke-width:0.148" />
      <use
         xlink:href="#gpPt7"
         id="gpPt8"
         style="fill:currentColor;stroke:none"
         x="0"
         y="0"
         width="100%"
         height="100%" />
      <use
         xlink:href="#gpPt7"
         id="gpPt9"
         transform="scale(-1,-1)"
         style="stroke:currentColor"
         x="0"
         y="0"
         width="100%"
         height="100%" />
      <use
         xlink:href="#gpPt9"
         id="gpPt10"
         style="fill:currentColor;stroke:none"
         x="0"
         y="0"
         width="100%"
         height="100%" />
      <use
         xlink:href="#gpPt3"
         id="gpPt11"
         transform="matrix(0.70710678,0.70710678,-0.70710678,0.70710678,0,0)"
         style="stroke:currentColor"
         x="0"
         y="0"
         width="100%"
         height="100%" />
      <use
         xlink:href="#gpPt11"
         id="gpPt12"
         style="fill:currentColor;stroke:none"
         x="0"
         y="0"
         width="100%"
         height="100%" />
      <path
         id="gpPt13"
         d="M 0,1.33 1.265,0.411 0.782,-1.067 -0.782,-1.076 -1.265,0.411 Z"
         inkscape:connector-curvature="0"
         style="stroke:currentColor;stroke-width:0.148" />
      <use
         xlink:href="#gpPt13"
         id="gpPt14"
         style="fill:currentColor;stroke:none"
         x="0"
         y="0"
         width="100%"
         height="100%" />
      <filter
         id="textbox"
         filterUnits="objectBoundingBox"
         x="0"
         y="0"
         height="1"
         width="1">
        <feFlood
           flood-color="white"
           flood-opacity="1"
           result="bgnd"
           id="feFlood30" />
        <feComposite
           in="SourceGraphic"
           in2="bgnd"
           operator="atop"
           id="feComposite32" />
      </filter>
      <filter
         id="greybox"
         filterUnits="objectBoundingBox"
         x="0"
         y="0"
         height="1"
         width="1">
        <feFlood
           flood-color="lightgrey"
           flood-opacity="1"
           result="grey"
           id="feFlood35" />
        <feComposite
           in="SourceGraphic"
           in2="grey"
           operator="atop"
           id="feComposite37" />
      </filter>
    </defs>
    <g
       id="g39"
       transform="translate(-35.108571,20.48)"
       style="color:#ffffff;fill:none;stroke:currentColor;stroke-width:1;stroke-linecap:butt;stroke-linejoin:miter" />
    <g
       id="g41"
       transform="translate(-35.108571,20.48)"
       style="color:#ffffff;fill:none;stroke:currentColor;stroke-width:1.5;stroke-linecap:butt;stroke-linejoin:miter" />
    <g
       id="g43"
       transform="translate(-35.108571,20.48)"
       style="color:#000000;fill:none;stroke:currentColor;stroke-width:1.5;stroke-linecap:butt;stroke-linejoin:miter">
      <path
         d="m 134.1,489.6 13.5,0 m 838.5,0 -13.5,0"
         id="path45"
         inkscape:connector-curvature="0"
         style="stroke:#000000" />
      <g
         transform="translate(121.5,496.3)"
         font-size="18.00"
         id="g47"
         style="font-size:18px;font-family:Verdana;text-anchor:end;fill:#000000;stroke:none">
        <text
           id="text49">
          <tspan
             id="tspan51"
             style="font-family:Verdana">0.08</tspan>
        </text>
      </g>
    </g>
    <g
       id="g53"
       transform="translate(-35.108571,20.48)"
       style="color:#000000;fill:none;stroke:currentColor;stroke-width:1.5;stroke-linecap:butt;stroke-linejoin:miter">
      <path
         d="m 134.1,443.2 13.5,0 m 838.5,0 -13.5,0"
         id="path55"
         inkscape:connector-curvature="0"
         style="stroke:#000000" />
      <g
         transform="translate(121.5,449.9)"
         font-size="18.00"
         id="g57"
         style="font-size:18px;font-family:Verdana;text-anchor:end;fill:#000000;stroke:none">
        <text
           id="text59">
          <tspan
             id="tspan61"
             style="font-family:Verdana">0.085</tspan>
        </text>
      </g>
    </g>
    <g
       id="g63"
       transform="translate(-35.108571,20.48)"
       style="color:#000000;fill:none;stroke:currentColor;stroke-width:1.5;stroke-linecap:butt;stroke-linejoin:miter">
      <path
         d="m 134.1,396.7 13.5,0 m 838.5,0 -13.5,0"
         id="path65"
         inkscape:connector-curvature="0"
         style="stroke:#000000" />
      <g
         transform="translate(121.5,403.4)"
         font-size="18.00"
         id="g67"
         style="font-size:18px;font-family:Verdana;text-anchor:end;fill:#000000;stroke:none">
        <text
           id="text69">
          <tspan
             id="tspan71"
             style="font-family:Verdana">0.09</tspan>
        </text>
      </g>
    </g>
    <g
       id="g73"
       transform="translate(-35.108571,20.48)"
       style="color:#000000;fill:none;stroke:currentColor;stroke-width:1.5;stroke-linecap:butt;stroke-linejoin:miter">
      <path
         d="m 134.1,350.3 13.5,0 m 838.5,0 -13.5,0"
         id="path75"
         inkscape:connector-curvature="0"
         style="stroke:#000000" />
      <g
         transform="translate(121.5,357)"
         font-size="18.00"
         id="g77"
         style="font-size:18px;font-family:Verdana;text-anchor:end;fill:#000000;stroke:none">
        <text
           id="text79">
          <tspan
             id="tspan81"
             style="font-family:Verdana">0.095</tspan>
        </text>
      </g>
    </g>
    <g
       id="g83"
       transform="translate(-35.108571,20.48)"
       style="color:#000000;fill:none;stroke:currentColor;stroke-width:1.5;stroke-linecap:butt;stroke-linejoin:miter">
      <path
         d="m 134.1,303.9 13.5,0 m 838.5,0 -13.5,0"
         id="path85"
         inkscape:connector-curvature="0"
         style="stroke:#000000" />
      <g
         transform="translate(121.5,310.6)"
         font-size="18.00"
         id="g87"
         style="font-size:18px;font-family:Verdana;text-anchor:end;fill:#000000;stroke:none">
        <text
           id="text89">
          <tspan
             id="tspan91"
             style="font-family:Verdana">0.1</tspan>
        </text>
      </g>
    </g>
    <g
       id="g93"
       transform="translate(-35.108571,20.48)"
       style="color:#000000;fill:none;stroke:currentColor;stroke-width:1.5;stroke-linecap:butt;stroke-linejoin:miter">
      <path
         d="m 134.1,257.4 13.5,0 m 838.5,0 -13.5,0"
         id="path95"
         inkscape:connector-curvature="0"
         style="stroke:#000000" />
      <g
         transform="translate(121.5,264.1)"
         font-size="18.00"
         id="g97"
         style="font-size:18px;font-family:Verdana;text-anchor:end;fill:#000000;stroke:none">
        <text
           id="text99">
          <tspan
             id="tspan101"
             style="font-family:Verdana">0.105</tspan>
        </text>
      </g>
    </g>
    <g
       id="g103"
       transform="translate(-35.108571,20.48)"
       style="color:#000000;fill:none;stroke:currentColor;stroke-width:1.5;stroke-linecap:butt;stroke-linejoin:miter">
      <path
         d="m 134.1,211 13.5,0 m 838.5,0 -13.5,0"
         id="path105"
         inkscape:connector-curvature="0"
         style="stroke:#000000" />
      <g
         transform="translate(121.5,217.7)"
         font-size="18.00"
         id="g107"
         style="font-size:18px;font-family:Verdana;text-anchor:end;fill:#000000;stroke:none">
        <text
           id="text109">
          <tspan
             id="tspan111"
             style="font-family:Verdana">0.11</tspan>
        </text>
      </g>
    </g>
    <g
       id="g113"
       transform="translate(-35.108571,20.48)"
       style="color:#000000;fill:none;stroke:currentColor;stroke-width:1.5;stroke-linecap:butt;stroke-linejoin:miter">
      <path
         d="m 134.1,164.6 13.5,0 m 838.5,0 -13.5,0"
         id="path115"
         inkscape:connector-curvature="0"
         style="stroke:#000000" />
      <g
         transform="translate(121.5,171.3)"
         font-size="18.00"
         id="g117"
         style="font-size:18px;font-family:Verdana;text-anchor:end;fill:#000000;stroke:none">
        <text
           id="text119">
          <tspan
             id="tspan121"
             style="font-family:Verdana">0.115</tspan>
        </text>
      </g>
    </g>
    <g
       id="g123"
       transform="translate(-35.108571,20.48)"
       style="color:#000000;fill:none;stroke:currentColor;stroke-width:1.5;stroke-linecap:butt;stroke-linejoin:miter">
      <path
         d="m 134.1,118.2 13.5,0 m 838.5,0 -13.5,0"
         id="path125"
         inkscape:connector-curvature="0"
         style="stroke:#000000" />
      <g
         transform="translate(121.5,124.9)"
         font-size="18.00"
         id="g127"
         style="font-size:18px;font-family:Verdana;text-anchor:end;fill:#000000;stroke:none">
        <text
           id="text129">
          <tspan
             id="tspan131"
             style="font-family:Verdana">0.12</tspan>
        </text>
      </g>
    </g>
    <g
       id="g133"
       transform="translate(-35.108571,20.48)"
       style="color:#000000;fill:none;stroke:currentColor;stroke-width:1.5;stroke-linecap:butt;stroke-linejoin:miter">
      <path
         d="m 134.1,71.7 13.5,0 m 838.5,0 -13.5,0"
         id="path135"
         inkscape:connector-curvature="0"
         style="stroke:#000000" />
      <g
         transform="translate(121.5,78.4)"
         font-size="18.00"
         id="g137"
         style="font-size:18px;font-family:Verdana;text-anchor:end;fill:#000000;stroke:none">
        <text
           id="text139">
          <tspan
             id="tspan141"
             style="font-family:Verdana">0.125</tspan>
        </text>
      </g>
    </g>
    <g
       id="g143"
       transform="translate(-35.108571,20.48)"
       style="color:#000000;fill:none;stroke:currentColor;stroke-width:1.5;stroke-linecap:butt;stroke-linejoin:miter">
      <path
         d="m 134.1,25.3 13.5,0 m 838.5,0 -13.5,0"
         id="path145"
         inkscape:connector-curvature="0"
         style="stroke:#000000" />
      <g
         transform="translate(121.5,32)"
         font-size="18.00"
         id="g147"
         style="font-size:18px;font-family:Verdana;text-anchor:end;fill:#000000;stroke:none">
        <text
           id="text149">
          <tspan
             id="tspan151"
             style="font-family:Verdana">0.13</tspan>
        </text>
      </g>
    </g>
    <g
       id="g153"
       transform="translate(-35.108571,20.48)"
       style="color:#000000;fill:none;stroke:currentColor;stroke-width:1.5;stroke-linecap:butt;stroke-linejoin:miter">
      <path
         d="m 134.1,489.6 0,-13.5 m 0,-450.8 0,13.5"
         id="path155"
         inkscape:connector-curvature="0"
         style="stroke:#000000" />
      <g
         transform="translate(134.1,523.3)"
         font-size="18.00"
         id="g157"
         style="font-size:18px;font-family:Verdana;text-anchor:middle;fill:#000000;stroke:none">
        <text
           id="text159">
          <tspan
             id="tspan161"
             style="font-family:Verdana">2</tspan>
        </text>
      </g>
    </g>
    <g
       id="g163"
       transform="translate(-35.108571,20.48)"
       style="color:#000000;fill:none;stroke:currentColor;stroke-width:1.5;stroke-linecap:butt;stroke-linejoin:miter">
      <path
         d="m 255.8,489.6 0,-13.5 m 0,-450.8 0,13.5"
         id="path165"
         inkscape:connector-curvature="0"
         style="stroke:#000000" />
      <g
         transform="translate(255.8,523.3)"
         font-size="18.00"
         id="g167"
         style="font-size:18px;font-family:Verdana;text-anchor:middle;fill:#000000;stroke:none">
        <text
           id="text169">
          <tspan
             id="tspan171"
             style="font-family:Verdana">3</tspan>
        </text>
      </g>
    </g>
    <g
       id="g173"
       transform="translate(-35.108571,20.48)"
       style="color:#000000;fill:none;stroke:currentColor;stroke-width:1.5;stroke-linecap:butt;stroke-linejoin:miter">
      <path
         d="m 377.5,489.6 0,-13.5 m 0,-450.8 0,13.5"
         id="path175"
         inkscape:connector-curvature="0"
         style="stroke:#000000" />
      <g
         transform="translate(377.5,523.3)"
         font-size="18.00"
         id="g177"
         style="font-size:18px;font-family:Verdana;text-anchor:middle;fill:#000000;stroke:none">
        <text
           id="text179">
          <tspan
             id="tspan181"
             style="font-family:Verdana">4</tspan>
        </text>
      </g>
    </g>
    <g
       id="g183"
       transform="translate(-35.108571,20.48)"
       style="color:#000000;fill:none;stroke:currentColor;stroke-width:1.5;stroke-linecap:butt;stroke-linejoin:miter">
      <path
         d="m 499.2,489.6 0,-13.5 m 0,-450.8 0,13.5"
         id="path185"
         inkscape:connector-curvature="0"
         style="stroke:#000000" />
      <g
         transform="translate(499.2,523.3)"
         font-size="18.00"
         id="g187"
         style="font-size:18px;font-family:Verdana;text-anchor:middle;fill:#000000;stroke:none">
        <text
           id="text189">
          <tspan
             id="tspan191"
             style="font-family:Verdana">5</tspan>
        </text>
      </g>
    </g>
    <g
       id="g193"
       transform="translate(-35.108571,20.48)"
       style="color:#000000;fill:none;stroke:currentColor;stroke-width:1.5;stroke-linecap:butt;stroke-linejoin:miter">
      <path
         d="m 621,489.6 0,-13.5 m 0,-450.8 0,13.5"
         id="path195"
         inkscape:connector-curvature="0"
         style="stroke:#000000" />
      <g
         transform="translate(621,523.3)"
         font-size="18.00"
         id="g197"
         style="font-size:18px;font-family:Verdana;text-anchor:middle;fill:#000000;stroke:none">
        <text
           id="text199">
          <tspan
             id="tspan201"
             style="font-family:Verdana">6</tspan>
        </text>
      </g>
    </g>
    <g
       id="g203"
       transform="translate(-35.108571,20.48)"
       style="color:#000000;fill:none;stroke:currentColor;stroke-width:1.5;stroke-linecap:butt;stroke-linejoin:miter">
      <path
         d="m 742.7,489.6 0,-13.5 m 0,-450.8 0,13.5"
         id="path205"
         inkscape:connector-curvature="0"
         style="stroke:#000000" />
      <g
         transform="translate(742.7,523.3)"
         font-size="18.00"
         id="g207"
         style="font-size:18px;font-family:Verdana;text-anchor:middle;fill:#000000;stroke:none">
        <text
           id="text209">
          <tspan
             id="tspan211"
             style="font-family:Verdana">7</tspan>
        </text>
      </g>
    </g>
    <g
       id="g213"
       transform="translate(-35.108571,20.48)"
       style="color:#000000;fill:none;stroke:currentColor;stroke-width:1.5;stroke-linecap:butt;stroke-linejoin:miter">
      <path
         d="m 864.4,489.6 0,-13.5 m 0,-450.8 0,13.5"
         id="path215"
         inkscape:connector-curvature="0"
         style="stroke:#000000" />
      <g
         transform="translate(864.4,523.3)"
         font-size="18.00"
         id="g217"
         style="font-size:18px;font-family:Verdana;text-anchor:middle;fill:#000000;stroke:none">
        <text
           id="text219">
          <tspan
             id="tspan221"
             style="font-family:Verdana">8</tspan>
        </text>
      </g>
    </g>
    <g
       id="g223"
       transform="translate(-35.108571,20.48)"
       style="color:#000000;fill:none;stroke:currentColor;stroke-width:1.5;stroke-linecap:butt;stroke-linejoin:miter">
      <path
         d="m 986.1,489.6 0,-13.5 m 0,-450.8 0,13.5"
         id="path225"
         inkscape:connector-curvature="0"
         style="stroke:#000000" />
      <g
         transform="translate(986.1,523.3)"
         font-size="18.00"
         id="g227"
         style="font-size:18px;font-family:Verdana;text-anchor:middle;fill:#000000;stroke:none">
        <text
           id="text229">
          <tspan
             id="tspan231"
             style="font-family:Verdana">9</tspan>
        </text>
      </g>
    </g>
    <g
       id="g233"
       transform="translate(-35.108571,20.48)"
       style="color:#000000;fill:none;stroke:currentColor;stroke-width:1.5;stroke-linecap:butt;stroke-linejoin:miter" />
    <g
       id="g235"
       transform="translate(-35.108571,20.48)"
       style="color:#000000;fill:none;stroke:currentColor;stroke-width:1.5;stroke-linecap:butt;stroke-linejoin:miter">
      <path
         d="m 134.1,25.3 0,464.3 852,0 0,-464.3 -852,0 z"
         id="path237"
         inkscape:connector-curvature="0"
         style="stroke:#000000" />
    </g>
    <g
       id="g239"
       transform="translate(-7.3142854,21.942857)"
       style="color:#000000;fill:none;stroke:currentColor;stroke-width:1.5;stroke-linecap:butt;stroke-linejoin:miter">
      <g
         transform="matrix(0,-1,1,0,26.5,257.5)"
         font-size="18.00"
         id="g241"
         style="font-size:18px;font-family:Verdana;text-anchor:middle;fill:#000000;stroke:none">
        <text
           id="text243">
          <tspan
             id="tspan245"
             style="font-style:normal;font-variant:normal;font-weight:bold;font-stretch:normal;font-family:Verdana;-inkscape-font-specification:'Verdana Bold'">Fit parameter B [V]</tspan>
        </text>
      </g>
    </g>
    <g
       id="g247"
       transform="translate(-35.108571,20.48)"
       style="color:#000000;fill:none;stroke:currentColor;stroke-width:1.5;stroke-linecap:butt;stroke-linejoin:miter">
      <g
         transform="translate(560.1,563.8)"
         font-size="18.00"
         id="g249"
         style="font-size:18px;font-family:Verdana;text-anchor:middle;fill:#000000;stroke:none">
        <text
           id="text251"
           y="-16.091429">
          <tspan
             id="tspan253"
             style="font-style:normal;font-variant:normal;font-weight:bold;font-stretch:normal;font-family:Verdana;-inkscape-font-specification:'Verdana Bold'">Dark time [ms]</tspan>
        </text>
      </g>
    </g>
    <g
       id="g255"
       transform="translate(-35.108571,20.48)"
       style="color:#000000;fill:none;stroke:currentColor;stroke-width:1.5;stroke-linecap:butt;stroke-linejoin:miter" />
    <g
       id="g257"
       transform="translate(-35.108571,20.48)"
       style="color:#000000;fill:none;stroke:currentColor;stroke-width:2;stroke-linecap:butt;stroke-linejoin:miter" />
    <g
       id="g259"
       transform="translate(-35.108571,20.48)"
       style="color:#000000;fill:none;stroke:currentColor;stroke-width:2;stroke-linecap:butt;stroke-linejoin:miter">
      <path
         d="m 733.2,476.1 0,-54 240.3,0 0,54 -240.3,0 z"
         id="path261"
         inkscape:connector-curvature="0"
         style="stroke:#000000" />
    </g>
    <g
       id="gnuplot_plot_1"
       transform="translate(-35.108571,20.48)">
      <title
         id="title264">Fitresults</title>
      <g
         id="g266"
         style="color:#ffffff;fill:none;stroke:#000000;stroke-width:1;stroke-linecap:butt;stroke-linejoin:miter" />
      <g
         id="g268"
         style="color:#000000;fill:none;stroke:currentColor;stroke-width:1;stroke-linecap:butt;stroke-linejoin:miter">
        <g
           transform="translate(884.4,442.3)"
           font-size="18.00"
           id="g270"
           style="font-size:18px;font-family:Verdana;text-anchor:end;fill:#000000;stroke:none">
          <text
             id="text272">
            <tspan
               id="tspan274"
               style="font-family:Verdana">Fitresults</tspan>
          </text>
        </g>
      </g>
      <g
         id="g276"
         style="color:#000000;fill:none;stroke:currentColor;stroke-width:1;stroke-linecap:butt;stroke-linejoin:miter">
        <path
           d="m 897,435.6 63.9,0 m -63.9,-6.7 0,13.4 m 63.9,-13.4 0,13.4 m -90.5,-337.2 0,-42.6 m -2.7,42.6 5.3,0 m -5.3,-42.6 5.3,0 m 26.3,134.1 0,-27.5 m -2.7,27.5 5.3,0 m -5.3,-27.5 5.3,0 m -233.6,85.7 0,-28.7 m -2.7,28.7 5.3,0 m -5.3,-28.7 5.3,0 m -130.1,112.4 0,-22.4 m -2.7,22.4 5.3,0 m -5.3,-22.4 5.3,0 m -104.9,42.3 0,-29.7 m -2.7,29.7 5.3,0 m -5.3,-29.7 5.3,0 m -79.3,106.8 0,-24.9 m -2.7,24.9 5.3,0 m -5.3,-24.9 5.3,0 m -60.9,34.9 0,-21.2 m -2.7,21.2 5.3,0 m -5.3,-21.2 5.3,0 m -45.2,-9.5 0,-31.2 m -2.7,31.2 5.3,0 m -5.3,-31.2 5.3,0 m -37.9,59.1 0,-32.2 m -2.7,32.2 5.3,0 m -5.3,-32.2 5.3,0 m -30.6,59.8 0,-32 m -2.7,32 5.3,0 m -5.3,-32 5.3,0 m -28.2,29.6 0,-35.2 m -2.7,35.2 5.3,0 m -5.3,-35.2 5.3,0 m -23.3,46.5 0,-35.2 m -2.7,35.2 5.3,0 m -5.3,-35.2 5.3,0 m 704.3,-360.2 24.4,0 m -24.4,2.7 0,-5.3 m 24.4,5.3 0,-5.3 m 4.6,101.6 24.3,0 m -24.3,2.7 0,-5.3 m 24.3,5.3 0,-5.3 m -255.3,60.3 24.3,0 m -24.3,2.7 0,-5.3 m 24.3,5.3 0,-5.3 m -144.6,89.4 9.8,0 m -9.8,2.7 0,-5.3 m 9.8,5.3 0,-5.3 m -112,18.9 9.7,0 m -9.7,2.7 0,-5.3 m 9.7,5.3 0,-5.3 m -86.4,82.1 9.7,0 m -9.7,2.7 0,-5.3 m 9.7,5.3 0,-5.3 m -66.9,14.4 7.3,0 m -7.3,2.7 0,-5.3 m 7.3,5.3 0,-5.3 m -49.9,-33.1 7.3,0 m -7.3,2.7 0,-5.3 m 7.3,5.3 0,-5.3 m -42.6,30 7.3,0 m -7.3,2.7 0,-5.3 m 7.3,5.3 0,-5.3 m -35.3,30.3 7.3,0 m -7.3,2.7 0,-5.3 m 7.3,5.3 0,-5.3 m -32.9,-1.4 7.3,0 m -7.3,2.7 0,-5.3 m 7.3,5.3 0,-5.3 m -26.7,13.9 4.9,0 m -4.9,2.7 0,-5.3 m 4.9,5.3 0,-5.3"
           id="path278"
           inkscape:connector-curvature="0"
           style="stroke:#dd181f" />
        <use
           xlink:href="#gpPt0"
           transform="matrix(6.75,0,0,6.75,870.4,83.8)"
           id="use280"
           style="color:#dd181f"
           x="0"
           y="0"
           width="100%"
           height="100%" />
        <use
           xlink:href="#gpPt0"
           transform="matrix(6.75,0,0,6.75,899.3,182.8)"
           id="use282"
           style="color:#dd181f"
           x="0"
           y="0"
           width="100%"
           height="100%" />
        <use
           xlink:href="#gpPt0"
           transform="matrix(6.75,0,0,6.75,668.3,240.5)"
           id="use284"
           style="color:#dd181f"
           x="0"
           y="0"
           width="100%"
           height="100%" />
        <use
           xlink:href="#gpPt0"
           transform="matrix(6.75,0,0,6.75,540.8,327.3)"
           id="use286"
           style="color:#dd181f"
           x="0"
           y="0"
           width="100%"
           height="100%" />
        <use
           xlink:href="#gpPt0"
           transform="matrix(6.75,0,0,6.75,438.5,343.6)"
           id="use288"
           style="color:#dd181f"
           x="0"
           y="0"
           width="100%"
           height="100%" />
        <use
           xlink:href="#gpPt0"
           transform="matrix(6.75,0,0,6.75,361.8,423.1)"
           id="use290"
           style="color:#dd181f"
           x="0"
           y="0"
           width="100%"
           height="100%" />
        <use
           xlink:href="#gpPt0"
           transform="matrix(6.75,0,0,6.75,303.5,434.9)"
           id="use292"
           style="color:#dd181f"
           x="0"
           y="0"
           width="100%"
           height="100%" />
        <use
           xlink:href="#gpPt0"
           transform="matrix(6.75,0,0,6.75,260.9,399.2)"
           id="use294"
           style="color:#dd181f"
           x="0"
           y="0"
           width="100%"
           height="100%" />
        <use
           xlink:href="#gpPt0"
           transform="matrix(6.75,0,0,6.75,225.6,426.6)"
           id="use296"
           style="color:#dd181f"
           x="0"
           y="0"
           width="100%"
           height="100%" />
        <use
           xlink:href="#gpPt0"
           transform="matrix(6.75,0,0,6.75,197.6,454.3)"
           id="use298"
           style="color:#dd181f"
           x="0"
           y="0"
           width="100%"
           height="100%" />
        <use
           xlink:href="#gpPt0"
           transform="matrix(6.75,0,0,6.75,172,450.3)"
           id="use300"
           style="color:#dd181f"
           x="0"
           y="0"
           width="100%"
           height="100%" />
        <use
           xlink:href="#gpPt0"
           transform="matrix(6.75,0,0,6.75,151.3,461.6)"
           id="use302"
           style="color:#dd181f"
           x="0"
           y="0"
           width="100%"
           height="100%" />
        <use
           xlink:href="#gpPt0"
           transform="matrix(6.75,0,0,6.75,928.9,435.6)"
           id="use304"
           style="color:#dd181f"
           x="0"
           y="0"
           width="100%"
           height="100%" />
      </g>
    </g>
    <g
       id="gnuplot_plot_2"
       transform="translate(-35.108571,20.48)">
      <title
         id="title307">Fit function</title>
      <g
         id="g309"
         style="color:#ffffff;fill:none;stroke:#dd181f;stroke-width:3;stroke-linecap:butt;stroke-linejoin:miter" />
      <g
         id="g311"
         style="color:#000000;fill:none;stroke:currentColor;stroke-width:3;stroke-linecap:butt;stroke-linejoin:miter">
        <g
           transform="translate(884.4,469.3)"
           font-size="18.00"
           id="g313"
           style="font-size:18px;font-family:Verdana;text-anchor:end;fill:#000000;stroke:none">
          <text
             id="text315">
            <tspan
               id="tspan317"
               style="font-family:Verdana">Fit function</tspan>
          </text>
        </g>
      </g>
      <g
         id="g319"
         style="color:#000000;fill:none;stroke:currentColor;stroke-width:3;stroke-linecap:butt;stroke-linejoin:miter">
        <path
           d="m 897,462.6 63.9,0 m -826.8,22.8 8.6,-3.7 8.6,-3.7 8.6,-3.7 8.6,-3.6 8.6,-3.7 8.6,-3.7 8.6,-3.7 8.6,-3.6 8.7,-3.7 8.6,-3.7 8.6,-3.6 8.6,-3.7 8.6,-3.7 8.6,-3.7 8.6,-3.6 8.6,-3.7 8.6,-3.7 8.6,-3.7 8.6,-3.6 8.6,-3.7 8.6,-3.7 8.6,-3.7 8.6,-3.6 8.6,-3.7 8.7,-3.7 8.6,-3.6 8.6,-3.7 8.6,-3.7 8.6,-3.7 8.6,-3.6 8.6,-3.7 8.6,-3.7 8.6,-3.7 8.6,-3.6 8.6,-3.7 8.6,-3.7 8.6,-3.6 8.6,-3.7 8.6,-3.7 8.6,-3.7 8.6,-3.6 8.7,-3.7 8.6,-3.7 8.6,-3.7 8.6,-3.6 8.6,-3.7 8.6,-3.7 8.6,-3.6 8.6,-3.7 8.6,-3.7 8.6,-3.7 8.6,-3.6 8.6,-3.7 8.6,-3.7 8.6,-3.7 8.6,-3.6 8.6,-3.7 8.7,-3.7 8.6,-3.6 8.6,-3.7 8.6,-3.7 8.6,-3.7 8.6,-3.6 8.6,-3.7 8.6,-3.7 8.6,-3.6 8.6,-3.7 8.6,-3.7 8.6,-3.7 8.6,-3.6 8.6,-3.7 8.6,-3.7 8.6,-3.7 8.6,-3.6 8.7,-3.7 8.6,-3.7 8.6,-3.6 8.6,-3.7 8.6,-3.7 8.6,-3.7 8.6,-3.6 8.6,-3.7 8.6,-3.7 8.6,-3.7 8.6,-3.6 8.6,-3.7 8.6,-3.7 8.6,-3.6 8.6,-3.7 8.6,-3.7 8.7,-3.7 8.6,-3.6 8.6,-3.7 8.6,-3.7 8.6,-3.7 8.6,-3.6 8.6,-3.7 8.6,-3.7 8.6,-3.6"
           id="path321"
           inkscape:connector-curvature="0"
           style="stroke:#0060ad" />
      </g>
    </g>
    <g
       id="g323"
       transform="translate(-35.108571,20.48)"
       style="color:#ffffff;fill:none;stroke:#0060ad;stroke-width:2;stroke-linecap:butt;stroke-linejoin:miter" />
    <g
       id="g325"
       transform="translate(-35.108571,20.48)"
       style="color:#000000;fill:none;stroke:currentColor;stroke-width:2;stroke-linecap:butt;stroke-linejoin:miter" />
    <g
       id="g327"
       transform="translate(-35.108571,20.48)"
       style="color:#000000;fill:none;stroke:#000000;stroke-width:1.5;stroke-linecap:butt;stroke-linejoin:miter" />
    <g
       id="g329"
       transform="translate(-35.108571,20.48)"
       style="color:#000000;fill:none;stroke:currentColor;stroke-width:1.5;stroke-linecap:butt;stroke-linejoin:miter">
      <path
         d="m 134.1,25.3 0,464.3 852,0 0,-464.3 -852,0 z"
         id="path331"
         inkscape:connector-curvature="0"
         style="stroke:#000000" />
    </g>
    <g
       id="g333"
       transform="translate(-35.108571,20.48)"
       style="color:#000000;fill:none;stroke:currentColor;stroke-width:1.5;stroke-linecap:butt;stroke-linejoin:miter" />
  </g>
</svg>
